<svg width="262" height="29" viewBox="0 0 262 29" fill="none" xmlns="http://www.w3.org/2000/svg">
<path d="M0.351562 29V0.210938H6.30859V11.1875H17.5586V0.210938H23.5352V29H17.5586V16.1484H6.30859V29H0.351562ZM50.5859 5.30859H35.3516V11.4219H49.3359V16.4219H35.3516V23.8242H51.2891V29H29.4727V0.210938H50.5859V5.30859ZM72.4023 0.210938H79.2188L69.5898 18.1797V29H63.5742V18.1797L53.6133 0.210938H60.7031L66.6797 12.75L72.4023 0.210938ZM84.0039 0.308594H90.1172V7.61328L88.5352 21.0508H85.625L84.0039 7.61328V0.308594ZM84.1406 23.3555H89.9609V29H84.1406V23.3555ZM111.035 0.210938L114.844 16.6953L115.664 21.2852L116.504 16.793L119.746 0.210938H126.094L129.512 16.6953L130.391 21.2852L131.27 16.8711L135.117 0.210938H141.23L133.125 29H127.383L123.906 12.1641L122.891 6.59766L121.875 12.1641L118.398 29H112.812L104.648 0.210938H111.035ZM166.172 5.30859H150.938V11.4219H164.922V16.4219H150.938V23.8242H166.875V29H145.059V0.210938H166.172V5.30859ZM189.082 18.1211H196.387L192.793 6.79297L189.082 18.1211ZM189.453 0.210938H196.25L206.445 29H199.922L198.066 23.082H187.461L185.469 29H179.18L189.453 0.210938ZM216.133 5.21094V12.9453H222.949C224.303 12.9453 225.319 12.7891 225.996 12.4766C227.194 11.9297 227.793 10.849 227.793 9.23438C227.793 7.48958 227.214 6.31771 226.055 5.71875C225.404 5.38021 224.427 5.21094 223.125 5.21094H216.133ZM224.375 0.210938C226.393 0.25 227.943 0.497396 229.023 0.953125C230.117 1.40885 231.042 2.07943 231.797 2.96484C232.422 3.69401 232.917 4.5013 233.281 5.38672C233.646 6.27214 233.828 7.28125 233.828 8.41406C233.828 9.78125 233.483 11.1289 232.793 12.457C232.103 13.7721 230.964 14.7031 229.375 15.25C230.703 15.7839 231.641 16.5456 232.188 17.5352C232.747 18.5117 233.027 20.0091 233.027 22.0273V23.9609C233.027 25.276 233.079 26.168 233.184 26.6367C233.34 27.3789 233.704 27.9258 234.277 28.2773V29H227.656C227.474 28.362 227.344 27.8477 227.266 27.457C227.109 26.6497 227.025 25.8229 227.012 24.9766L226.973 22.3008C226.947 20.4648 226.608 19.2409 225.957 18.6289C225.319 18.0169 224.115 17.7109 222.344 17.7109H216.133V29H210.254V0.210938H224.375ZM260.312 5.30859H245.078V11.4219H259.062V16.4219H245.078V23.8242H261.016V29H239.199V0.210938H260.312V5.30859Z" fill="#0B0405"/>
<path d="M0.351562 29V0.210938H6.30859V11.1875H17.5586V0.210938H23.5352V29H17.5586V16.1484H6.30859V29H0.351562ZM50.5859 5.30859H35.3516V11.4219H49.3359V16.4219H35.3516V23.8242H51.2891V29H29.4727V0.210938H50.5859V5.30859ZM72.4023 0.210938H79.2188L69.5898 18.1797V29H63.5742V18.1797L53.6133 0.210938H60.7031L66.6797 12.75L72.4023 0.210938ZM84.0039 0.308594H90.1172V7.61328L88.5352 21.0508H85.625L84.0039 7.61328V0.308594ZM84.1406 23.3555H89.9609V29H84.1406V23.3555ZM111.035 0.210938L114.844 16.6953L115.664 21.2852L116.504 16.793L119.746 0.210938H126.094L129.512 16.6953L130.391 21.2852L131.27 16.8711L135.117 0.210938H141.23L133.125 29H127.383L123.906 12.1641L122.891 6.59766L121.875 12.1641L118.398 29H112.812L104.648 0.210938H111.035ZM166.172 5.30859H150.938V11.4219H164.922V16.4219H150.938V23.8242H166.875V29H145.059V0.210938H166.172V5.30859ZM189.082 18.1211H196.387L192.793 6.79297L189.082 18.1211ZM189.453 0.210938H196.25L206.445 29H199.922L198.066 23.082H187.461L185.469 29H179.18L189.453 0.210938ZM216.133 5.21094V12.9453H222.949C224.303 12.9453 225.319 12.7891 225.996 12.4766C227.194 11.9297 227.793 10.849 227.793 9.23438C227.793 7.48958 227.214 6.31771 226.055 5.71875C225.404 5.38021 224.427 5.21094 223.125 5.21094H216.133ZM224.375 0.210938C226.393 0.25 227.943 0.497396 229.023 0.953125C230.117 1.40885 231.042 2.07943 231.797 2.96484C232.422 3.69401 232.917 4.5013 233.281 5.38672C233.646 6.27214 233.828 7.28125 233.828 8.41406C233.828 9.78125 233.483 11.1289 232.793 12.457C232.103 13.7721 230.964 14.7031 229.375 15.25C230.703 15.7839 231.641 16.5456 232.188 17.5352C232.747 18.5117 233.027 20.0091 233.027 22.0273V23.9609C233.027 25.276 233.079 26.168 233.184 26.6367C233.34 27.3789 233.704 27.9258 234.277 28.2773V29H227.656C227.474 28.362 227.344 27.8477 227.266 27.457C227.109 26.6497 227.025 25.8229 227.012 24.9766L226.973 22.3008C226.947 20.4648 226.608 19.2409 225.957 18.6289C225.319 18.0169 224.115 17.7109 222.344 17.7109H216.133V29H210.254V0.210938H224.375ZM260.312 5.30859H245.078V11.4219H259.062V16.4219H245.078V23.8242H261.016V29H239.199V0.210938H260.312V5.30859Z" fill="url(#paint0_linear_385_52025)"/>
<defs>
<linearGradient id="paint0_linear_385_52025" x1="-141.255" y1="15.1703" x2="285.316" y2="95.2747" gradientUnits="userSpaceOnUse">
<stop stop-color="#3069FE"/>
<stop offset="1" stop-color="#1BF1D8"/>
</linearGradient>
</defs>
</svg>
