<svg width="316" height="87" viewBox="0 0 316 87" fill="none" xmlns="http://www.w3.org/2000/svg">
<path d="M30.9482 1.6123L35.2329 20.1572L36.1558 25.3208L37.1006 20.2671L40.748 1.6123H47.8892L51.7344 20.1572L52.7231 25.3208L53.7119 20.355L58.0405 1.6123H64.918L55.7993 34H49.3394L45.4282 15.0596L44.2856 8.79736L43.1431 15.0596L39.2319 34H32.9478L23.7632 1.6123H30.9482ZM92.9771 7.34717H75.8384V14.2246H91.5708V19.8496H75.8384V28.1772H93.7681V34H69.2246V1.6123H92.9771V7.34717ZM110.16 18.0698C110.16 12.4155 111.676 8.05762 114.708 4.99609C117.345 2.33008 120.699 0.99707 124.771 0.99707C130.221 0.99707 134.205 2.78418 136.725 6.3584C138.116 8.36523 138.863 10.3794 138.966 12.4009H132.198C131.759 10.8481 131.195 9.67627 130.506 8.88525C129.276 7.479 127.452 6.77588 125.035 6.77588C122.574 6.77588 120.633 7.77197 119.212 9.76416C117.792 11.7417 117.081 14.5469 117.081 18.1797C117.081 21.8125 117.828 24.5371 119.322 26.3535C120.831 28.1553 122.743 29.0562 125.057 29.0562C127.43 29.0562 129.239 28.2798 130.484 26.7271C131.173 25.8921 131.744 24.6396 132.198 22.9697H138.9C138.314 26.5 136.812 29.3711 134.396 31.583C131.993 33.7949 128.91 34.9009 125.145 34.9009C120.487 34.9009 116.825 33.4067 114.159 30.4185C111.493 27.4155 110.16 23.2993 110.16 18.0698ZM150.853 7.2373V15.9385H158.521C160.045 15.9385 161.188 15.7627 161.949 15.4111C163.297 14.7959 163.971 13.5801 163.971 11.7637C163.971 9.80078 163.319 8.48242 162.015 7.80859C161.283 7.42773 160.184 7.2373 158.719 7.2373H150.853ZM160.125 1.6123C162.396 1.65625 164.139 1.93457 165.355 2.44727C166.585 2.95996 167.625 3.71436 168.475 4.71045C169.178 5.53076 169.735 6.43896 170.145 7.43506C170.555 8.43115 170.76 9.56641 170.76 10.8408C170.76 12.3789 170.372 13.895 169.596 15.3892C168.819 16.8687 167.538 17.916 165.75 18.5312C167.245 19.1318 168.299 19.9888 168.915 21.1021C169.544 22.2007 169.859 23.8853 169.859 26.1558V28.3311C169.859 29.8105 169.918 30.814 170.035 31.3413C170.211 32.1763 170.621 32.7915 171.266 33.187V34H163.817C163.612 33.2822 163.465 32.7036 163.377 32.2642C163.202 31.356 163.106 30.4258 163.092 29.4736L163.048 26.4634C163.019 24.3979 162.638 23.021 161.905 22.3325C161.188 21.644 159.833 21.2998 157.84 21.2998H150.853V34H144.239V1.6123H160.125ZM200.555 7.34717H183.417V14.2246H199.149V19.8496H183.417V28.1772H201.346V34H176.803V1.6123H200.555V7.34717ZM215.475 21.7612H223.692L219.649 9.01709L215.475 21.7612ZM215.892 1.6123H223.539L235.008 34H227.669L225.582 27.3423H213.651L211.41 34H204.334L215.892 1.6123ZM259.332 1.6123V7.34717H249.642V34H242.831V7.34717H233.097V1.6123H259.332ZM287.259 7.34717H270.121V14.2246H285.853V19.8496H270.121V28.1772H288.05V34H263.507V1.6123H287.259V7.34717Z" fill="black"/>
<path d="M23.7852 59.3472H6.64648V66.2246H22.3789V71.8496H6.64648V80.1772H24.5762V86H0.0327148V53.6123H23.7852V59.3472ZM35.0132 86H27.147L37.562 69.4985L27.6523 53.6123H35.7383L41.5171 64.1372L47.4497 53.6123H55.272L45.3623 69.2349L55.8872 86H47.6694L41.5171 74.9697L35.0132 86ZM78.1016 63.9175C78.1016 62.2329 77.6548 61.0317 76.7612 60.314C75.8823 59.5962 74.6445 59.2373 73.0479 59.2373H66.7417V68.7734H73.0479C74.6445 68.7734 75.8823 68.3853 76.7612 67.6089C77.6548 66.8325 78.1016 65.6021 78.1016 63.9175ZM84.8032 63.8735C84.8032 67.6968 83.8364 70.3994 81.9028 71.9814C79.9692 73.5635 77.208 74.3545 73.6191 74.3545H66.7417V86H60.0181V53.6123H74.1245C77.3765 53.6123 79.9692 54.4473 81.9028 56.1172C83.8364 57.7871 84.8032 60.3726 84.8032 63.8735ZM113.829 59.3472H96.6904V66.2246H112.423V71.8496H96.6904V80.1772H114.62V86H90.0767V53.6123H113.829V59.3472ZM126.661 59.2373V67.9385H134.33C135.853 67.9385 136.996 67.7627 137.757 67.4111C139.105 66.7959 139.779 65.5801 139.779 63.7637C139.779 61.8008 139.127 60.4824 137.823 59.8086C137.091 59.4277 135.992 59.2373 134.527 59.2373H126.661ZM135.934 53.6123C138.204 53.6562 139.947 53.9346 141.163 54.4473C142.394 54.96 143.434 55.7144 144.283 56.7104C144.986 57.5308 145.543 58.439 145.953 59.4351C146.363 60.4312 146.568 61.5664 146.568 62.8408C146.568 64.3789 146.18 65.895 145.404 67.3892C144.627 68.8687 143.346 69.916 141.559 70.5312C143.053 71.1318 144.107 71.9888 144.723 73.1021C145.353 74.2007 145.667 75.8853 145.667 78.1558V80.3311C145.667 81.8105 145.726 82.814 145.843 83.3413C146.019 84.1763 146.429 84.7915 147.074 85.187V86H139.625C139.42 85.2822 139.273 84.7036 139.186 84.2642C139.01 83.356 138.915 82.4258 138.9 81.4736L138.856 78.4634C138.827 76.3979 138.446 75.021 137.713 74.3325C136.996 73.644 135.641 73.2998 133.648 73.2998H126.661V86H120.047V53.6123H135.934ZM158.609 86H151.886V53.6123H158.609V86ZM188.888 59.3472H171.749V66.2246H187.481V71.8496H171.749V80.1772H189.679V86H165.135V53.6123H188.888V59.3472ZM194.842 53.6123H201.939L214.837 76.2222V53.6123H221.144V86H214.376L201.148 62.9946V86H194.842V53.6123ZM226.065 70.0698C226.065 64.4155 227.582 60.0576 230.614 56.9961C233.25 54.3301 236.605 52.9971 240.677 52.9971C246.126 52.9971 250.111 54.7842 252.63 58.3584C254.022 60.3652 254.769 62.3794 254.872 64.4009H248.104C247.665 62.8481 247.101 61.6763 246.412 60.8853C245.182 59.479 243.358 58.7759 240.941 58.7759C238.48 58.7759 236.539 59.772 235.118 61.7642C233.697 63.7417 232.987 66.5469 232.987 70.1797C232.987 73.8125 233.734 76.5371 235.228 78.3535C236.737 80.1553 238.648 81.0562 240.963 81.0562C243.336 81.0562 245.145 80.2798 246.39 78.7271C247.079 77.8921 247.65 76.6396 248.104 74.9697H254.806C254.22 78.5 252.718 81.3711 250.301 83.583C247.899 85.7949 244.815 86.9009 241.051 86.9009C236.393 86.9009 232.73 85.4067 230.064 82.4185C227.398 79.4155 226.065 75.2993 226.065 70.0698ZM283.941 59.3472H266.803V66.2246H282.535V71.8496H266.803V80.1772H284.732V86H260.189V53.6123H283.941V59.3472ZM294.906 76.0024C295.111 77.4819 295.514 78.5879 296.114 79.3203C297.213 80.6533 299.095 81.3198 301.761 81.3198C303.358 81.3198 304.654 81.144 305.65 80.7925C307.54 80.1187 308.485 78.8662 308.485 77.0352C308.485 75.9658 308.016 75.1382 307.079 74.5522C306.141 73.981 304.669 73.4756 302.662 73.0361L299.234 72.2671C295.865 71.5054 293.536 70.6777 292.247 69.7842C290.064 68.29 288.973 65.9536 288.973 62.7749C288.973 59.8745 290.028 57.4648 292.137 55.5459C294.247 53.627 297.345 52.6675 301.432 52.6675C304.845 52.6675 307.752 53.5757 310.155 55.3921C312.572 57.1938 313.839 59.8159 313.956 63.2583H307.452C307.335 61.3101 306.485 59.9258 304.903 59.1055C303.849 58.5635 302.538 58.2925 300.97 58.2925C299.227 58.2925 297.835 58.644 296.795 59.3472C295.755 60.0503 295.235 61.0317 295.235 62.2915C295.235 63.4487 295.748 64.313 296.773 64.8843C297.433 65.2651 298.839 65.7119 300.992 66.2246L306.573 67.5649C309.02 68.1509 310.865 68.9346 312.11 69.916C314.044 71.4395 315.011 73.644 315.011 76.5298C315.011 79.4888 313.875 81.9497 311.605 83.9126C309.349 85.8608 306.156 86.835 302.025 86.835C297.806 86.835 294.488 85.8755 292.071 83.9565C289.654 82.0229 288.446 79.3716 288.446 76.0024H294.906Z" fill="url(#paint0_linear_395_47353)"/>
<defs>
<linearGradient id="paint0_linear_395_47353" x1="-191.894" y1="34.9993" x2="222.109" y2="114.809" gradientUnits="userSpaceOnUse">
<stop stop-color="#3069FE"/>
<stop offset="1" stop-color="#1BF1D8"/>
</linearGradient>
</defs>
</svg>
