<svg width="64" height="46" viewBox="0 0 64 46" fill="none" xmlns="http://www.w3.org/2000/svg">
<g opacity="0.4">
<path d="M22.1306 45.2539L24.0244 45.2539L24.0244 35.5673L22.1306 35.5673L22.1306 45.2539Z" fill="#070720"/>
<path d="M18.2314 39.4672L18.2314 41.3633L27.918 41.3633L27.918 39.4672L18.2314 39.4672Z" fill="#070720"/>
<path d="M3.8959 45.2539L5.79199 45.2539L5.79199 35.5673L3.8959 35.5673L3.8959 45.2539Z" fill="#070720"/>
<path d="M-8.28808e-08 39.4672L0 41.3633L9.68657 41.3633L9.68657 39.4672L-8.28808e-08 39.4672Z" fill="#070720"/>
<path d="M22.1306 27.9023L24.0244 27.9023L24.0244 18.2181L22.1306 18.2181L22.1306 27.9023Z" fill="#070720"/>
<path d="M18.2324 22.1179L18.2324 24.0117L27.919 24.0117L27.919 22.1179L18.2324 22.1179Z" fill="#070720"/>
<path d="M3.89589 27.9023L5.79199 27.9023L5.79199 18.2181L3.89589 18.2181L3.89589 27.9023Z" fill="#070720"/>
<path d="M-8.27809e-08 22.1179L0 24.0117L9.68657 24.0117L9.68657 22.1179L-8.27809e-08 22.1179Z" fill="#070720"/>
<path d="M22.1306 10.5391L24.0244 10.5391L24.0244 0.852496L22.1306 0.852496L22.1306 10.5391Z" fill="#070720"/>
<path d="M18.2314 4.75234L18.2314 6.64844L27.918 6.64844L27.918 4.75234L18.2314 4.75234Z" fill="#070720"/>
<path d="M3.89589 10.5391L5.79199 10.5391L5.79199 0.852496L3.89589 0.852496L3.89589 10.5391Z" fill="#070720"/>
<path d="M-8.28811e-08 4.75234L0 6.64844L9.68657 6.64844L9.68657 4.75234L-8.28811e-08 4.75234Z" fill="#070720"/>
<path d="M57.6355 45.2539L59.5293 45.2539L59.5293 35.5674L57.6355 35.5674L57.6355 45.2539Z" fill="#070720"/>
<path d="M53.7402 39.4672L53.7402 41.3633L63.4268 41.3633L63.4268 39.4672L53.7402 39.4672Z" fill="#070720"/>
<path d="M39.4021 45.2539L41.2959 45.2539L41.2959 35.5674L39.4021 35.5674L39.4021 45.2539Z" fill="#070720"/>
<path d="M35.5029 39.4711L35.5029 41.3672L45.1895 41.3672L45.1895 39.4711L35.5029 39.4711Z" fill="#070720"/>
<path d="M57.6355 27.9023L59.5293 27.9023L59.5293 18.2181L57.6355 18.2181L57.6355 27.9023Z" fill="#070720"/>
<path d="M53.7402 22.1179L53.7402 24.0117L63.4268 24.0117L63.4268 22.1179L53.7402 22.1179Z" fill="#070720"/>
<path d="M39.4011 27.9023L41.2949 27.9023L41.2949 18.2181L39.4011 18.2181L39.4011 27.9023Z" fill="#070720"/>
<path d="M35.5029 22.1179L35.5029 24.0117L45.1895 24.0117L45.1895 22.1179L35.5029 22.1179Z" fill="#070720"/>
<path d="M57.6355 10.5391L59.5293 10.5391L59.5293 0.852524L57.6355 0.852524L57.6355 10.5391Z" fill="#070720"/>
<path d="M53.7402 4.75234L53.7402 6.64844L63.4268 6.64844L63.4268 4.75234L53.7402 4.75234Z" fill="#070720"/>
<path d="M39.4021 10.5391L41.2959 10.5391L41.2959 0.852524L39.4021 0.852524L39.4021 10.5391Z" fill="#070720"/>
<path d="M35.5029 4.75234L35.5029 6.64844L45.1895 6.64844L45.1895 4.75234L35.5029 4.75234Z" fill="#070720"/>
</g>
</svg>
