<svg width="333" height="88" viewBox="0 0 333 88" fill="none" xmlns="http://www.w3.org/2000/svg">
<path d="M38.7949 1.8623H48.5288V34.25H42.2227V12.3433C42.2227 11.7134 42.23 10.8345 42.2446 9.70654C42.2593 8.56396 42.2666 7.68506 42.2666 7.06982L36.1362 34.25H29.5664L23.48 7.06982C23.48 7.68506 23.4873 8.56396 23.502 9.70654C23.5166 10.8345 23.5239 11.7134 23.5239 12.3433V34.25H17.2178V1.8623H27.0615L32.9502 27.3286L38.7949 1.8623ZM54.813 1.8623H61.6904V21.7695C61.6904 23.9961 61.9541 25.6221 62.4814 26.6475C63.3018 28.4639 65.0889 29.3721 67.8428 29.3721C70.582 29.3721 72.3618 28.4639 73.1821 26.6475C73.7095 25.6221 73.9731 23.9961 73.9731 21.7695V1.8623H80.8506V21.7695C80.8506 25.2119 80.3159 27.8926 79.2466 29.8115C77.2544 33.3271 73.4531 35.085 67.8428 35.085C62.2324 35.085 58.4238 33.3271 56.417 29.8115C55.3477 27.8926 54.813 25.2119 54.813 21.7695V1.8623ZM92.2324 24.2524C92.4375 25.7319 92.8403 26.8379 93.4409 27.5703C94.5396 28.9033 96.4219 29.5698 99.0879 29.5698C100.685 29.5698 101.981 29.394 102.977 29.0425C104.867 28.3687 105.812 27.1162 105.812 25.2852C105.812 24.2158 105.343 23.3882 104.405 22.8022C103.468 22.231 101.996 21.7256 99.9888 21.2861L96.561 20.5171C93.1919 19.7554 90.8628 18.9277 89.5737 18.0342C87.3911 16.54 86.2998 14.2036 86.2998 11.0249C86.2998 8.12451 87.3545 5.71484 89.4639 3.7959C91.5732 1.87695 94.6714 0.91748 98.7583 0.91748C102.171 0.91748 105.079 1.82568 107.481 3.64209C109.898 5.44385 111.166 8.06592 111.283 11.5083H104.779C104.662 9.56006 103.812 8.17578 102.23 7.35547C101.175 6.81348 99.8643 6.54248 98.2969 6.54248C96.5537 6.54248 95.1621 6.89404 94.1221 7.59717C93.082 8.30029 92.562 9.28174 92.562 10.5415C92.562 11.6987 93.0747 12.563 94.1001 13.1343C94.7593 13.5151 96.1655 13.9619 98.3188 14.4746L103.9 15.8149C106.346 16.4009 108.192 17.1846 109.437 18.166C111.371 19.6895 112.337 21.894 112.337 24.7798C112.337 27.7388 111.202 30.1997 108.932 32.1626C106.676 34.1108 103.482 35.085 99.3516 35.085C95.1328 35.085 91.8149 34.1255 89.3979 32.2065C86.981 30.2729 85.7725 27.6216 85.7725 24.2524H92.2324ZM123.543 34.25H116.82V1.8623H123.543V34.25ZM128.465 18.3198C128.465 12.6655 129.981 8.30762 133.014 5.24609C135.65 2.58008 139.005 1.24707 143.077 1.24707C148.526 1.24707 152.511 3.03418 155.03 6.6084C156.422 8.61523 157.169 10.6294 157.271 12.6509H150.504C150.064 11.0981 149.5 9.92627 148.812 9.13525C147.582 7.729 145.758 7.02588 143.341 7.02588C140.88 7.02588 138.939 8.02197 137.518 10.0142C136.097 11.9917 135.387 14.7969 135.387 18.4297C135.387 22.0625 136.134 24.7871 137.628 26.6035C139.137 28.4053 141.048 29.3062 143.363 29.3062C145.736 29.3062 147.545 28.5298 148.79 26.9771C149.479 26.1421 150.05 24.8896 150.504 23.2197H157.206C156.62 26.75 155.118 29.6211 152.701 31.833C150.299 34.0449 147.215 35.1509 143.451 35.1509C138.792 35.1509 135.13 33.6567 132.464 30.6685C129.798 27.6655 128.465 23.5493 128.465 18.3198ZM181.112 34.25H174.388V1.8623H181.112V34.25ZM192.34 24.2524C192.545 25.7319 192.948 26.8379 193.548 27.5703C194.647 28.9033 196.529 29.5698 199.195 29.5698C200.792 29.5698 202.088 29.394 203.084 29.0425C204.974 28.3687 205.919 27.1162 205.919 25.2852C205.919 24.2158 205.45 23.3882 204.513 22.8022C203.575 22.231 202.103 21.7256 200.096 21.2861L196.668 20.5171C193.299 19.7554 190.97 18.9277 189.681 18.0342C187.499 16.54 186.407 14.2036 186.407 11.0249C186.407 8.12451 187.462 5.71484 189.571 3.7959C191.681 1.87695 194.779 0.91748 198.866 0.91748C202.279 0.91748 205.187 1.82568 207.589 3.64209C210.006 5.44385 211.273 8.06592 211.39 11.5083H204.886C204.769 9.56006 203.919 8.17578 202.337 7.35547C201.283 6.81348 199.972 6.54248 198.404 6.54248C196.661 6.54248 195.27 6.89404 194.229 7.59717C193.189 8.30029 192.669 9.28174 192.669 10.5415C192.669 11.6987 193.182 12.563 194.208 13.1343C194.867 13.5151 196.273 13.9619 198.426 14.4746L204.007 15.8149C206.454 16.4009 208.299 17.1846 209.544 18.166C211.478 19.6895 212.445 21.894 212.445 24.7798C212.445 27.7388 211.31 30.1997 209.039 32.1626C206.783 34.1108 203.59 35.085 199.459 35.085C195.24 35.085 191.922 34.1255 189.505 32.2065C187.088 30.2729 185.88 27.6216 185.88 24.2524H192.34ZM230.089 1.8623H236.747V15.1997L249.249 1.8623H257.994L244.723 15.1997L258.675 34.25H249.974L239.977 20.0996L236.747 23.4175V34.25H230.089V1.8623ZM286.449 7.59717H269.31V14.4746H285.042V20.0996H269.31V28.4272H287.24V34.25H262.696V1.8623H286.449V7.59717ZM310.992 1.8623H318.661L307.828 22.0771V34.25H301.061V22.0771L289.854 1.8623H297.831L304.554 15.9688L310.992 1.8623ZM26.2485 53.8623V59.5972H16.5586V86.25H9.74707V59.5972H0.0131836V53.8623H26.2485ZM43.7607 81.416C46.4414 81.416 48.5654 80.4272 50.1328 78.4497C51.7148 76.4722 52.5059 73.6597 52.5059 70.0122C52.5059 66.3794 51.7148 63.5742 50.1328 61.5967C48.5654 59.6045 46.4414 58.6084 43.7607 58.6084C41.0801 58.6084 38.9414 59.5972 37.3447 61.5747C35.748 63.5522 34.9497 66.3647 34.9497 70.0122C34.9497 73.6597 35.748 76.4722 37.3447 78.4497C38.9414 80.4272 41.0801 81.416 43.7607 81.416ZM59.2734 70.0122C59.2734 75.8276 57.6401 80.2808 54.3735 83.3716C51.9272 85.8911 48.3896 87.1509 43.7607 87.1509C39.1318 87.1509 35.5942 85.8911 33.1479 83.3716C29.8667 80.2808 28.2261 75.8276 28.2261 70.0122C28.2261 64.0796 29.8667 59.6265 33.1479 56.6528C35.5942 54.1333 39.1318 52.8735 43.7607 52.8735C48.3896 52.8735 51.9272 54.1333 54.3735 56.6528C57.6401 59.6265 59.2734 64.0796 59.2734 70.0122ZM76.9395 86.25V53.8623H83.6411V66.2109H96.2974V53.8623H103.021V86.25H96.2974V71.792H83.6411V86.25H76.9395ZM118.358 74.0112H126.576L122.533 61.2671L118.358 74.0112ZM118.775 53.8623H126.422L137.892 86.25H130.553L128.465 79.5923H116.534L114.293 86.25H107.218L118.775 53.8623ZM160.26 64.1675C160.26 62.4829 159.813 61.2817 158.919 60.564C158.041 59.8462 156.803 59.4873 155.206 59.4873H148.9V69.0234H155.206C156.803 69.0234 158.041 68.6353 158.919 67.8589C159.813 67.0825 160.26 65.8521 160.26 64.1675ZM166.961 64.1235C166.961 67.9468 165.995 70.6494 164.061 72.2314C162.127 73.8135 159.366 74.6045 155.777 74.6045H148.9V86.25H142.176V53.8623H156.283C159.535 53.8623 162.127 54.6973 164.061 56.3672C165.995 58.0371 166.961 60.6226 166.961 64.1235ZM190.274 64.1675C190.274 62.4829 189.828 61.2817 188.934 60.564C188.055 59.8462 186.817 59.4873 185.221 59.4873H178.915V69.0234H185.221C186.817 69.0234 188.055 68.6353 188.934 67.8589C189.828 67.0825 190.274 65.8521 190.274 64.1675ZM196.976 64.1235C196.976 67.9468 196.009 70.6494 194.076 72.2314C192.142 73.8135 189.381 74.6045 185.792 74.6045H178.915V86.25H172.191V53.8623H186.297C189.549 53.8623 192.142 54.6973 194.076 56.3672C196.009 58.0371 196.976 60.6226 196.976 64.1235ZM208.248 86.25H201.524V53.8623H208.248V86.25ZM214.466 53.8623H221.563L234.461 76.4722V53.8623H240.768V86.25H234L220.772 63.2446V86.25H214.466V53.8623ZM271.046 59.5972H253.907V66.4746H269.64V72.0996H253.907V80.4272H271.837V86.25H247.293V53.8623H271.046V59.5972ZM282.01 76.2524C282.215 77.7319 282.618 78.8379 283.219 79.5703C284.317 80.9033 286.2 81.5698 288.866 81.5698C290.462 81.5698 291.759 81.394 292.755 81.0425C294.645 80.3687 295.589 79.1162 295.589 77.2852C295.589 76.2158 295.121 75.3882 294.183 74.8022C293.246 74.231 291.773 73.7256 289.767 73.2861L286.339 72.5171C282.97 71.7554 280.641 70.9277 279.352 70.0342C277.169 68.54 276.078 66.2036 276.078 63.0249C276.078 60.1245 277.132 57.7148 279.242 55.7959C281.351 53.877 284.449 52.9175 288.536 52.9175C291.949 52.9175 294.857 53.8257 297.259 55.6421C299.676 57.4438 300.943 60.0659 301.061 63.5083H294.557C294.439 61.5601 293.59 60.1758 292.008 59.3555C290.953 58.8135 289.642 58.5425 288.075 58.5425C286.332 58.5425 284.94 58.894 283.9 59.5972C282.86 60.3003 282.34 61.2817 282.34 62.5415C282.34 63.6987 282.853 64.563 283.878 65.1343C284.537 65.5151 285.943 65.9619 288.097 66.4746L293.678 67.8149C296.124 68.4009 297.97 69.1846 299.215 70.166C301.148 71.6895 302.115 73.894 302.115 76.7798C302.115 79.7388 300.98 82.1997 298.709 84.1626C296.454 86.1108 293.26 87.085 289.129 87.085C284.911 87.085 281.593 86.1255 279.176 84.2065C276.759 82.2729 275.55 79.6216 275.55 76.2524H282.01ZM312.025 76.2524C312.23 77.7319 312.633 78.8379 313.233 79.5703C314.332 80.9033 316.214 81.5698 318.88 81.5698C320.477 81.5698 321.773 81.394 322.77 81.0425C324.659 80.3687 325.604 79.1162 325.604 77.2852C325.604 76.2158 325.135 75.3882 324.198 74.8022C323.26 74.231 321.788 73.7256 319.781 73.2861L316.354 72.5171C312.984 71.7554 310.655 70.9277 309.366 70.0342C307.184 68.54 306.092 66.2036 306.092 63.0249C306.092 60.1245 307.147 57.7148 309.256 55.7959C311.366 53.877 314.464 52.9175 318.551 52.9175C321.964 52.9175 324.872 53.8257 327.274 55.6421C329.691 57.4438 330.958 60.0659 331.075 63.5083H324.571C324.454 61.5601 323.604 60.1758 322.022 59.3555C320.968 58.8135 319.657 58.5425 318.089 58.5425C316.346 58.5425 314.955 58.894 313.915 59.5972C312.875 60.3003 312.354 61.2817 312.354 62.5415C312.354 63.6987 312.867 64.563 313.893 65.1343C314.552 65.5151 315.958 65.9619 318.111 66.4746L323.692 67.8149C326.139 68.4009 327.984 69.1846 329.229 70.166C331.163 71.6895 332.13 73.894 332.13 76.7798C332.13 79.7388 330.995 82.1997 328.724 84.1626C326.468 86.1108 323.275 87.085 319.144 87.085C314.925 87.085 311.607 86.1255 309.19 84.2065C306.773 82.2729 305.565 79.6216 305.565 76.2524H312.025Z" fill="black"/>
</svg>
