<svg width="261" height="104" viewBox="0 0 261 104" fill="none" xmlns="http://www.w3.org/2000/svg">
<path d="M7.84424 9.6123L12.1289 28.1572L13.0518 33.3208L13.9966 28.2671L17.644 9.6123H24.7852L28.6304 28.1572L29.6191 33.3208L30.6079 28.355L34.9365 9.6123H41.814L32.6953 42H26.2354L22.3242 23.0596L21.1816 16.7974L20.0391 23.0596L16.1279 42H9.84375L0.65918 9.6123H7.84424ZM69.873 15.3472H52.7344V22.2246H68.4668V27.8496H52.7344V36.1772H70.6641V42H46.1206V9.6123H69.873V15.3472ZM95.0317 15.2373V36.375H101.272C104.465 36.375 106.692 34.8003 107.952 31.6509C108.64 29.9224 108.984 27.8643 108.984 25.4766C108.984 22.1807 108.464 19.6538 107.424 17.896C106.399 16.1235 104.348 15.2373 101.272 15.2373H95.0317ZM102.415 9.6123C104.421 9.6416 106.091 9.87598 107.424 10.3154C109.695 11.0625 111.533 12.4321 112.939 14.4243C114.067 16.0356 114.836 17.7788 115.247 19.6538C115.657 21.5288 115.862 23.3159 115.862 25.0151C115.862 29.3218 114.998 32.9692 113.269 35.9575C110.925 39.9858 107.307 42 102.415 42H88.4619V9.6123H102.415ZM144.932 15.3472H127.793V22.2246H143.525V27.8496H127.793V36.1772H145.723V42H121.179V9.6123H144.932V15.3472ZM169.958 9.6123H176.99L165.938 42H159.543L148.601 9.6123H155.83L162.861 34.1997L169.958 9.6123ZM187.207 42H180.483V9.6123H187.207V42ZM198.435 32.0024C198.64 33.4819 199.043 34.5879 199.644 35.3203C200.742 36.6533 202.625 37.3198 205.291 37.3198C206.887 37.3198 208.184 37.144 209.18 36.7925C211.069 36.1187 212.014 34.8662 212.014 33.0352C212.014 31.9658 211.545 31.1382 210.608 30.5522C209.67 29.981 208.198 29.4756 206.191 29.0361L202.764 28.2671C199.395 27.5054 197.065 26.6777 195.776 25.7842C193.594 24.29 192.502 21.9536 192.502 18.7749C192.502 15.8745 193.557 13.4648 195.667 11.5459C197.776 9.62695 200.874 8.66748 204.961 8.66748C208.374 8.66748 211.282 9.57568 213.684 11.3921C216.101 13.1938 217.368 15.8159 217.485 19.2583H210.981C210.864 17.3101 210.015 15.9258 208.433 15.1055C207.378 14.5635 206.067 14.2925 204.5 14.2925C202.756 14.2925 201.365 14.644 200.325 15.3472C199.285 16.0503 198.765 17.0317 198.765 18.2915C198.765 19.4487 199.277 20.313 200.303 20.8843C200.962 21.2651 202.368 21.7119 204.521 22.2246L210.103 23.5649C212.549 24.1509 214.395 24.9346 215.64 25.916C217.573 27.4395 218.54 29.644 218.54 32.5298C218.54 35.4888 217.405 37.9497 215.134 39.9126C212.878 41.8608 209.685 42.835 205.554 42.835C201.335 42.835 198.018 41.8755 195.601 39.9565C193.184 38.0229 191.975 35.3716 191.975 32.0024H198.435ZM247.5 15.3472H230.361V22.2246H246.094V27.8496H230.361V36.1772H248.291V42H223.748V9.6123H247.5V15.3472Z" fill="black"/>
<path d="M3.38379 94V61.6123H10.0854V73.9609H22.7417V61.6123H29.4653V94H22.7417V79.542H10.0854V94H3.38379ZM44.8022 81.7612H53.02L48.9771 69.0171L44.8022 81.7612ZM45.2197 61.6123H52.8662L64.3359 94H56.9971L54.9097 87.3423H42.9785L40.7373 94H33.6621L45.2197 61.6123ZM86.7041 71.9175C86.7041 70.2329 86.2573 69.0317 85.3638 68.314C84.4849 67.5962 83.2471 67.2373 81.6504 67.2373H75.3442V76.7734H81.6504C83.2471 76.7734 84.4849 76.3853 85.3638 75.6089C86.2573 74.8325 86.7041 73.6021 86.7041 71.9175ZM93.4058 71.8735C93.4058 75.6968 92.439 78.3994 90.5054 79.9814C88.5718 81.5635 85.8105 82.3545 82.2217 82.3545H75.3442V94H68.6206V61.6123H82.7271C85.979 61.6123 88.5718 62.4473 90.5054 64.1172C92.439 65.7871 93.4058 68.3726 93.4058 71.8735ZM116.719 71.9175C116.719 70.2329 116.272 69.0317 115.378 68.314C114.5 67.5962 113.262 67.2373 111.665 67.2373H105.359V76.7734H111.665C113.262 76.7734 114.5 76.3853 115.378 75.6089C116.272 74.8325 116.719 73.6021 116.719 71.9175ZM123.42 71.8735C123.42 75.6968 122.454 78.3994 120.52 79.9814C118.586 81.5635 115.825 82.3545 112.236 82.3545H105.359V94H98.6353V61.6123H112.742C115.994 61.6123 118.586 62.4473 120.52 64.1172C122.454 65.7871 123.42 68.3726 123.42 71.8735ZM134.692 94H127.969V61.6123H134.692V94ZM140.911 61.6123H148.008L160.906 84.2222V61.6123H167.212V94H160.444L147.217 70.9946V94H140.911V61.6123ZM197.49 67.3472H180.352V74.2246H196.084V79.8496H180.352V88.1772H198.281V94H173.738V61.6123H197.49V67.3472ZM208.455 84.0024C208.66 85.4819 209.062 86.5879 209.663 87.3203C210.762 88.6533 212.644 89.3198 215.31 89.3198C216.907 89.3198 218.203 89.144 219.199 88.7925C221.089 88.1187 222.034 86.8662 222.034 85.0352C222.034 83.9658 221.565 83.1382 220.627 82.5522C219.69 81.981 218.218 81.4756 216.211 81.0361L212.783 80.2671C209.414 79.5054 207.085 78.6777 205.796 77.7842C203.613 76.29 202.522 73.9536 202.522 70.7749C202.522 67.8745 203.577 65.4648 205.686 63.5459C207.795 61.627 210.894 60.6675 214.98 60.6675C218.394 60.6675 221.301 61.5757 223.704 63.3921C226.121 65.1938 227.388 67.8159 227.505 71.2583H221.001C220.884 69.3101 220.034 67.9258 218.452 67.1055C217.397 66.5635 216.086 66.2925 214.519 66.2925C212.776 66.2925 211.384 66.644 210.344 67.3472C209.304 68.0503 208.784 69.0317 208.784 70.2915C208.784 71.4487 209.297 72.313 210.322 72.8843C210.981 73.2651 212.388 73.7119 214.541 74.2246L220.122 75.5649C222.568 76.1509 224.414 76.9346 225.659 77.916C227.593 79.4395 228.56 81.644 228.56 84.5298C228.56 87.4888 227.424 89.9497 225.154 91.9126C222.898 93.8608 219.705 94.835 215.574 94.835C211.355 94.835 208.037 93.8755 205.62 91.9565C203.203 90.0229 201.995 87.3716 201.995 84.0024H208.455ZM238.469 84.0024C238.674 85.4819 239.077 86.5879 239.678 87.3203C240.776 88.6533 242.659 89.3198 245.325 89.3198C246.921 89.3198 248.218 89.144 249.214 88.7925C251.104 88.1187 252.048 86.8662 252.048 85.0352C252.048 83.9658 251.58 83.1382 250.642 82.5522C249.705 81.981 248.232 81.4756 246.226 81.0361L242.798 80.2671C239.429 79.5054 237.1 78.6777 235.811 77.7842C233.628 76.29 232.537 73.9536 232.537 70.7749C232.537 67.8745 233.591 65.4648 235.701 63.5459C237.81 61.627 240.908 60.6675 244.995 60.6675C248.408 60.6675 251.316 61.5757 253.718 63.3921C256.135 65.1938 257.402 67.8159 257.52 71.2583H251.016C250.898 69.3101 250.049 67.9258 248.467 67.1055C247.412 66.5635 246.101 66.2925 244.534 66.2925C242.791 66.2925 241.399 66.644 240.359 67.3472C239.319 68.0503 238.799 69.0317 238.799 70.2915C238.799 71.4487 239.312 72.313 240.337 72.8843C240.996 73.2651 242.402 73.7119 244.556 74.2246L250.137 75.5649C252.583 76.1509 254.429 76.9346 255.674 77.916C257.607 79.4395 258.574 81.644 258.574 84.5298C258.574 87.4888 257.439 89.9497 255.168 91.9126C252.913 93.8608 249.719 94.835 245.588 94.835C241.37 94.835 238.052 93.8755 235.635 91.9565C233.218 90.0229 232.009 87.3716 232.009 84.0024H238.469Z" fill="url(#paint0_linear_385_51996)"/>
<defs>
<linearGradient id="paint0_linear_385_51996" x1="-152.774" y1="42.9993" x2="187.983" y2="96.4107" gradientUnits="userSpaceOnUse">
<stop stop-color="#3069FE"/>
<stop offset="1" stop-color="#1BF1D8"/>
</linearGradient>
</defs>
</svg>
