<svg width="486" height="486" viewBox="0 0 486 486" fill="none" xmlns="http://www.w3.org/2000/svg">
<path d="M155.945 176.74C156.463 177.134 156.557 177.871 156.163 178.383C155.77 178.902 155.027 179.002 154.521 178.602C153.977 178.233 151.553 177.421 150.96 177.602C150.473 178.221 150.679 180.02 153.24 182.85C153.671 183.331 153.652 184.093 153.152 184.505C152.434 185.105 151.728 184.68 151.497 184.418C147.087 179.545 148.549 176.847 149.379 175.916C150.985 174.11 155.651 176.509 155.945 176.74ZM125.56 239.246C126.198 230 127.285 224.047 128.784 221.555C129.708 220.056 131.551 219.487 133.169 220.193C133.613 220.399 134.143 220.637 134.731 220.886V207.25C134.699 207.156 130.027 178.664 130.027 156.032C130.027 152.515 131.489 149.973 134.631 148.043C138.629 145.563 144.963 144.301 153.452 144.301C166.858 144.301 181.475 147.487 186.061 149.773C187.185 150.46 189.234 152.572 191.726 159.58H218.238C220.18 159.58 221.761 161.161 221.761 163.097V186.548C221.761 188.491 220.18 190.065 218.238 190.065H202.221L198.367 193.907L202.346 209.867C202.877 211.866 202.321 213.934 200.859 215.389C198.273 218.007 192.47 221.855 182.531 218.094C181.082 217.551 179.939 217.557 179.045 218.113C176.703 219.568 176.022 224.659 175.591 228.77H176.784C178.127 228.77 179.308 229.476 179.939 230.656L182.562 238.971C182.762 239.589 182.394 240.258 181.794 240.439C181.094 240.657 180.513 240.233 180.326 239.67L177.784 231.556C177.652 231.35 177.253 231.112 176.784 231.112H168.838C154.689 231.112 140.778 225.934 135.455 223.704C134.131 223.185 133.032 222.704 132.213 222.323C131.695 222.092 131.095 222.273 130.795 222.767C129.533 224.866 128.509 230.775 127.909 239.396C127.865 240.039 127.285 240.52 126.66 240.489C126.01 240.451 125.517 239.889 125.56 239.246ZM198.891 190.065H187.653C187.547 190.065 177.071 189.89 177.071 174.823C177.071 174.029 177.109 173.28 177.159 172.567C174.335 171.612 170.693 170.462 166.814 169.419C167.308 172.536 168.538 177.271 169.407 180.595L169.969 182.762C170.162 183.506 169.6 184.236 168.832 184.236H161.336C161.648 185.411 162.073 186.379 162.448 187.204C163.216 188.909 164.091 190.839 161.867 192.482C160.817 193.257 159.574 193.625 158.225 193.625C154.795 193.625 150.71 191.245 147.643 187.122C146.687 185.842 145.919 184.486 145.344 183.131C145.232 186.985 145.719 190.989 146.094 194.056C146.312 195.862 146.487 197.292 146.487 198.261C146.487 200.909 143.308 202.583 136.511 203.495C136.836 205.7 137.055 207 137.061 207.056L137.073 221.842C142.739 224.153 155.701 228.77 168.832 228.77H173.23C173.729 223.929 174.46 218.2 177.802 216.12C179.314 215.171 181.188 215.089 183.349 215.895C191.608 219.025 196.518 216.439 199.185 213.734C200.066 212.853 200.378 211.66 200.066 210.448L197.448 199.966C195.818 199.622 194.106 199.441 192.351 199.441C191.708 199.441 191.177 198.916 191.177 198.267C191.177 197.617 191.701 197.092 192.351 197.092C193.882 197.092 195.374 197.224 196.824 197.467L195.912 193.825C195.812 193.426 195.93 192.994 196.224 192.707L198.891 190.065ZM158.768 177.871C158.968 176.54 158.312 175.41 156.826 174.516C155.239 173.561 153.134 173.117 151.328 173.117C149.929 173.117 148.711 173.386 148.043 173.873C147.056 174.604 146.693 175.772 146.568 176.622C146.175 179.245 147.312 182.731 149.536 185.723C152.909 190.258 157.925 192.501 160.48 190.596C161.086 190.146 161.18 190.077 160.318 188.172C159.387 186.117 157.987 183.018 158.768 177.871ZM184.824 186.96C183.412 184.53 181.775 180.495 181.775 174.823C181.775 169.182 183.387 165.165 184.792 162.729C182.412 163.953 179.42 167.033 179.42 174.823C179.42 182.7 182.437 185.767 184.824 186.96ZM214.708 166.614H194.712C194.063 166.614 193.532 167.139 193.532 167.782V172.474C193.532 173.117 194.056 173.648 194.712 173.648H214.708V166.614ZM217.057 187.722H218.238C218.887 187.722 219.418 187.197 219.418 186.548V163.097C219.418 162.454 218.894 161.929 218.238 161.929H217.057V187.722ZM188.184 161.923C187.21 163.11 184.118 167.433 184.118 174.823C184.118 182.206 187.204 186.535 188.184 187.722H214.708V180.688H201.771C201.128 180.688 200.597 180.164 200.597 179.514C200.597 178.864 201.122 178.34 201.771 178.34H214.708V175.997H194.712C192.77 175.997 191.189 174.417 191.189 172.48V167.789C191.189 165.852 192.77 164.272 194.712 164.272H214.708V161.929H188.184V161.923ZM169.669 152.184C168.545 153.309 167.714 155.07 167.189 157.432C171.793 158.562 176.759 160.03 181.994 161.811C184.73 159.637 187.604 159.58 187.653 159.58H189.228C187.866 155.895 186.716 153.933 185.954 152.903C177.696 150.573 172.455 149.398 169.669 152.184ZM132.451 161.186C138.579 157 144.482 154.87 150.017 154.87C154.108 154.87 159.118 155.551 164.909 156.882C165.527 154.096 166.571 151.959 168.014 150.523C169.175 149.367 170.544 148.699 172.149 148.405C166.471 147.399 159.78 146.65 153.452 146.65C145.406 146.65 139.484 147.793 135.861 150.035C133.413 151.541 132.369 153.327 132.369 156.026C132.376 157.719 132.407 159.443 132.451 161.186ZM133.05 172.667C137.735 168.507 143.995 164.253 150.023 164.253C158.287 164.253 170.262 167.782 177.465 170.194C177.99 167.301 178.989 165.196 180.17 163.666C175.035 161.954 170.013 160.492 165.559 159.437C159.518 157.981 154.146 157.219 150.023 157.219C144.607 157.219 138.735 159.499 132.551 163.984C132.669 166.87 132.838 169.781 133.05 172.667ZM136.18 201.165C142.433 200.328 144.145 198.96 144.145 198.254C144.145 197.43 143.97 195.993 143.764 194.331C143.108 188.972 141.927 175.572 146.643 171.98C149.048 170.15 154.614 170.437 158.031 172.499C160.349 173.892 161.429 175.922 161.086 178.221C160.873 179.62 160.861 180.813 160.942 181.881H167.32L167.139 181.182C166.115 177.246 164.746 171.987 164.359 168.782C159.349 167.545 154.171 166.596 150.017 166.596C143.863 166.596 137.042 172.086 133.269 175.635C134.112 185.854 135.343 195.343 136.18 201.165ZM152.091 404.548C164.547 422.633 164.903 437.106 164.915 437.712C164.921 438.356 164.409 438.893 163.76 438.905C163.753 438.905 163.747 438.905 163.741 438.905C163.104 438.905 162.579 438.393 162.566 437.75C162.56 437.606 162.179 423.332 150.154 405.879L145.144 398.601C144.482 397.658 143.076 397.283 142.033 398.026L139.222 399.963C138.21 400.663 137.954 402.062 138.647 403.074L142.514 408.69C142.883 409.221 142.752 409.964 142.214 410.32C141.59 410.732 140.878 410.445 140.584 410.02L132.85 398.789C132.17 397.87 130.914 397.464 129.74 398.214L126.928 400.15C125.998 400.794 125.61 402.118 126.354 403.261L132.157 411.682C132.519 412.207 132.407 412.944 131.876 413.3C131.164 413.775 130.52 413.412 130.221 413.013L120.55 398.97C119.851 397.97 118.464 397.683 117.44 398.395L114.641 400.319C113.635 401.012 113.367 402.406 114.048 403.424L114.06 403.443L123.73 417.492C124.099 418.022 123.949 418.803 123.43 419.122C122.756 419.54 122.143 419.284 121.8 418.822L100.53 387.925C99.9236 387.026 98.5306 386.582 97.4186 387.351L94.6076 389.287C93.5894 389.987 93.3332 391.38 94.0329 392.398L122.206 433.315C123.012 434.483 122.962 435.963 122.081 437.081C121.2 438.2 119.77 438.599 118.439 438.081L106.826 433.583C105.883 433.302 104.496 433.839 104.134 435.126L103.141 438.387C102.803 439.586 103.459 440.817 104.652 441.167L137.642 454.385C138.241 454.629 138.535 455.31 138.298 455.909C138.116 456.365 137.567 456.834 136.773 456.565L103.89 443.378C102.816 443.066 101.848 442.285 101.26 441.204C100.679 440.13 100.548 438.887 100.892 437.706L101.885 434.445C102.229 433.283 103.01 432.309 104.096 431.722C105.171 431.141 106.414 431.016 107.588 431.353L119.295 435.888C119.826 436.107 120.163 435.738 120.251 435.626C120.344 435.513 120.6 435.107 120.282 434.639L108.682 417.791L97.2312 424.432C96.8689 424.644 96.4129 424.644 96.0568 424.438L69.3081 408.946C68.9458 408.734 68.7209 408.346 68.7209 407.928V377.056C68.7209 376.55 69.0207 376.213 69.3331 376.025L96.0568 360.596C96.4254 360.383 96.8627 360.383 97.2312 360.596L123.986 376.038C124.299 376.225 124.561 376.619 124.561 377.05V399.22C124.855 398.839 125.198 398.495 125.604 398.208L128.415 396.271C129.421 395.572 130.664 395.328 131.845 395.54C133.057 395.765 134.094 396.446 134.787 397.446L136.386 399.769C136.723 399.088 137.229 398.476 137.892 398.014L140.703 396.078C141.708 395.39 142.933 395.134 144.132 395.347C145.344 395.572 146.387 396.252 147.081 397.252L152.091 404.548ZM97.8122 421.383L107.345 415.861L97.8122 402.018V421.383ZM92.1026 393.723C91.5092 392.86 91.2593 391.848 91.328 390.811L71.0634 379.086V407.247L95.4634 421.377V398.607L92.1026 393.723ZM103.047 387.438L121.038 377.056L96.644 362.976L72.2441 377.062L92.1026 388.55C92.415 388.088 92.8085 387.676 93.2833 387.351L96.0943 385.414C97.1001 384.715 98.3369 384.471 99.5238 384.683C100.736 384.908 101.773 385.589 102.466 386.589L103.047 387.438ZM122.212 379.086L104.378 389.381L111.792 400.15C112.13 399.451 112.648 398.851 113.304 398.401L116.115 396.465C118.077 395.122 120.707 395.522 122.212 397.314V379.086ZM242.3 325.195L250.184 314.263C250.634 313.589 250.365 312.902 249.859 312.583L244.837 309.441C244.287 309.097 243.562 309.266 243.219 309.809C242.875 310.359 243.044 311.084 243.587 311.427L247.548 313.907L240.395 323.827C240.014 324.352 240.139 325.077 240.664 325.464C241.182 325.851 241.894 325.726 242.3 325.195ZM274.94 325.195C275.34 325.72 276.058 325.845 276.576 325.464C277.095 325.077 277.22 324.352 276.845 323.827L269.693 313.907L273.653 311.427C274.203 311.084 274.365 310.359 274.022 309.809C273.678 309.26 272.953 309.097 272.404 309.441L267.381 312.583C266.875 312.902 266.6 313.582 267.056 314.263L274.94 325.195ZM210.517 376.132V374.813C210.517 372.284 212.128 370.053 214.521 369.254L238.671 361.202V352.669C238.671 351.794 239.595 351.226 240.376 351.613L241.132 351.994L242.694 345.897L237.934 339.55C235.922 336.87 234.642 333.685 234.18 330.374H228.114C226.171 330.374 224.597 328.8 224.597 326.857V312.777C224.597 310.834 226.171 309.26 228.114 309.26H229.288V300.951C229.288 289.988 238.171 281.105 249.134 281.105H268.1C279.063 281.105 287.946 289.988 287.946 300.951V309.26H289.12C291.063 309.26 292.637 310.834 292.637 312.777V326.857C292.637 328.8 291.063 330.374 289.12 330.374H283.054C282.598 333.685 281.312 336.877 279.3 339.55L274.54 345.897L276.095 351.994L276.864 351.607C277.638 351.219 278.557 351.782 278.557 352.65V361.195L302.707 369.248C305.099 370.047 306.711 372.277 306.711 374.807V376.125C306.711 376.775 306.186 377.3 305.537 377.3C304.887 377.3 304.362 376.775 304.362 376.125V374.807C304.362 373.295 303.4 371.952 301.963 371.478L277.557 363.344L263.958 372.408C263.546 372.69 262.921 372.702 262.477 372.265L259.785 369.572V376.125C259.785 376.775 259.26 377.3 258.611 377.3C257.961 377.3 257.436 376.775 257.436 376.125V369.572L254.744 372.265C254.35 372.658 253.732 372.727 253.263 372.408L239.664 363.344L215.258 371.484C213.821 371.959 212.859 373.302 212.859 374.813V376.132C212.859 376.781 212.335 377.306 211.685 377.306C211.041 377.306 210.517 376.781 210.517 376.132ZM273.953 353.075L272.666 348.052C268.987 351.713 263.952 353.843 258.711 353.843C253.307 353.843 248.247 351.713 244.568 348.052L243.281 353.075L258.617 360.746L273.953 353.075ZM259.791 362.782V366.262L263.458 369.928L276.214 361.427V354.568L259.791 362.782ZM280.905 300.951C280.905 293.893 275.158 288.146 268.1 288.146H249.134C242.069 288.146 236.328 293.893 236.328 300.951V305.761C237.309 305.018 238.521 304.568 239.845 304.568H277.389C278.713 304.568 279.925 305.012 280.905 305.755V300.951ZM283.254 311.608V327.706C283.254 327.819 283.242 327.925 283.242 328.031H285.603V319.817C285.603 319.167 286.128 318.642 286.777 318.642C287.427 318.642 287.952 319.167 287.952 319.817V328.031H289.126C289.77 328.031 290.301 327.507 290.301 326.857V312.777C290.301 312.133 289.776 311.602 289.126 311.602H283.254V311.608ZM233.992 328.031C233.992 327.919 233.98 327.813 233.98 327.706V311.608H228.114C227.471 311.608 226.94 312.133 226.94 312.783V326.863C226.94 327.507 227.464 328.038 228.114 328.038H229.288V319.823C229.288 319.173 229.813 318.649 230.463 318.649C231.112 318.649 231.637 319.173 231.637 319.823V328.038H233.992V328.031ZM249.134 285.797H268.1C276.452 285.797 283.254 292.593 283.254 300.951V309.26H285.603V300.951C285.603 291.3 277.751 283.454 268.106 283.454H249.141C239.489 283.454 231.643 291.306 231.643 300.951V309.26H233.992V300.951C233.98 292.599 240.776 285.797 249.134 285.797ZM236.328 324.514C236.328 326.457 237.909 328.031 239.845 328.031H277.389C279.331 328.031 280.905 326.451 280.905 324.514V310.434C280.905 308.491 279.325 306.917 277.389 306.917H239.845C237.903 306.917 236.328 308.498 236.328 310.434V324.514ZM244.599 344.535C247.866 348.896 253.076 351.5 258.523 351.5C264.158 351.5 269.368 348.896 272.641 344.535L277.426 338.151C279.363 335.565 280.543 332.448 280.837 329.237C279.869 329.949 278.682 330.38 277.389 330.38H239.845C238.559 330.38 237.372 329.955 236.403 329.243C236.691 332.454 237.878 335.565 239.814 338.151L244.599 344.535ZM241.02 361.427L253.776 369.928L257.443 366.262V362.782L241.02 354.568V361.427ZM258.461 341.862C260.903 341.862 263.015 340.55 264.139 339.425C264.595 338.969 264.595 338.232 264.139 337.77C263.683 337.308 262.94 337.308 262.477 337.764C262.078 338.157 258.473 341.493 254.75 337.764C254.294 337.308 253.551 337.308 253.089 337.764C252.633 338.22 252.633 338.963 253.089 339.425C254.894 341.218 256.755 341.862 258.461 341.862ZM277.982 93.5831V94.9637C277.982 95.6446 277.457 96.1943 276.808 96.1943C276.158 96.1943 275.633 95.6446 275.633 94.9637V93.5831C275.633 91.9902 274.671 90.5847 273.234 90.0787L248.828 81.5268L235.229 91.0594C234.885 91.3343 234.211 91.378 233.749 90.9032L231.056 88.0734V94.9637C231.056 95.6446 230.531 96.1943 229.882 96.1943C229.232 96.1943 228.707 95.6446 228.707 94.9637V88.0797L226.015 90.9095C225.621 91.328 225.003 91.3967 224.535 91.0657L210.935 81.5331L186.529 90.0849C185.092 90.5847 184.13 91.9964 184.13 93.5894V94.9699C184.13 95.6508 183.606 96.2005 182.956 96.2005C182.306 96.2005 181.781 95.6508 181.781 94.9699V93.5894C181.781 90.9345 183.393 88.5857 185.786 87.7424L209.936 79.278V70.2951C209.936 69.3831 210.848 68.7896 211.629 69.1957L212.397 69.6017L213.952 63.2175L209.186 56.5397C207.05 53.4662 205.757 49.9868 205.388 46.4136C204.295 46.22 203.289 45.7015 202.452 44.9019C201.19 43.69 200.553 41.9222 200.553 40.1231V26.4489C200.553 24.6935 201.172 22.9569 202.396 21.7576C203.208 20.958 204.189 20.427 205.244 20.2084V15.9293C205.244 7.13383 212.028 0 220.405 0H239.364C247.735 0 254.519 7.13383 254.519 15.9356V20.2146C255.581 20.4332 256.568 20.9642 257.38 21.7701C258.598 22.9694 259.21 24.6998 259.21 26.4551V40.1231C259.21 41.6786 258.748 43.2278 257.774 44.4022C256.862 45.4953 255.668 46.1762 254.369 46.4074C254.001 49.9868 252.714 53.46 250.584 56.5272L245.811 63.2175L247.367 69.6017L248.129 69.2019C248.909 68.7896 249.828 69.3893 249.828 70.3076V79.2842L273.978 87.7486C276.37 88.5794 277.982 90.9282 277.982 93.5831ZM207.837 13.3119C211.41 10.8194 218.744 7.51488 226.015 15.161C233.742 23.288 248.797 16.8351 252.139 15.2609C251.802 8.14581 246.211 2.46748 239.358 2.46748H220.399C214.19 2.46748 209.005 7.14008 207.837 13.3119ZM244.618 20.5894C247.41 20.4582 249.978 20.3083 252.17 20.1646V17.947C250.527 18.6904 247.816 19.7773 244.618 20.5894ZM207.593 20.1646C213.34 20.5394 221.624 20.9642 229.882 20.9642C230.319 20.9642 230.75 20.9642 231.181 20.958C228.689 20.2583 226.34 18.9902 224.353 16.9038C216.77 8.9329 209.28 14.9923 207.587 16.5665V20.1646H207.593ZM206.612 44.0274C212.391 43.6338 221.118 43.1653 229.882 43.1653C238.646 43.1653 247.373 43.6338 253.151 44.0274C254.132 44.0836 255.05 43.7463 255.762 43.0466C256.474 42.347 256.868 41.3912 256.868 40.3605V26.2428C256.868 24.2688 255.325 22.426 253.151 22.5759C247.335 22.9757 238.609 23.4379 229.882 23.4379C221.155 23.4379 212.416 22.9444 206.612 22.5759C204.551 22.4447 202.896 24.1563 202.896 26.2428V40.3605C202.896 41.3912 203.289 42.347 204.001 43.0466C204.713 43.7463 205.669 44.0836 206.612 44.0274ZM215.851 61.7682C219.144 66.3409 224.353 69.0707 229.788 69.0707C235.41 69.0707 240.62 66.3409 243.918 61.762L248.703 55.0592C250.521 52.4418 251.652 49.4746 252.014 46.4261C246.292 46.0513 238.103 45.6328 229.882 45.6328C221.655 45.6328 213.465 46.0513 207.743 46.4261C208.112 49.4746 209.242 52.4418 211.073 55.0717L215.851 61.7682ZM228.707 80.9271L212.285 72.2941V79.5091L225.04 88.4482L228.707 84.594V80.9271ZM245.218 70.7261L243.937 65.4538C240.245 69.2956 235.204 71.532 229.975 71.532C224.591 71.532 219.525 69.2956 215.826 65.4538L214.546 70.7261L229.882 78.7907L245.218 70.7261ZM247.479 72.2941L231.056 80.9271V84.5877L234.723 88.442L247.479 79.5029V72.2941ZM229.726 58.9384C232.168 58.9384 234.279 57.5579 235.404 56.3773C235.86 55.8962 235.86 55.1216 235.404 54.6406C234.948 54.1534 234.205 54.1534 233.742 54.6344C233.349 55.0467 229.732 58.5511 226.015 54.6344C225.559 54.1534 224.816 54.1534 224.353 54.6344C223.897 55.1154 223.897 55.8962 224.353 56.3773C226.159 58.2638 228.02 58.9384 229.726 58.9384ZM359.815 211.454V217.457C359.815 218.107 359.29 218.631 358.641 218.631C357.997 218.631 357.466 218.107 357.466 217.457V211.454C357.466 209.954 356.498 208.605 355.061 208.099L344.616 204.632L312.183 218.531C311.871 218.669 311.559 218.669 311.246 218.531L278.813 204.632L268.349 208.105C266.931 208.605 265.963 209.948 265.963 211.454V217.457C265.963 218.107 265.438 218.631 264.789 218.631C264.139 218.631 263.614 218.107 263.614 217.457V211.454C263.614 208.961 265.214 206.725 267.587 205.888L278.413 202.296L282.305 200.391C282.167 195.831 281.768 190.808 281.337 185.486C279.719 165.559 277.882 142.976 289.039 130.876C294.199 125.279 301.832 122.443 311.708 122.443C321.597 122.443 329.231 125.279 334.39 130.883C345.547 142.989 343.704 165.577 342.08 185.505C341.649 190.777 341.249 195.762 341.112 200.284L344.923 202.258L355.817 205.888C358.216 206.725 359.815 208.961 359.815 211.454ZM283.679 185.292C284.079 190.246 284.447 194.931 284.61 199.26L297.897 192.757L300.658 181.757L299.371 180.894C295.054 178.015 292.393 173.592 291.894 168.782C290.694 168.726 289.564 168.27 288.677 167.439C287.652 166.483 287.071 165.134 287.071 163.741V152.553C287.071 151.154 287.652 149.804 288.67 148.855C289.532 148.049 290.613 147.612 291.762 147.524V147.074C291.762 146.562 292.069 146.2 292.412 146.025C292.818 145.819 302.438 141.121 312.227 146.025C320.991 150.404 329.868 146.069 329.955 146.025C330.517 145.744 331.236 145.969 331.529 146.55C331.679 146.843 331.654 147.524 331.654 147.524C332.816 147.605 333.884 148.049 334.747 148.855C335.765 149.81 336.346 151.16 336.346 152.553V163.741C336.346 165.14 335.765 166.489 334.74 167.439C333.853 168.27 332.71 168.707 331.523 168.769C331.036 173.579 328.381 177.996 324.277 180.751L322.759 181.763L325.339 192.114L338.813 199.085C338.982 194.806 339.344 190.19 339.738 185.305C341.331 165.858 343.124 143.814 332.66 132.463C327.894 127.291 321.041 124.78 311.702 124.78C302.369 124.78 295.523 127.291 290.757 132.457C280.312 143.807 282.099 165.846 283.679 185.292ZM292.312 149.835C291.032 149.76 289.426 150.729 289.426 152.553V163.741C289.426 164.503 289.732 165.209 290.288 165.727C290.838 166.246 291.637 166.508 292.312 166.452C297.153 166.14 304.45 165.771 311.715 165.771C318.98 165.771 326.276 166.14 331.111 166.452C331.911 166.489 332.591 166.239 333.141 165.727C333.697 165.209 334.003 164.503 334.003 163.741V152.553C333.984 150.666 332.367 149.742 331.111 149.835C329.018 149.998 325.832 150.129 322.159 150.298C318.855 150.448 314.969 150.516 311.715 150.516C303.994 150.516 296.229 150.067 292.312 149.835ZM311.296 148.174C311.259 148.155 311.227 148.143 311.19 148.124C304.293 144.682 297.353 146.625 294.655 147.63C298.784 147.868 305.024 148.161 311.296 148.174ZM294.286 168.682C294.742 172.742 296.966 176.472 300.452 178.808L303.831 181.063C308.498 184.23 315.088 184.124 319.598 181.063L322.803 178.945C326.451 176.484 328.706 172.749 329.168 168.688C324.452 168.407 318.074 168.12 311.721 168.12C305.368 168.114 298.996 168.401 294.286 168.682ZM309.097 215.058L298.403 195.125L281.68 203.308L309.097 215.058ZM323.096 192.77L320.698 183.137C318.068 184.861 314.988 185.786 311.758 185.786C308.448 185.786 305.368 184.867 302.726 183.137L300.146 193.413L311.69 214.933L323.096 192.77ZM341.818 203.283L324.845 194.5L314.251 215.096L341.818 203.283ZM311.559 178.496C313.995 178.496 316.112 177.184 317.237 176.059C317.693 175.603 317.693 174.866 317.237 174.404C316.781 173.948 316.044 173.942 315.581 174.398C315.175 174.791 311.583 178.133 307.848 174.398C307.392 173.942 306.648 173.942 306.186 174.398C305.73 174.854 305.73 175.597 306.186 176.059C307.992 177.852 309.853 178.496 311.559 178.496ZM151.46 260.578L146.037 257.224C145.494 256.88 144.769 257.049 144.419 257.599C144.076 258.142 144.245 258.861 144.794 259.198L149.148 261.897L138.897 276.046C138.516 276.564 138.641 277.289 139.166 277.67C139.753 278.101 140.521 277.838 140.803 277.401L151.784 262.24C152.228 261.559 151.941 260.878 151.46 260.578ZM180.676 261.897L185.03 259.198C185.58 258.854 185.748 258.142 185.405 257.599C185.055 257.049 184.33 256.88 183.787 257.224L178.365 260.578C177.883 260.878 177.596 261.559 178.033 262.24L189.015 277.401C189.303 277.838 190.065 278.101 190.652 277.67C191.177 277.289 191.295 276.564 190.921 276.046L180.676 261.897ZM213.015 260.372V269.686C213.015 271.648 211.472 273.184 209.498 273.184H208.324V277.357C208.324 279.631 207.406 281.736 205.738 283.286C204.207 284.71 202.177 285.616 199.622 285.453C191.008 284.91 177.99 284.241 164.915 284.241C151.834 284.241 138.822 284.903 130.208 285.453C127.909 285.641 125.76 284.828 124.092 283.286C122.425 281.736 121.506 279.631 121.506 277.357V273.184H120.332C118.358 273.184 116.815 271.648 116.815 269.686V260.372C116.815 258.417 118.358 256.88 120.332 256.88H121.531C121.65 254.794 122.543 252.876 124.092 251.433C125.754 249.89 127.903 249.128 130.208 249.259C138.835 249.815 151.872 250.471 164.915 250.471C177.958 250.471 190.995 249.809 199.622 249.259C201.934 249.128 204.07 249.89 205.738 251.433C207.287 252.87 208.174 254.794 208.299 256.88H209.498C211.472 256.88 213.015 258.417 213.015 260.372ZM121.506 259.21H120.332C119.663 259.21 119.157 259.71 119.157 260.372V269.686C119.157 270.348 119.663 270.854 120.332 270.854H121.506V259.21ZM205.975 257.361C205.975 255.737 205.319 254.238 204.132 253.132C202.946 252.033 201.378 251.471 199.778 251.583C191.108 252.139 178.027 252.801 164.915 252.801C151.803 252.801 138.722 252.139 130.052 251.583C128.421 251.471 126.878 252.027 125.698 253.132C124.511 254.238 123.855 255.743 123.855 257.361V277.351C123.855 278.975 124.511 280.474 125.698 281.58C126.878 282.68 128.421 283.173 130.052 283.129C138.704 282.567 151.778 281.911 164.915 281.911C178.052 281.911 191.127 282.573 199.778 283.129C201.378 283.173 202.946 282.68 204.132 281.58C205.319 280.474 205.975 278.975 205.975 277.351V257.361ZM210.667 260.372C210.667 259.71 210.161 259.21 209.492 259.21H208.318V270.854H209.492C210.161 270.854 210.667 270.355 210.667 269.686V260.372ZM242.163 245.68C241.613 246.604 241.257 247.629 241.101 248.697H243.481C243.95 246.398 245.767 244.58 248.066 244.112V241.751C247.004 241.901 245.961 242.25 245.049 242.794C244.755 242.969 243.937 243.169 243.437 242.394C243.081 241.851 243.281 241.113 243.837 240.782C245.118 240.014 246.573 239.564 248.066 239.402V231.069C248.066 230.419 248.591 229.894 249.241 229.894C249.89 229.894 250.415 230.419 250.415 231.069V239.402C251.908 239.564 253.363 240.014 254.638 240.782C255.194 241.12 255.375 241.838 255.038 242.394C254.7 242.95 253.988 243.125 253.426 242.794C252.514 242.244 251.477 241.894 250.415 241.751V244.112C252.714 244.58 254.532 246.398 255 248.697H257.38C257.224 247.629 256.868 246.598 256.318 245.68C255.981 245.124 256.162 244.399 256.718 244.068C257.268 243.737 257.992 243.912 258.33 244.468C259.104 245.749 259.573 247.198 259.741 248.697H268.05C268.699 248.697 269.224 249.222 269.224 249.871C269.224 250.521 268.693 251.046 268.05 251.046H259.741C259.573 252.545 259.104 253.994 258.33 255.275C258.111 255.643 257.493 256.106 256.718 255.675C256.149 255.362 255.981 254.619 256.318 254.063C256.868 253.145 257.224 252.12 257.38 251.046H255C254.532 253.345 252.714 255.162 250.415 255.631V257.992C251.477 257.842 252.514 257.499 253.426 256.949C253.988 256.612 254.7 256.787 255.038 257.349C255.375 257.905 255.194 258.629 254.638 258.961C253.351 259.735 251.908 260.204 250.415 260.372V268.681C250.415 269.33 249.89 269.855 249.241 269.855C248.591 269.855 248.066 269.324 248.066 268.681V260.372C246.573 260.204 245.124 259.735 243.843 258.967C243.287 258.629 243.106 257.911 243.437 257.349C243.768 256.787 244.493 256.624 245.049 256.943C245.967 257.493 247.004 257.842 248.066 257.986V255.625C245.767 255.156 243.95 253.338 243.481 251.04H241.101C241.251 252.108 241.613 253.139 242.163 254.057C242.5 254.613 242.313 255.375 241.757 255.668C240.989 256.075 240.364 255.631 240.145 255.262C239.377 253.976 238.908 252.533 238.74 251.033H230.431C229.782 251.033 229.257 250.509 229.257 249.859C229.257 249.209 229.782 248.685 230.431 248.685H238.74C238.908 247.192 239.377 245.742 240.145 244.462C240.483 243.906 241.201 243.718 241.757 244.056C242.319 244.399 242.5 245.118 242.163 245.68ZM245.717 249.871C245.717 251.814 247.298 253.401 249.247 253.401C251.196 253.401 252.776 251.814 252.776 249.871C252.776 247.929 251.196 246.342 249.247 246.342C247.298 246.342 245.717 247.922 245.717 249.871ZM266.913 449.007C267.606 449.194 268.2 448.675 268.331 448.138C269.137 444.802 269.543 441.354 269.543 437.9C269.543 437.25 269.018 436.725 268.368 436.725C267.719 436.725 267.194 437.25 267.194 437.9C267.194 441.173 266.813 444.428 266.044 447.589C265.895 448.213 266.288 448.838 266.913 449.007ZM227.308 395.665C227.308 395.022 226.783 394.491 226.134 394.491C209.53 394.491 194.625 403.736 187.235 418.616C186.948 419.197 187.179 419.903 187.766 420.19C188.491 420.54 189.134 420.078 189.34 419.665C196.33 405.585 210.429 396.846 226.14 396.846C226.783 396.84 227.308 396.309 227.308 395.665ZM274.234 437.9C274.234 464.424 252.658 486 226.134 486C199.61 486 178.033 464.424 178.033 437.9C178.033 411.376 199.61 389.799 226.134 389.799C252.658 389.799 274.234 411.376 274.234 437.9ZM271.885 437.9C271.885 412.669 251.358 392.148 226.134 392.148C200.909 392.148 180.382 412.675 180.382 437.9C180.382 463.124 200.909 483.651 226.134 483.651C251.358 483.651 271.885 463.131 271.885 437.9ZM226.134 453.148C217.726 453.148 210.885 446.308 210.885 437.9C210.885 429.492 217.726 422.651 226.134 422.651C234.542 422.651 241.382 429.492 241.382 437.9C241.382 446.308 234.542 453.148 226.134 453.148ZM226.134 450.806C233.249 450.806 239.04 445.015 239.04 437.9C239.04 430.785 233.249 424.994 226.134 424.994C219.019 424.994 213.228 430.785 213.228 437.9C213.228 445.015 219.019 450.806 226.134 450.806ZM185.355 426.793C184.736 426.649 184.093 427.037 183.937 427.661C183.131 430.997 182.725 434.445 182.725 437.9C182.725 438.549 183.249 439.074 183.899 439.074C184.549 439.074 185.074 438.549 185.074 437.9C185.074 434.626 185.455 431.372 186.223 428.211C186.373 427.586 185.986 426.949 185.355 426.793ZM226.134 448.457C220.312 448.457 215.577 443.716 215.577 437.9C215.577 432.084 220.312 427.343 226.134 427.343C231.956 427.343 236.691 432.084 236.691 437.9C236.691 443.716 231.956 448.457 226.134 448.457ZM226.134 446.114C230.663 446.114 234.348 442.429 234.348 437.9C234.348 433.371 230.663 429.685 226.134 429.685C221.605 429.685 217.919 433.371 217.919 437.9C217.919 442.429 221.605 446.114 226.134 446.114ZM226.134 478.96C225.484 478.96 224.959 479.485 224.959 480.134C224.959 480.778 225.484 481.309 226.134 481.309C242.738 481.309 257.642 472.063 265.032 457.184C265.32 456.603 265.082 455.903 264.501 455.609C263.927 455.322 263.221 455.553 262.927 456.134C255.937 470.214 241.838 478.96 226.134 478.96ZM424.444 269.761L419.028 266.382C418.485 266.032 417.76 266.201 417.41 266.757C417.067 267.306 417.235 268.025 417.785 268.368L422.139 271.086L411.888 285.341C411.507 285.865 411.632 286.59 412.157 286.977C412.744 287.408 413.506 287.146 413.793 286.709L424.775 271.435C425.213 270.748 424.925 270.061 424.444 269.761ZM453.66 271.086L458.014 268.368C458.564 268.025 458.733 267.306 458.389 266.757C458.039 266.201 457.315 266.032 456.771 266.382L451.355 269.761C450.874 270.067 450.587 270.748 451.024 271.442L462.006 286.715C462.293 287.152 463.056 287.421 463.643 286.984C464.168 286.596 464.286 285.872 463.911 285.347L453.66 271.086ZM450.774 251.933L458.752 256.581C459.233 256.868 459.976 256.787 460.357 256.162C460.694 255.606 460.494 254.881 459.938 254.557L451.961 249.909C451.399 249.578 450.687 249.772 450.356 250.327C450.031 250.883 450.218 251.608 450.774 251.933ZM417.048 256.581L425.025 251.933C425.581 251.608 425.775 250.89 425.444 250.327C425.119 249.759 424.394 249.578 423.838 249.909L415.861 254.557C415.299 254.881 415.13 255.594 415.443 256.162C415.717 256.655 416.336 256.955 417.048 256.581ZM486 269.555V278.944C486 280.887 484.426 282.461 482.483 282.461H481.309V286.665C481.309 288.958 480.39 291.082 478.722 292.643C477.192 294.08 475.006 294.98 472.607 294.83C463.886 294.274 450.981 293.611 437.9 293.611C424.819 293.611 411.801 294.274 403.193 294.83C401 294.998 398.932 294.274 397.302 292.849C395.709 291.45 394.491 288.47 394.491 286.346V282.467H393.316C391.374 282.467 389.799 280.893 389.799 278.95V269.561C389.799 267.619 391.374 266.044 393.316 266.044H394.516C394.634 263.939 395.528 262.009 397.077 260.56C397.714 259.966 398.426 259.479 399.188 259.117V221.505C399.188 221.155 399.376 220.736 399.776 220.48L437.344 198.792C437.65 198.61 438.156 198.61 438.468 198.792L476.036 220.48C476.355 220.674 476.624 221.08 476.624 221.505V259.117C477.386 259.479 478.098 259.966 478.735 260.56C480.284 262.009 481.171 263.945 481.296 266.044H482.496C484.426 266.032 486 267.606 486 269.555ZM394.491 268.381H393.316C392.648 268.381 392.142 268.887 392.142 269.555V278.944C392.142 279.612 392.648 280.118 393.316 280.118H394.491V268.381ZM447.045 248.441C446.714 249.016 445.996 249.178 445.446 248.872L439.08 245.193V259.573C451.768 259.535 464.261 258.898 472.619 258.355C473.182 258.311 473.738 258.323 474.281 258.398V223.516L440.267 243.162L446.626 246.836C447.176 247.167 447.364 247.885 447.045 248.441ZM402.705 221.486L436.732 241.138V233.78C436.732 233.136 437.256 232.605 437.906 232.605C438.556 232.605 439.08 233.13 439.08 233.78V241.138L473.107 221.486L439.08 201.846V209.199C439.08 209.842 438.556 210.373 437.906 210.373C437.256 210.373 436.732 209.848 436.732 209.199V201.846L402.705 221.486ZM401.531 258.405C402.074 258.336 402.63 258.317 403.193 258.361C411.551 258.898 424.044 259.535 436.732 259.579V245.199L430.366 248.878C429.704 249.222 429.073 248.984 428.767 248.447C428.448 247.885 428.636 247.167 429.198 246.842L435.557 243.169L401.543 223.523V258.405H401.531ZM478.96 266.519C478.96 264.889 478.304 263.377 477.117 262.259C475.93 261.147 474.412 260.647 472.757 260.697C464.111 261.259 451.043 261.928 437.893 261.928C424.75 261.928 411.682 261.266 403.03 260.697C401.412 260.66 399.857 261.153 398.67 262.259C397.483 263.371 396.827 264.883 396.827 266.519V286.659C396.827 288.295 397.483 289.807 398.67 290.919C399.857 292.031 401.406 292.518 403.03 292.481C411.676 291.919 424.744 291.25 437.893 291.25C451.037 291.25 464.105 291.912 472.757 292.481C474.418 292.556 475.93 292.031 477.117 290.919C478.304 289.807 478.96 288.295 478.96 286.659V266.519ZM483.651 269.555C483.651 268.887 483.145 268.381 482.477 268.381H481.302V280.112H482.477C483.145 280.112 483.651 279.606 483.651 278.938V269.555ZM437.9 228.807C438.549 228.807 439.074 228.283 439.074 227.633V215.339C439.074 214.696 438.549 214.165 437.9 214.165C437.25 214.165 436.725 214.69 436.725 215.339V227.633C436.725 228.276 437.25 228.807 437.9 228.807ZM152.272 348.471L145.381 352.444C144.819 352.769 144.619 353.493 144.95 354.043C145.219 354.486 145.844 354.849 146.556 354.474L153.446 350.501C154.008 350.176 154.196 349.458 153.877 348.902C153.546 348.34 152.821 348.152 152.272 348.471ZM178.258 350.507L185.149 354.48C185.804 354.836 186.46 354.53 186.754 354.049C187.073 353.537 186.91 352.775 186.323 352.45L179.433 348.477C178.877 348.158 178.158 348.34 177.827 348.908C177.502 349.464 177.69 350.182 178.258 350.507ZM166.439 303.125L199.31 322.059C199.672 322.272 199.897 322.659 199.897 323.078V360.946C199.897 361.364 199.672 361.751 199.31 361.964L166.439 380.898C166.071 381.116 165.64 381.104 165.265 380.898L132.394 361.964C132.032 361.751 131.807 361.364 131.807 360.946V323.078C131.807 322.659 132.032 322.272 132.394 322.059L165.265 303.125C165.634 302.919 166.071 302.919 166.439 303.125ZM164.678 344.042L160.343 346.54C159.793 346.853 159.062 346.672 158.737 346.109C158.419 345.553 158.606 344.835 159.168 344.51L163.503 342.012L134.162 325.102V358.915L138.498 356.417C139.047 356.098 139.766 356.279 140.103 356.848C140.422 357.404 140.234 358.122 139.672 358.447L135.337 360.946L164.684 377.849V344.042H164.678ZM197.548 325.102L168.207 342.012L172.542 344.51C173.105 344.835 173.305 345.56 172.974 346.109C172.661 346.634 171.999 346.865 171.368 346.54L167.033 344.042V377.849L196.38 360.946L192.045 358.447C191.483 358.122 191.295 357.404 191.614 356.848C191.939 356.279 192.663 356.098 193.219 356.417L197.555 358.915V325.102H197.548ZM165.852 312.339C165.203 312.339 164.678 311.815 164.678 311.165V306.168L135.33 323.071L164.678 339.975V334.978C164.678 334.334 165.203 333.803 165.852 333.803C166.502 333.803 167.027 334.328 167.027 334.978V339.975L196.374 323.071L167.027 306.168V311.165C167.027 311.815 166.502 312.339 165.852 312.339ZM164.678 319.111V327.051C164.678 327.694 165.203 328.225 165.852 328.225C166.502 328.225 167.027 327.7 167.027 327.051V319.111C167.027 318.467 166.502 317.936 165.852 317.936C165.203 317.936 164.678 318.461 164.678 319.111ZM281.355 258.142L302.644 248.76L315.788 244.993L313.932 243.756C312.296 242.663 311.321 240.839 311.321 238.871V229.657C311.321 227.72 312.902 226.14 314.838 226.14H324.214C326.151 226.14 327.731 227.72 327.731 229.657V238.871C327.731 240.839 326.757 242.663 325.12 243.756L323.271 244.993L336.258 248.71L357.697 258.148C358.828 258.586 360.49 260.429 359.515 262.79L358.578 264.901C357.978 266.407 355.942 267.587 353.943 266.725L332.423 257.343V283.623L331.904 318.973C331.836 320.872 330.33 322.334 328.481 322.334H324.027C322.109 322.334 320.604 320.829 320.604 318.905L320.698 284.791H318.355L318.449 318.898C318.449 320.822 316.943 322.328 315.025 322.328H310.572C308.729 322.328 307.223 320.86 307.148 318.992L306.636 283.629V257.336L285.116 266.707C283.336 267.487 281.255 266.663 280.474 264.883L279.537 262.777C278.788 261.153 279.419 258.998 281.355 258.142ZM313.664 230.681C317.555 230.257 321.491 230.263 325.389 230.688V229.657C325.389 229.013 324.864 228.482 324.214 228.482H314.838C314.195 228.482 313.664 229.007 313.664 229.657V230.681ZM313.664 235.648C317.555 236.097 321.491 236.097 325.389 235.648V233.049C321.46 232.605 317.537 232.593 313.664 233.043V235.648ZM317.574 243.362C318.761 244.149 320.292 244.149 321.485 243.362L323.827 241.801C324.808 241.145 325.395 240.052 325.395 238.865V237.99C323.434 238.202 321.472 238.334 319.517 238.334C317.562 238.334 315.613 238.221 313.676 238.009V238.865C313.676 240.045 314.263 241.145 315.244 241.801L317.574 243.362ZM281.68 261.84L282.617 263.945C282.873 264.526 283.604 264.833 284.173 264.57L305.037 255.375L307.486 254.663C308.26 254.438 308.979 255.013 308.979 255.787V283.617L309.491 318.93C309.516 319.504 309.991 319.985 310.572 319.985H315.025C315.644 319.985 316.106 319.523 316.106 318.905L316.012 283.623C316.012 282.898 316.618 282.442 317.187 282.442H321.878C322.547 282.442 323.053 282.973 323.053 283.623L322.959 318.911C322.959 319.523 323.421 319.985 324.04 319.985H328.494C329.074 319.985 329.549 319.511 329.568 318.905L330.08 283.604V255.793C330.08 255.013 330.83 254.45 331.579 254.663L333.878 255.325L354.892 264.576C355.53 264.858 356.248 264.451 356.435 263.952L357.379 261.84C357.678 261.091 357.16 260.441 356.76 260.297L335.471 250.908L319.529 246.361L303.438 250.965L282.299 260.297C281.805 260.529 281.405 261.128 281.68 261.84ZM450.393 308.985V374.682C450.393 376.619 448.813 378.199 446.876 378.199H412.85V394.622H425.756C426.406 394.622 426.93 395.147 426.93 395.796V400.488C426.93 401.131 426.406 401.662 425.756 401.662H378.83C378.18 401.662 377.656 401.137 377.656 400.488V395.796C377.656 395.153 378.18 394.622 378.83 394.622H391.736V378.199H357.716C355.773 378.199 354.199 376.619 354.199 374.682V308.985C354.199 307.048 355.78 305.468 357.716 305.468H446.876C448.813 305.468 450.393 307.048 450.393 308.985ZM380.005 396.977V399.326H424.588V396.977H380.005ZM396.427 381.722V378.205H394.079V394.628H410.501V378.205H408.153V381.722C408.153 382.366 407.628 382.897 406.978 382.897C406.328 382.897 405.804 382.372 405.804 381.722V378.205H398.764V381.722C398.764 382.366 398.239 382.897 397.589 382.897C396.952 382.897 396.427 382.372 396.427 381.722ZM448.045 308.985C448.045 308.341 447.52 307.81 446.87 307.81H357.71C357.066 307.81 356.535 308.335 356.535 308.985V374.682C356.535 375.326 357.06 375.857 357.71 375.857H446.87C447.514 375.857 448.045 375.332 448.045 374.682V308.985ZM445.702 311.334V362.951C445.702 363.594 445.177 364.125 444.528 364.125H360.059C359.409 364.125 358.884 363.6 358.884 362.951V311.334C358.884 310.69 359.409 310.159 360.059 310.159H444.528C445.177 310.159 445.702 310.69 445.702 311.334ZM443.353 312.508H361.233V361.783H443.353V312.508ZM373.264 335.584C372.864 335.14 372.864 334.459 373.264 334.016C373.789 333.422 386.401 319.548 402.293 319.548C418.185 319.548 430.797 333.422 431.322 334.016C431.722 334.459 431.722 335.14 431.322 335.584C430.797 336.177 418.185 350.051 402.293 350.051C386.401 350.051 373.789 336.171 373.264 335.584ZM413.225 324.189C415.892 326.938 417.541 330.674 417.541 334.797C417.541 338.919 415.892 342.655 413.225 345.404C420.915 342.274 426.805 336.814 428.817 334.797C426.805 332.773 420.915 327.319 413.225 324.189ZM389.387 334.797C389.387 341.912 395.178 347.702 402.293 347.702C409.408 347.702 415.199 341.912 415.199 334.797C415.199 327.681 409.408 321.891 402.293 321.891C395.178 321.891 389.387 327.681 389.387 334.797ZM375.763 334.797C377.781 336.82 383.671 342.274 391.355 345.404C388.688 342.655 387.038 338.919 387.038 334.797C387.038 330.674 388.688 326.938 391.355 324.189C383.671 327.319 377.781 332.773 375.763 334.797ZM396.427 334.797C396.427 331.561 399.057 328.931 402.293 328.931C405.529 328.931 408.159 331.561 408.159 334.797C408.159 338.032 405.529 340.662 402.293 340.662C399.057 340.662 396.427 338.032 396.427 334.797ZM398.776 334.797C398.776 336.733 400.357 338.313 402.293 338.313C404.236 338.313 405.81 336.733 405.81 334.797C405.81 332.86 404.23 331.28 402.293 331.28C400.35 331.28 398.776 332.86 398.776 334.797ZM395.14 156.038C394.741 155.595 394.741 154.914 395.14 154.471C395.671 153.877 408.277 140.003 424.169 140.003C440.061 140.003 452.667 153.877 453.198 154.471C453.598 154.914 453.598 155.595 453.198 156.038C452.667 156.632 440.061 170.506 424.169 170.506C408.277 170.506 395.671 156.632 395.14 156.038ZM435.107 144.644C437.775 147.393 439.424 151.129 439.424 155.251C439.424 159.374 437.775 163.11 435.107 165.858C442.797 162.729 448.688 157.269 450.699 155.251C448.688 153.234 442.791 147.78 435.107 144.644ZM411.27 155.258C411.27 162.373 417.06 168.164 424.176 168.164C431.291 168.164 437.081 162.373 437.081 155.258C437.081 148.143 431.291 142.352 424.176 142.352C417.054 142.352 411.27 148.136 411.27 155.258ZM397.645 155.258C399.663 157.282 405.554 162.735 413.237 165.865C410.57 163.116 408.921 159.381 408.921 155.258C408.921 151.135 410.57 147.399 413.237 144.651C405.548 147.78 399.657 153.234 397.645 155.258ZM418.304 155.258C418.304 152.022 420.934 149.392 424.169 149.392C427.405 149.392 430.035 152.022 430.035 155.258C430.035 158.493 427.405 161.123 424.169 161.123C420.934 161.123 418.304 158.493 418.304 155.258ZM420.652 155.258C420.652 157.194 422.233 158.775 424.169 158.775C426.106 158.775 427.686 157.194 427.686 155.258C427.686 153.321 426.106 151.741 424.169 151.741C422.233 151.741 420.652 153.315 420.652 155.258ZM458.196 136.486V174.029C458.196 174.673 457.671 175.204 457.021 175.204H391.324C390.68 175.204 390.149 174.679 390.149 174.029V136.486C390.149 135.843 390.674 135.312 391.324 135.312H457.021C457.665 135.312 458.196 135.836 458.196 136.486ZM455.847 137.66H392.498V172.855H455.847V137.66ZM462.887 134.137V176.372C462.887 178.308 461.306 179.889 459.37 179.889H430.041V186.929H433.558C434.202 186.929 434.733 187.454 434.733 188.103C434.733 188.747 434.208 189.278 433.558 189.278H414.787C414.143 189.278 413.612 188.753 413.612 188.103C413.612 187.46 414.137 186.929 414.787 186.929H418.304V179.889H411.263V188.103C411.263 188.747 410.739 189.278 410.089 189.278H367.855C367.211 189.278 366.68 188.753 366.68 188.103V94.2515C366.68 93.6081 367.205 93.0771 367.855 93.0771H410.089C410.732 93.0771 411.263 93.6019 411.263 94.2515V130.62H459.364C461.306 130.62 462.887 132.201 462.887 134.137ZM408.921 179.895H388.975C387.038 179.895 385.458 178.315 385.458 176.378V156.432H377.243C376.6 156.432 376.069 155.907 376.069 155.258C376.069 154.614 376.594 154.083 377.243 154.083H385.458V151.734H377.243C376.6 151.734 376.069 151.21 376.069 150.56C376.069 149.917 376.594 149.386 377.243 149.386H385.458V147.037H377.243C376.6 147.037 376.069 146.512 376.069 145.862C376.069 145.219 376.594 144.688 377.243 144.688H385.458V134.131C385.458 132.195 387.038 130.614 388.975 130.614H408.921V95.4197H369.035V186.929H408.921V179.895ZM427.692 179.895H420.652V186.935H427.692V179.895ZM460.538 134.137C460.538 133.494 460.013 132.963 459.364 132.963H388.975C388.331 132.963 387.801 133.488 387.801 134.137V176.372C387.801 177.015 388.325 177.546 388.975 177.546H459.364C460.007 177.546 460.538 177.021 460.538 176.372V134.137ZM371.378 108.326V98.9429C371.378 98.2994 371.902 97.7685 372.552 97.7685H405.404C406.047 97.7685 406.578 98.2932 406.578 98.9429V108.326C406.578 108.969 406.054 109.5 405.404 109.5H372.552C371.909 109.5 371.378 108.975 371.378 108.326ZM373.727 107.157H404.23V100.117H373.727V107.157ZM405.404 123.58H372.552C371.909 123.58 371.378 123.055 371.378 122.406V113.023C371.378 112.38 371.902 111.849 372.552 111.849H405.404C406.047 111.849 406.578 112.373 406.578 113.023V122.406C406.572 123.055 406.047 123.58 405.404 123.58ZM404.23 114.191H373.727V121.231H404.23V114.191ZM65.6975 244.862V254.244C65.6975 254.888 65.1727 255.419 64.5231 255.419H54.3221L65.1727 262.652C65.7162 263.008 65.8599 263.739 65.4976 264.277C65.1477 264.801 64.4356 264.964 63.8734 264.601L51.6172 256.431V263.627C51.6172 264.27 51.0925 264.801 50.4428 264.801C49.7994 264.801 49.2684 264.277 49.2684 263.627V244.855C49.2684 244.212 49.7931 243.681 50.4428 243.681H64.5231C65.1727 243.687 65.6975 244.212 65.6975 244.862ZM63.3487 246.03H51.6172V253.07H63.3487V246.03ZM96.2005 247.204V256.587C96.2005 258.561 94.6576 260.104 92.6836 260.104H91.5092V264.308C91.5092 266.538 90.6346 268.599 89.0542 270.149C82.9823 289.42 66.5658 302.344 48.1003 302.344C29.6348 302.344 13.2182 289.42 7.14632 270.155C5.56589 268.606 4.69134 266.544 4.69134 264.314V260.11H3.51694C1.54296 260.11 0 258.567 0 256.593V247.21C0 245.236 1.54296 243.693 3.51694 243.693H4.71632C4.83501 241.651 5.68458 239.77 7.14632 238.334C13.2182 219.062 29.6285 206.144 48.1003 206.144C66.572 206.144 82.9823 219.062 89.0542 238.327C90.5222 239.764 91.3717 241.644 91.4842 243.687H92.6836C94.6576 243.687 96.2005 245.23 96.2005 247.204ZM4.69134 246.03H3.51694C2.84853 246.03 2.34255 246.536 2.34255 247.204V256.587C2.34255 257.255 2.84853 257.761 3.51694 257.761H4.69134V246.03ZM10.3072 236.385C11.2754 236.066 12.3124 235.929 13.3869 236.01C22.0324 236.566 35.0757 237.234 48.094 237.234C61.1123 237.234 74.1556 236.572 82.8012 236.01C83.8819 235.929 84.9126 236.066 85.8746 236.378C79.5091 219.575 64.6667 208.487 48.0878 208.487C31.5213 208.493 16.6789 219.575 10.3072 236.385ZM85.8933 272.085C85.0812 272.347 83.9756 272.554 82.8074 272.479C74.1931 271.916 61.1748 271.26 48.1003 271.26C35.0195 271.26 22.0074 271.923 13.3931 272.479C12.3124 272.56 11.2754 272.416 10.3072 272.098C16.6727 288.908 31.5213 300.002 48.1065 300.002C64.6855 299.996 79.5278 288.901 85.8933 272.085ZM89.1604 244.174C89.1604 242.538 88.5045 241.026 87.3176 239.914C86.1307 238.802 84.5752 238.29 82.9636 238.352C74.2805 238.915 61.1748 239.583 48.1003 239.583C35.0195 239.583 21.92 238.915 13.2369 238.352C11.6128 238.29 10.0698 238.802 8.88293 239.914C7.69604 241.026 7.04013 242.538 7.04013 244.174V264.314C7.04013 265.951 7.69604 267.462 8.88293 268.574C10.0698 269.686 11.6128 270.199 13.2369 270.136C21.8887 269.574 34.9633 268.905 48.1003 268.905C61.2373 268.905 74.3118 269.568 82.9636 270.136C84.5752 270.199 86.1307 269.68 87.3176 268.574C88.5045 267.462 89.1604 265.951 89.1604 264.314V244.174ZM93.8517 247.204C93.8517 246.536 93.3457 246.03 92.6773 246.03H91.5029V257.761H92.6773C93.3457 257.761 93.8517 257.255 93.8517 256.587V247.204ZM46.1638 243.756C45.5516 243.531 44.8832 243.831 44.652 244.443L38.7113 260.285L32.7706 244.443C32.5395 243.831 31.8711 243.531 31.2589 243.756C30.653 243.987 30.3469 244.662 30.5718 245.268L37.6119 264.039C37.7868 264.495 38.2241 264.801 38.7113 264.801C39.1986 264.801 39.6359 264.501 39.8108 264.039L46.8509 245.274C47.0758 244.668 46.7697 243.987 46.1638 243.756ZM56.6584 287.44C52.423 291.675 43.7837 291.675 39.5484 287.44C39.0924 286.984 38.349 286.984 37.8868 287.44C37.4307 287.896 37.4307 288.639 37.8868 289.101C40.4604 291.675 44.2835 292.968 48.1003 292.968C51.917 292.968 55.7401 291.675 58.3138 289.101C58.7698 288.645 58.7698 287.902 58.3138 287.44C57.8577 286.977 57.1144 286.977 56.6584 287.44ZM294.486 400.4L321.147 385.039C320.947 384.452 320.835 383.828 320.835 383.172C320.835 379.936 323.465 377.306 326.707 377.306C329.949 377.306 332.579 379.936 332.579 383.172C332.579 383.828 332.466 384.452 332.267 385.039L358.928 400.4C360.002 399.188 361.57 398.426 363.313 398.426C366.549 398.426 369.185 401.056 369.185 404.292C369.185 407.134 367.155 409.502 364.469 410.045V440.78C367.155 441.317 369.185 443.691 369.185 446.533C369.185 449.769 366.555 452.399 363.313 452.399C361.57 452.399 360.002 451.63 358.928 450.425L332.267 465.785C332.466 466.373 332.579 466.997 332.579 467.653C332.579 470.889 329.949 473.519 326.707 473.519C323.465 473.519 320.835 470.889 320.835 467.653C320.835 466.997 320.947 466.373 321.147 465.785L294.486 450.425C293.412 451.636 291.844 452.399 290.101 452.399C286.865 452.399 284.229 449.769 284.229 446.533C284.229 443.691 286.259 441.323 288.945 440.78V410.045C286.259 409.508 284.229 407.134 284.229 404.292C284.229 401.056 286.859 398.426 290.101 398.426C291.844 398.42 293.405 399.188 294.486 400.4ZM290.101 407.809C292.044 407.809 293.624 406.229 293.624 404.292C293.624 402.349 292.044 400.775 290.101 400.775C288.158 400.775 286.578 402.356 286.578 404.292C286.578 406.229 288.158 407.809 290.101 407.809ZM293.624 446.52C293.624 444.578 292.044 443.003 290.101 443.003C288.158 443.003 286.578 444.584 286.578 446.52C286.578 448.463 288.158 450.037 290.101 450.037C292.037 450.043 293.624 448.463 293.624 446.52ZM330.23 467.641C330.23 465.698 328.65 464.124 326.707 464.124C324.764 464.124 323.184 465.704 323.184 467.641C323.184 469.583 324.764 471.158 326.707 471.158C328.65 471.158 330.23 469.583 330.23 467.641ZM326.707 428.923C328.65 428.923 330.23 427.343 330.23 425.406C330.23 423.47 328.65 421.889 326.707 421.889C324.764 421.889 323.184 423.47 323.184 425.406C323.184 427.343 324.764 428.923 326.707 428.923ZM363.313 443.003C361.37 443.003 359.79 444.584 359.79 446.52C359.79 448.463 361.37 450.037 363.313 450.037C365.256 450.037 366.836 448.457 366.836 446.52C366.836 444.584 365.256 443.003 363.313 443.003ZM359.79 404.292C359.79 406.235 361.37 407.809 363.313 407.809C365.256 407.809 366.836 406.229 366.836 404.292C366.836 402.349 365.256 400.775 363.313 400.775C361.377 400.769 359.79 402.349 359.79 404.292ZM358.928 408.178L332.267 423.538C332.466 424.126 332.579 424.75 332.579 425.406C332.579 426.062 332.466 426.687 332.267 427.274L337.433 430.254C337.995 430.579 338.189 431.297 337.864 431.853C337.539 432.403 336.827 432.596 336.258 432.284L331.08 429.298C330.255 430.229 329.137 430.891 327.875 431.153V461.894C329.137 462.15 330.249 462.818 331.08 463.743L357.747 448.382C357.554 447.795 357.441 447.176 357.441 446.527C357.441 445.877 357.554 445.252 357.747 444.671L352.562 441.685C352 441.36 351.813 440.642 352.131 440.08C352.462 439.511 353.181 439.33 353.737 439.649L358.928 442.641C359.752 441.717 360.858 441.048 362.12 440.786V410.039C360.864 409.77 359.752 409.102 358.928 408.178ZM323.184 383.172C323.184 385.114 324.764 386.689 326.707 386.689C328.65 386.689 330.23 385.108 330.23 383.172C330.23 381.229 328.65 379.655 326.707 379.655C324.764 379.655 323.184 381.229 323.184 383.172ZM295.973 404.292C295.973 404.942 295.86 405.566 295.667 406.147L322.334 421.508C323.159 420.584 324.277 419.915 325.539 419.659V413.675C325.539 413.025 326.064 412.5 326.713 412.5C327.363 412.5 327.888 413.025 327.888 413.675V419.659C329.149 419.915 330.261 420.584 331.092 421.508L357.76 406.147C357.566 405.56 357.454 404.942 357.454 404.292C357.454 403.642 357.566 403.018 357.76 402.437L331.092 387.076C330.268 388 329.149 388.669 327.888 388.925V394.909C327.888 395.559 327.363 396.084 326.713 396.084C326.064 396.084 325.539 395.559 325.539 394.909V388.925C324.277 388.669 323.165 388 322.334 387.076L295.667 402.437C295.86 403.018 295.973 403.636 295.973 404.292ZM294.486 408.178C293.661 409.102 292.556 409.77 291.294 410.033V440.78C292.556 441.042 293.661 441.71 294.486 442.635L299.677 439.643C300.221 439.324 300.951 439.505 301.283 440.074C301.601 440.636 301.414 441.354 300.851 441.679L295.667 444.665C295.86 445.252 295.973 445.871 295.973 446.52C295.973 447.17 295.86 447.795 295.667 448.376L322.334 463.736C323.159 462.812 324.277 462.144 325.539 461.887V431.153C324.277 430.897 323.159 430.229 322.334 429.298L317.156 432.284C316.7 432.571 315.881 432.465 315.55 431.853C315.244 431.284 315.419 430.572 315.981 430.254L321.147 427.274C320.947 426.687 320.835 426.062 320.835 425.406C320.835 424.75 320.947 424.126 321.147 423.538L294.486 408.178ZM340.918 434.97L347.902 438.993C348.433 439.249 349.089 439.205 349.508 438.562C349.833 438.062 349.639 437.281 349.077 436.963L342.093 432.934C341.537 432.615 340.812 432.796 340.487 433.365C340.169 433.927 340.362 434.645 340.918 434.97ZM305.505 438.999L312.489 434.976C313.051 434.651 313.239 433.933 312.92 433.371C312.583 432.802 311.858 432.621 311.315 432.94L304.331 436.969C303.769 437.294 303.581 438.006 303.9 438.568C304.187 439.068 304.856 439.337 305.505 438.999ZM326.707 409.483C327.357 409.483 327.881 408.958 327.881 408.309V400.263C327.881 399.613 327.357 399.088 326.707 399.088C326.057 399.088 325.533 399.613 325.533 400.263V408.309C325.533 408.958 326.057 409.483 326.707 409.483ZM354.368 103.253C354.892 102.872 355.005 102.135 354.624 101.616L345.097 88.5232C344.791 88.0734 344.067 87.8298 343.455 88.2671C342.93 88.6419 342.817 89.3853 343.198 89.9038L352.725 102.997C353.106 103.522 353.837 103.634 354.368 103.253ZM370.347 79.9589C370.965 80.1588 371.621 79.8214 371.827 79.203C372.027 78.5846 371.684 77.9224 371.072 77.7225L366.005 76.0796C365.218 75.8672 364.687 76.3357 364.525 76.8355C364.325 77.4539 364.669 78.1161 365.281 78.316L370.347 79.9589ZM299.44 102.997L308.966 89.9038C309.347 89.379 309.235 88.6419 308.71 88.2671C308.098 87.8361 307.373 88.0797 307.067 88.5232L297.541 101.616C297.16 102.141 297.272 102.872 297.797 103.253C298.334 103.634 299.059 103.522 299.44 102.997ZM281.818 79.9589L286.884 78.316C287.496 78.1161 287.839 77.4539 287.64 76.8355C287.477 76.342 286.946 75.8672 286.159 76.0796L281.093 77.7225C280.481 77.9224 280.137 78.5846 280.337 79.203C280.543 79.8152 281.199 80.1588 281.818 79.9589ZM327.257 111.268V92.4962C327.257 91.8465 326.732 91.3218 326.082 91.3218C325.439 91.3218 324.908 91.8465 324.908 92.4962V111.268C324.908 111.917 325.433 112.442 326.082 112.442C326.726 112.442 327.257 111.917 327.257 111.268ZM352.725 25.6868L343.198 38.7801C342.817 39.3048 342.93 40.0419 343.455 40.4167C344.067 40.8477 344.791 40.6041 345.097 40.1606L354.624 27.0673C355.005 26.5426 354.892 25.8117 354.368 25.4307C353.837 25.0496 353.106 25.1621 352.725 25.6868ZM370.347 48.7249L365.281 50.3678C364.669 50.5677 364.325 51.2299 364.525 51.8483C364.687 52.3418 365.218 52.8166 366.005 52.6042L371.072 50.9613C371.684 50.7614 372.027 50.0992 371.827 49.4808C371.621 48.8686 370.965 48.525 370.347 48.7249ZM297.803 25.4307C297.278 25.8117 297.166 26.5488 297.547 27.0673L307.073 40.1606C307.379 40.6104 308.104 40.854 308.716 40.4167C309.241 40.0419 309.353 39.2985 308.972 38.7801L299.446 25.6868C299.059 25.1621 298.334 25.0496 297.803 25.4307ZM281.818 48.7249C281.199 48.525 280.543 48.8624 280.337 49.4808C280.137 50.0992 280.481 50.7614 281.093 50.9613L286.159 52.6042C286.946 52.8166 287.477 52.3481 287.64 51.8483C287.839 51.2299 287.496 50.5677 286.884 50.3678L281.818 48.7249ZM373.883 63.5611C374.282 64.0108 374.282 64.6855 373.876 65.129C373.876 65.129 352.737 88.9792 326.082 88.9792C299.427 88.9792 278.288 65.129 278.288 65.129C277.882 64.6855 277.882 64.0108 278.282 63.5611C278.282 63.5611 299.221 39.7046 326.082 39.7046C352.95 39.7046 373.883 63.5611 373.883 63.5611ZM311.571 84.2317C305.437 79.7465 301.445 72.5002 301.445 64.3419C301.445 56.1898 305.43 48.9561 311.546 44.4646C295.542 50.018 285.559 59.8005 280.768 64.3357C285.085 68.4023 294.436 78.3222 311.571 84.2317ZM326.082 86.6055C338.376 86.6055 348.346 76.6356 348.346 64.3419C348.346 52.042 338.376 42.0784 326.082 42.0784C313.789 42.0784 303.819 52.0482 303.819 64.3419C303.819 76.6356 313.789 86.6055 326.082 86.6055ZM371.396 64.3419C366.605 59.8067 356.623 50.0243 340.619 44.4709C346.734 48.9561 350.72 56.1961 350.72 64.3482C350.72 72.5127 346.728 79.7527 340.594 84.2379C357.728 78.3222 367.08 68.4023 371.396 64.3419ZM336.639 64.3419C336.639 70.1639 331.898 74.899 326.082 74.899C320.26 74.899 315.525 70.1639 315.525 64.3419C315.525 58.5199 320.267 53.7848 326.082 53.7848C331.904 53.7848 336.639 58.5199 336.639 64.3419ZM334.297 64.3419C334.297 59.813 330.611 56.1274 326.082 56.1274C321.553 56.1274 317.868 59.813 317.868 64.3419C317.868 68.8708 321.553 72.5564 326.082 72.5564C330.611 72.5564 334.297 68.8708 334.297 64.3419ZM308.635 57.3018C308.023 57.1019 307.361 57.433 307.148 58.0451C306.474 60.0691 306.136 62.1868 306.136 64.3419C306.136 64.9916 306.661 65.5163 307.311 65.5163C307.954 65.5163 308.485 64.9916 308.485 64.3419C308.485 62.4429 308.785 60.5688 309.378 58.7823C309.585 58.1701 309.247 57.5017 308.635 57.3018ZM327.257 45.5703C327.257 44.9206 326.732 44.3959 326.082 44.3959C319.273 44.3959 313.001 47.8192 309.303 53.5537C308.954 54.0972 309.11 54.8218 309.653 55.1716C309.853 55.3028 310.072 55.359 310.29 55.359C310.678 55.359 311.052 55.1716 311.277 54.8218C314.538 49.7619 320.073 46.7385 326.082 46.7385C326.726 46.7447 327.257 46.22 327.257 45.5703ZM326.082 16.2416C325.439 16.2416 324.908 16.7664 324.908 17.416V36.1876C324.908 36.8373 325.433 37.362 326.082 37.362C326.726 37.362 327.257 36.8373 327.257 36.1876V17.416C327.257 16.7664 326.726 16.2416 326.082 16.2416ZM116.815 323.696V342.511C116.815 344.492 115.266 346.041 113.298 346.041H109.781V351.919C109.781 353.862 108.201 355.448 106.264 355.448H77.9412C76.1108 355.448 74.5679 354.018 74.4305 352.188L73.5122 339.906C73.3748 338.076 71.8318 336.639 70.0015 336.639H67.4528C65.6225 336.639 64.0733 338.076 63.9421 339.906L63.0238 352.188C62.8864 354.018 61.3434 355.448 59.5131 355.448H31.1715C29.2287 355.448 27.6545 353.868 27.6545 351.919V346.041H24.1376C22.1636 346.041 20.6206 344.492 20.6206 342.511V323.696C20.6206 321.716 22.1698 320.167 24.1376 320.167H27.6545V318.992C27.6545 317.049 29.235 315.463 31.1715 315.463H106.258C108.201 315.463 109.775 317.043 109.775 318.992V320.167H113.292C115.266 320.167 116.815 321.716 116.815 323.696ZM27.6545 322.515H24.1376C23.4692 322.515 22.9632 323.021 22.9632 323.69V342.505C22.9632 343.173 23.4692 343.679 24.1376 343.679H27.6545V322.515ZM107.432 318.992C107.432 318.342 106.908 317.818 106.258 317.818H31.1715C30.528 317.818 29.9971 318.349 29.9971 318.992V351.919C29.9971 352.569 30.5218 353.093 31.1715 353.093H59.4944C60.1066 353.093 60.6188 352.619 60.6625 352.006L61.5808 339.725C61.812 336.671 64.3794 334.278 67.4341 334.278H69.9827C73.0374 334.278 75.6111 336.671 75.836 339.725L76.7543 352.006C76.798 352.612 77.3102 353.093 77.9224 353.093H106.245C106.889 353.093 107.42 352.562 107.42 351.919V318.992H107.432ZM114.466 323.696C114.466 323.028 113.96 322.522 113.292 322.522H109.775V343.686H113.292C113.96 343.686 114.466 343.18 114.466 342.511V323.696ZM66.3346 137.179C66.0473 136.598 65.3414 136.367 64.7604 136.655L55.3778 141.346C54.7968 141.64 54.5719 142.339 54.853 142.92C55.1841 143.601 56.0212 143.682 56.4272 143.445L65.8099 138.754C66.3908 138.46 66.622 137.76 66.3346 137.179ZM64.3232 132.457L70.5012 129.371C71.0822 129.084 71.3196 128.378 71.026 127.797C70.7324 127.216 70.0202 126.985 69.4518 127.272L63.2675 130.358C62.6865 130.645 62.4429 131.357 62.7427 131.932C63.0801 132.551 63.7547 132.719 64.3232 132.457ZM51.7359 138.754L60.1316 134.556C60.7125 134.262 60.9436 133.563 60.6563 132.982C60.3627 132.401 59.6631 132.163 59.0821 132.457L50.6864 136.655C50.1055 136.948 49.8806 137.642 50.1617 138.229C50.4241 138.785 51.0862 139.041 51.7359 138.754ZM69.4518 141.346L63.2675 144.432C62.6865 144.719 62.4429 145.431 62.7427 146.006C63.0738 146.625 63.7485 146.793 64.3169 146.531L70.495 143.445C71.0759 143.158 71.3133 142.452 71.0197 141.871C70.7324 141.296 70.0202 141.065 69.4518 141.346ZM51.7296 152.834L60.1253 148.636C60.7063 148.342 60.9374 147.643 60.6501 147.062C60.3564 146.481 59.6568 146.244 59.0759 146.537L50.6802 150.735C50.0992 151.029 49.8743 151.722 50.1555 152.309C50.4241 152.865 51.0862 153.121 51.7296 152.834ZM108.613 165.427C108.85 166.027 108.563 166.72 107.957 166.952C107.332 167.195 106.67 166.889 106.433 166.296L97.0501 142.833L89.8163 131.838H85.2374V136.53H87.0677C87.6112 136.53 88.0859 136.905 88.2109 137.436L92.6711 156.532C92.7148 156.694 92.7148 156.863 92.6773 157.032C92.1838 159.487 89.4477 171.724 84.0693 171.724C83.7632 171.724 83.4696 171.605 83.2509 171.387L72.3565 160.755L69.6454 162.941L87.5799 189.234L108.301 207.2C108.788 207.624 108.838 208.368 108.413 208.855C107.895 209.449 107.145 209.299 106.758 208.974L85.9183 190.908C85.8433 190.839 85.7746 190.764 85.7184 190.677L82.3514 185.736C82.1452 185.773 81.9391 185.792 81.7205 185.792H39.4734C39.2548 185.792 39.0487 185.767 38.8425 185.729L35.4693 190.671C35.413 190.758 35.3443 190.833 35.2631 190.902L14.4301 208.967C14.0678 209.342 13.2244 209.392 12.7747 208.849C12.3624 208.349 12.4061 207.618 12.8934 207.193L33.614 189.228L51.5485 162.935L48.8374 160.749L37.9492 171.381C37.7306 171.593 37.437 171.718 37.1309 171.718C31.7524 171.718 29.0163 159.48 28.5228 157.025C28.4916 156.863 28.4916 156.688 28.5291 156.526L32.983 137.429C33.108 136.898 33.5827 136.524 34.1262 136.524H35.9565V131.832H31.3776L24.0314 143.033L14.7549 166.289C14.555 166.833 13.8804 167.195 13.2307 166.945C12.6248 166.708 12.3374 166.021 12.5748 165.421L21.9575 141.958L29.7597 130.021C29.9783 129.69 30.3469 129.49 30.7404 129.49H35.9503V116.584C35.9503 114.61 37.4995 113.067 39.4672 113.067H81.7017C83.6757 113.067 85.2187 114.616 85.2187 116.584V129.49H90.4285C90.822 129.49 91.1968 129.69 91.4092 130.021L99.1053 141.752L108.613 165.427ZM35.9565 138.879H35.057L30.8716 156.819C31.7836 161.173 33.8326 167.12 35.9565 168.869V138.879ZM75.9797 176.416H45.208L40.4042 183.456H80.7834L75.9797 176.416ZM78.191 120.107H42.9966V163.191L47.9503 158.356C48.3689 157.944 49.0435 157.906 49.5058 158.281L53.8723 161.798C54.347 162.185 54.447 162.866 54.1034 163.372L46.8072 174.067H74.3805L67.0842 163.372C66.7407 162.866 66.8406 162.185 67.3154 161.798L71.6756 158.281C72.1379 157.906 72.8001 157.938 73.2311 158.35L78.191 163.185V120.107ZM82.8824 116.584C82.8824 115.915 82.3764 115.409 81.708 115.409H39.4734C38.805 115.409 38.299 115.915 38.299 116.584V167.764L40.6478 165.477V118.933C40.6478 118.283 41.1726 117.758 41.8222 117.758H79.3654C80.0088 117.758 80.5398 118.283 80.5398 118.933V165.477L82.8886 167.764V116.584H82.8824ZM85.2312 138.879V168.869C87.3551 167.12 89.4103 161.18 90.316 156.819L86.1244 138.879H85.2312ZM46.5136 181.113H51.2049C51.8546 181.113 52.3793 180.588 52.3793 179.939C52.3793 179.289 51.8546 178.764 51.2049 178.764H46.5136C45.8639 178.764 45.3392 179.289 45.3392 179.939C45.3392 180.588 45.8639 181.113 46.5136 181.113ZM55.9025 181.113H65.2852C65.9286 181.113 66.4596 180.588 66.4596 179.939C66.4596 179.289 65.9348 178.764 65.2852 178.764H55.9025C55.2528 178.764 54.7281 179.289 54.7281 179.939C54.7281 180.588 55.2528 181.113 55.9025 181.113ZM69.9765 181.113H74.6678C75.3113 181.113 75.8422 180.588 75.8422 179.939C75.8422 179.289 75.3175 178.764 74.6678 178.764H69.9765C69.3331 178.764 68.8021 179.289 68.8021 179.939C68.8084 180.588 69.3331 181.113 69.9765 181.113ZM129.858 64.9353C129.858 64.2857 129.333 63.761 128.684 63.761C121.875 63.761 115.603 67.1842 111.905 72.9187C111.555 73.4622 111.699 74.2056 112.255 74.5367C112.992 74.9802 113.654 74.5367 113.873 74.1868C117.133 69.1269 122.668 66.1035 128.678 66.1035C129.333 66.1097 129.858 65.585 129.858 64.9353ZM176.484 82.9261C176.884 83.3759 176.884 84.0505 176.478 84.494C176.478 84.494 174.898 86.2681 172.08 88.8418V90.4785C171.899 105.964 165.103 115.784 159.437 121.294C152.853 127.703 143.982 131.807 136.592 131.807C132.788 131.807 130.077 130.477 128.684 128.59C127.297 130.477 124.586 131.807 120.775 131.807C113.385 131.807 104.515 127.703 97.9246 121.294C92.2588 115.778 85.4685 105.958 85.2811 90.4785V88.8418C82.4638 86.2681 80.8834 84.494 80.8834 84.494C80.4773 84.0505 80.4774 83.3759 80.8772 82.9261C80.8772 82.9261 82.7762 80.771 86.1432 77.76C87.6487 67.1717 91.0844 58.2138 96.3942 51.005C100.355 45.6203 105.24 41.3912 110.524 38.7738C117.034 35.4193 123.849 34.6384 127.478 36.8498C127.947 37.1371 128.346 37.4745 128.684 37.8493C129.021 37.4745 129.415 37.1371 129.889 36.8498C133.513 34.6384 140.328 35.4193 146.843 38.7738C152.122 41.3912 157.013 45.6203 160.973 51.005C166.283 58.2138 169.719 67.1717 171.224 77.76C174.585 80.7647 176.484 82.9261 176.484 82.9261ZM159.599 53.1539C156.388 54.6594 154.439 58.2638 154.702 62.0868C157.094 61.0249 159.83 61.0936 162.185 62.4054C162.754 62.7177 162.96 63.4361 162.641 63.9983C162.323 64.5668 161.617 64.7667 161.048 64.4543C158.924 63.2737 156.463 63.4361 154.483 64.8854C154.189 65.104 153.933 65.3414 153.69 65.5913C159.593 68.6147 164.622 72.2253 168.438 75.3675C166.895 66.7782 163.941 59.307 159.599 53.1539ZM129.846 59.1008C131.389 59.1383 132.913 59.2508 134.412 59.4382C134.731 57.1206 135.768 55.0092 137.423 53.3975C137.879 52.9478 138.629 52.9603 139.085 53.4225C139.534 53.8848 139.528 54.6282 139.06 55.0842C137.779 56.3335 136.973 57.9764 136.73 59.788C142.014 60.7 146.974 62.4116 151.485 64.5293C151.791 64.1608 152.128 63.8109 152.503 63.4861C151.647 58.4387 154.015 53.4413 158.187 51.2486C153.871 45.7702 149.361 42.7218 146.131 41.0664C143.707 41.4599 141.908 43.8275 141.896 46.5948C143.364 46.7572 144.732 47.4194 145.862 48.5001C146.331 48.9498 146.35 49.6869 145.9 50.1617C145.456 50.624 144.713 50.6489 144.238 50.1992C143.27 49.2747 142.046 48.8186 140.796 48.9186C139.503 49.0123 138.323 49.6807 137.467 50.7864C137.236 51.0862 136.605 51.536 135.824 50.9988C135.318 50.6489 135.218 49.8619 135.611 49.3559C136.642 48.0191 138.017 47.132 139.547 46.7634C139.503 43.7962 140.971 41.1288 143.214 39.7233C137.667 37.4745 133.163 37.6244 131.095 38.88C130.245 39.3985 129.833 40.0669 129.833 40.9289V59.1008H129.846ZM99.174 51.2361C103.347 53.4288 105.714 58.4262 104.859 63.4736C105.233 63.7984 105.571 64.1483 105.877 64.5168C110.387 62.4054 115.347 60.6875 120.632 59.7755C120.388 57.9639 119.582 56.321 118.302 55.0717C117.839 54.6219 117.827 53.8785 118.277 53.41C118.726 52.9478 119.482 52.9353 119.938 53.385C121.594 54.9967 122.637 57.1081 122.949 59.4257C124.448 59.2383 125.973 59.1258 127.516 59.0884V40.9102C127.516 40.0481 127.103 39.3797 126.254 38.8613C124.186 37.6057 119.676 37.4557 114.135 39.7046C116.384 41.1101 117.852 43.7775 117.802 46.7447C119.332 47.1133 120.707 48.0066 121.737 49.3371C122.131 49.8494 122.031 50.6365 121.525 50.98C120.744 51.5235 120.113 51.0675 119.882 50.7676C119.026 49.662 117.846 48.9935 116.553 48.8998C115.303 48.7999 114.079 49.2622 113.111 50.1804C112.636 50.6302 111.899 50.6115 111.449 50.143C110.999 49.6744 111.018 48.9311 111.486 48.4813C112.617 47.4006 113.985 46.7385 115.453 46.576C115.447 43.8025 113.648 41.4412 111.218 41.0476C108.001 42.7093 103.484 45.7577 99.174 51.2361ZM88.9293 75.3737C92.746 72.2316 97.7747 68.621 103.678 65.5975C103.434 65.3476 103.172 65.1103 102.885 64.8916C100.904 63.4424 98.4494 63.2862 96.3192 64.4606C95.7507 64.7729 95.0386 64.573 94.7263 64.0046C94.4139 63.4361 94.6201 62.724 95.1823 62.4116C97.5373 61.1061 100.273 61.0311 102.666 62.0931C102.928 58.2638 100.979 54.6594 97.7685 53.1602C93.4269 59.307 90.4722 66.7782 88.9293 75.3737ZM114.173 103.597C108.038 99.1115 104.046 91.8652 104.046 83.7069C104.046 75.5549 108.032 68.3211 114.148 63.8297C98.1433 69.3831 88.1609 79.1655 83.3696 83.7007C87.6861 87.7674 97.0376 97.6872 114.173 103.597ZM113.011 128.065C110.862 125.723 109.531 122.481 109.531 118.901C109.531 113.417 112.661 108.738 117.059 106.87C104.54 103.765 94.0579 96.3692 87.6549 90.9282C87.8111 98.3681 89.5727 104.403 91.9777 109.206C93.5394 109.775 95.226 109.681 96.7252 108.931C98.4369 108.076 99.8486 106.239 100.442 104.234C99.049 103.953 97.6123 104.178 96.3317 104.89C95.7695 105.202 95.0511 105.002 94.7388 104.434C94.4202 103.865 94.6263 103.153 95.1948 102.841C97.275 101.679 99.6612 101.454 101.891 102.185C104.271 102.972 106.27 104.827 107.376 107.27C107.645 107.863 107.376 108.55 106.789 108.825C106.277 109.063 105.539 108.9 105.233 108.238C104.627 106.908 103.722 105.839 102.603 105.121C101.816 107.738 100.061 109.887 97.7747 111.03C96.5878 111.624 95.2135 112.017 93.4457 111.899C95.3759 115.103 97.5498 117.652 99.5675 119.62C103.99 123.924 108.782 126.604 113.011 128.065ZM127.516 108.307C125.76 108.263 124.03 108.119 122.331 107.882C122 110.387 120.982 112.686 119.282 114.572C119.001 114.885 118.264 115.216 117.627 114.647C117.146 114.216 117.115 113.467 117.552 112.992C118.726 111.705 119.501 110.168 119.863 108.469C115.347 109.231 111.874 113.61 111.874 118.895C111.874 124.655 115.997 129.346 121.1 129.446C123.262 129.352 127.522 128.703 127.522 124.855V108.307H127.516ZM150.947 83.7069C150.947 71.4133 140.977 61.4434 128.684 61.4434C116.39 61.4434 106.42 71.4133 106.42 83.7069C106.42 96.0006 116.39 105.97 128.684 105.97C140.977 105.97 150.947 96.0006 150.947 83.7069ZM145.494 118.901C145.494 113.617 142.021 109.238 137.504 108.475C137.867 110.175 138.641 111.711 139.816 112.998C140.253 113.479 140.222 114.222 139.741 114.654C139.103 115.222 138.366 114.891 138.085 114.579C136.38 112.692 135.362 110.393 135.037 107.888C133.338 108.126 131.607 108.269 129.852 108.313V124.861C129.852 128.703 134.112 129.358 136.274 129.452C141.371 129.352 145.494 124.661 145.494 118.901ZM169.719 90.9282C163.316 96.3754 152.834 103.765 140.315 106.87C144.707 108.738 147.843 113.417 147.843 118.901C147.843 122.481 146.512 125.723 144.363 128.065C148.592 126.604 153.384 123.924 157.806 119.613C159.824 117.646 161.998 115.097 163.928 111.892C162.16 112.017 160.786 111.618 159.599 111.024C157.319 109.881 155.557 107.732 154.77 105.115C153.652 105.833 152.753 106.901 152.14 108.232C151.834 108.894 151.097 109.056 150.585 108.819C149.998 108.544 149.735 107.857 149.998 107.264C151.104 104.821 153.102 102.966 155.483 102.179C157.719 101.448 160.099 101.673 162.179 102.835C162.748 103.147 162.947 103.865 162.635 104.428C162.323 104.996 161.604 105.19 161.042 104.884C159.762 104.171 158.325 103.947 156.932 104.228C157.531 106.227 158.943 108.069 160.649 108.925C162.148 109.675 163.834 109.769 165.396 109.2C167.795 104.396 169.563 98.3681 169.719 90.9282ZM173.998 83.7007C169.207 79.1655 159.224 69.3831 143.22 63.8297C149.336 68.3149 153.321 75.5549 153.321 83.7069C153.321 91.8715 149.329 99.1115 143.195 103.597C160.33 97.6872 169.681 87.7674 173.998 83.7007ZM139.241 83.7069C139.241 89.5289 134.506 94.264 128.684 94.264C122.862 94.264 118.127 89.5289 118.127 83.7069C118.127 77.8849 122.862 73.1499 128.684 73.1499C134.506 73.1499 139.241 77.8849 139.241 83.7069ZM136.898 83.7069C136.898 79.178 133.213 75.4924 128.684 75.4924C124.155 75.4924 120.469 79.178 120.469 83.7069C120.469 88.2359 124.155 91.9215 128.684 91.9215C133.213 91.9152 136.898 88.2359 136.898 83.7069ZM111.237 76.6668C110.624 76.4669 109.962 76.798 109.75 77.4102C109.075 79.4404 108.732 81.558 108.738 83.7132C108.738 84.3566 109.263 84.8813 109.912 84.8813C110.556 84.8813 111.08 84.3566 111.08 83.7069C111.08 81.8079 111.38 79.9401 111.974 78.1535C112.186 77.5351 111.855 76.873 111.237 76.6668ZM337.326 351.069C337.326 356.923 332.56 361.689 326.707 361.689C320.854 361.689 316.087 356.923 316.087 351.069C316.087 345.216 320.854 340.45 326.707 340.45C332.56 340.45 337.326 345.21 337.326 351.069ZM334.965 351.069C334.965 346.516 331.261 342.811 326.707 342.811C322.153 342.811 318.449 346.516 318.449 351.069C318.449 355.623 322.153 359.328 326.707 359.328C331.261 359.328 334.965 355.623 334.965 351.069ZM62.4679 376.681C62.4679 382.534 57.7016 387.301 51.8483 387.301C45.9951 387.301 41.2288 382.534 41.2288 376.681C41.2288 370.828 45.9951 366.062 51.8483 366.062C57.7016 366.062 62.4679 370.822 62.4679 376.681ZM60.1066 376.681C60.1066 372.127 56.4022 368.423 51.8483 368.423C47.2944 368.423 43.5901 372.127 43.5901 376.681C43.5901 381.235 47.2944 384.939 51.8483 384.939C56.4022 384.939 60.1066 381.235 60.1066 376.681ZM74.9614 94.3265C74.9614 100.18 70.1951 104.946 64.3419 104.946C58.4887 104.946 53.7224 100.18 53.7224 94.3265C53.7224 88.4732 58.4887 83.7069 64.3419 83.7069C70.1951 83.7069 74.9614 88.467 74.9614 94.3265ZM72.6002 94.3265C72.6002 89.7726 68.8958 86.0682 64.3419 86.0682C59.788 86.0682 56.0836 89.7726 56.0836 94.3265C56.0836 98.8804 59.788 102.585 64.3419 102.585C68.8958 102.585 72.6002 98.8804 72.6002 94.3265ZM201.771 59.3445C201.771 65.1977 197.005 69.964 191.152 69.964C185.298 69.964 180.532 65.1977 180.532 59.3445C180.532 53.4912 185.298 48.7249 191.152 48.7249C197.005 48.7249 201.771 53.485 201.771 59.3445ZM199.41 59.3445C199.41 54.7906 195.706 51.0862 191.152 51.0862C186.598 51.0862 182.893 54.7906 182.893 59.3445C182.893 63.8984 186.598 67.6027 191.152 67.6027C195.706 67.6027 199.41 63.8984 199.41 59.3445ZM401.668 426.031C401.668 431.884 396.902 436.65 391.049 436.65C385.196 436.65 380.429 431.884 380.429 426.031C380.429 420.178 385.196 415.411 391.049 415.411C396.902 415.411 401.668 420.171 401.668 426.031ZM399.307 426.031C399.307 421.477 395.603 417.773 391.049 417.773C386.495 417.773 382.791 421.477 382.791 426.031C382.791 430.585 386.495 434.289 391.049 434.289C395.603 434.289 399.307 430.585 399.307 426.031ZM384.177 241.126C384.177 246.979 379.411 251.745 373.558 251.745C367.705 251.745 362.938 246.979 362.938 241.126C362.938 235.273 367.705 230.506 373.558 230.506C379.411 230.506 384.177 235.266 384.177 241.126ZM381.816 241.126C381.816 236.572 378.112 232.868 373.558 232.868C369.004 232.868 365.3 236.572 365.3 241.126C365.3 245.68 369.004 249.384 373.558 249.384C378.112 249.384 381.816 245.68 381.816 241.126ZM379.805 286.728C379.805 292.581 375.038 297.347 369.185 297.347C363.332 297.347 358.566 292.581 358.566 286.728C358.566 280.874 363.332 276.108 369.185 276.108C375.038 276.108 379.805 280.868 379.805 286.728ZM377.443 286.728C377.443 282.174 373.739 278.469 369.185 278.469C364.631 278.469 360.927 282.174 360.927 286.728C360.927 291.281 364.631 294.986 369.185 294.986C373.739 294.986 377.443 291.281 377.443 286.728ZM262.365 174.91C262.365 180.763 257.599 185.53 251.745 185.53C245.892 185.53 241.126 180.763 241.126 174.91C241.126 169.057 245.892 164.29 251.745 164.29C257.599 164.29 262.365 169.051 262.365 174.91ZM260.004 174.91C260.004 170.356 256.299 166.652 251.745 166.652C247.192 166.652 243.487 170.356 243.487 174.91C243.487 179.464 247.192 183.168 251.745 183.168C256.299 183.168 260.004 179.464 260.004 174.91ZM183.031 20.6144C183.031 26.4676 178.265 31.2339 172.411 31.2339C166.558 31.2339 161.792 26.4676 161.792 20.6144C161.792 14.7612 166.558 9.99486 172.411 9.99486C178.265 9.99486 183.031 14.7549 183.031 20.6144ZM180.67 20.6144C180.67 16.0605 176.965 12.3561 172.411 12.3561C167.857 12.3561 164.153 16.0605 164.153 20.6144C164.153 25.1683 167.857 28.8726 172.411 28.8726C176.965 28.8726 180.67 25.1683 180.67 20.6144ZM292.35 12.4936C292.35 18.3468 287.583 23.1131 281.73 23.1131C275.877 23.1131 271.111 18.3468 271.111 12.4936C271.111 6.64033 275.877 1.87404 281.73 1.87404C287.583 1.87404 292.35 6.63409 292.35 12.4936ZM289.988 12.4936C289.988 7.93967 286.284 4.23532 281.73 4.23532C277.176 4.23532 273.472 7.93967 273.472 12.4936C273.472 17.0475 277.176 20.7518 281.73 20.7518C286.284 20.7518 289.988 17.0475 289.988 12.4936ZM197.398 123.686C197.398 129.54 192.632 134.306 186.779 134.306C180.926 134.306 176.159 129.54 176.159 123.686C176.159 117.833 180.926 113.067 186.779 113.067C192.632 113.067 197.398 117.827 197.398 123.686ZM195.037 123.686C195.037 119.132 191.333 115.428 186.779 115.428C182.225 115.428 178.521 119.132 178.521 123.686C178.521 128.24 182.225 131.945 186.779 131.945C191.333 131.945 195.037 128.24 195.037 123.686ZM446.021 108.694C446.021 114.547 441.254 119.314 435.401 119.314C429.548 119.314 424.781 114.547 424.781 108.694C424.781 102.841 429.548 98.0746 435.401 98.0746C441.254 98.0746 446.021 102.835 446.021 108.694ZM443.659 108.694C443.659 104.14 439.955 100.436 435.401 100.436C430.847 100.436 427.143 104.14 427.143 108.694C427.143 113.248 430.847 116.952 435.401 116.952C439.955 116.952 443.659 113.248 443.659 108.694ZM409.789 68.09C409.789 73.9432 405.023 78.7095 399.17 78.7095C393.316 78.7095 388.55 73.9432 388.55 68.09C388.55 62.2367 393.316 57.4704 399.17 57.4704C405.023 57.4704 409.789 62.2305 409.789 68.09ZM407.428 68.09C407.428 63.5361 403.724 59.8317 399.17 59.8317C394.616 59.8317 390.911 63.5361 390.911 68.09C390.911 72.6439 394.616 76.3482 399.17 76.3482C403.724 76.3482 407.428 72.6439 407.428 68.09ZM215.814 134.156C215.414 133.712 215.414 133.032 215.814 132.582C216.345 131.988 228.97 118.064 244.874 118.064C260.778 118.064 273.403 131.988 273.934 132.582C274.334 133.025 274.334 133.706 273.934 134.156C273.403 134.749 260.778 148.674 244.874 148.674C228.97 148.674 216.345 134.749 215.814 134.156ZM255.818 122.724C258.486 125.479 260.141 129.234 260.141 133.369C260.141 137.504 258.492 141.259 255.818 144.013C263.514 140.871 269.411 135.399 271.429 133.369C269.411 131.339 263.514 125.867 255.818 122.724ZM231.956 133.369C231.956 140.509 237.753 146.318 244.874 146.318C251.995 146.318 257.792 140.509 257.792 133.369C257.792 126.229 252.002 120.419 244.874 120.419C237.746 120.419 231.956 126.229 231.956 133.369ZM218.319 133.369C220.337 135.399 226.234 140.871 233.93 144.013C231.262 141.259 229.607 137.504 229.607 133.369C229.607 129.234 231.256 125.479 233.93 122.724C226.234 125.867 220.337 131.339 218.319 133.369ZM239.002 133.369C239.002 130.121 241.638 127.484 244.874 127.484C248.11 127.484 250.746 130.127 250.746 133.369C250.746 136.611 248.11 139.253 244.874 139.253C241.638 139.253 239.002 136.617 239.002 133.369ZM241.351 133.369C241.351 135.312 242.931 136.898 244.874 136.898C246.817 136.898 248.397 135.312 248.397 133.369C248.397 131.426 246.817 129.839 244.874 129.839C242.931 129.839 241.351 131.426 241.351 133.369ZM471.632 193.963C471.632 190.689 474.294 188.028 477.567 188.028C480.84 188.028 483.501 190.689 483.501 193.963C483.501 197.236 480.84 199.897 477.567 199.897C474.294 199.897 471.632 197.236 471.632 193.963ZM474.006 193.963C474.006 195.924 475.605 197.523 477.567 197.523C479.528 197.523 481.128 195.924 481.128 193.963C481.128 192.001 479.528 190.402 477.567 190.402C475.605 190.402 474.006 192.001 474.006 193.963ZM219.887 223.947C219.887 220.674 222.548 218.013 225.821 218.013C229.095 218.013 231.756 220.674 231.756 223.947C231.756 227.221 229.095 229.882 225.821 229.882C222.548 229.882 219.887 227.221 219.887 223.947ZM222.261 223.947C222.261 225.909 223.86 227.508 225.821 227.508C227.783 227.508 229.382 225.909 229.382 223.947C229.382 221.986 227.783 220.387 225.821 220.387C223.86 220.387 222.261 221.986 222.261 223.947ZM203.564 302.969C203.564 299.696 206.225 297.035 209.498 297.035C212.772 297.035 215.433 299.696 215.433 302.969C215.433 306.242 212.772 308.904 209.498 308.904C206.225 308.904 203.564 306.242 203.564 302.969ZM205.938 302.969C205.938 304.931 207.537 306.53 209.498 306.53C211.46 306.53 213.059 304.931 213.059 302.969C213.059 301.008 211.46 299.408 209.498 299.408C207.531 299.408 205.938 301.008 205.938 302.969ZM377.625 208.493C377.625 205.219 380.286 202.558 383.559 202.558C386.832 202.558 389.493 205.219 389.493 208.493C389.493 211.766 386.832 214.427 383.559 214.427C380.286 214.427 377.625 211.766 377.625 208.493ZM379.998 208.493C379.998 210.454 381.597 212.053 383.559 212.053C385.52 212.053 387.12 210.454 387.12 208.493C387.12 206.531 385.52 204.932 383.559 204.932C381.597 204.932 379.998 206.531 379.998 208.493ZM101.823 231.443C101.823 228.17 104.484 225.509 107.757 225.509C111.03 225.509 113.692 228.17 113.692 231.443C113.692 234.717 111.03 237.378 107.757 237.378C104.484 237.378 101.823 234.717 101.823 231.443ZM104.196 231.443C104.196 233.405 105.796 235.004 107.757 235.004C109.719 235.004 111.318 233.405 111.318 231.443C111.318 229.482 109.719 227.883 107.757 227.883C105.796 227.883 104.196 229.482 104.196 231.443ZM343.736 122.437C343.736 119.164 346.397 116.503 349.67 116.503C352.943 116.503 355.605 119.164 355.605 122.437C355.605 125.71 352.943 128.371 349.67 128.371C346.397 128.371 343.736 125.71 343.736 122.437ZM346.109 122.437C346.109 124.399 347.709 125.998 349.67 125.998C351.632 125.998 353.231 124.399 353.231 122.437C353.231 120.476 351.632 118.876 349.67 118.876C347.709 118.876 346.109 120.476 346.109 122.437ZM244.249 102.135C244.249 98.8616 246.91 96.2005 250.184 96.2005C253.457 96.2005 256.118 98.8616 256.118 102.135C256.118 105.408 253.457 108.069 250.184 108.069C246.91 108.069 244.249 105.408 244.249 102.135ZM246.623 102.135C246.623 104.096 248.222 105.696 250.184 105.696C252.145 105.696 253.744 104.096 253.744 102.135C253.744 100.173 252.145 98.5743 250.184 98.5743C248.222 98.5743 246.623 100.173 246.623 102.135ZM462.262 325.77C462.262 322.497 464.923 319.835 468.197 319.835C471.47 319.835 474.131 322.497 474.131 325.77C474.131 329.043 471.47 331.704 468.197 331.704C464.923 331.704 462.262 329.043 462.262 325.77ZM464.636 325.77C464.636 327.731 466.235 329.331 468.197 329.331C470.158 329.331 471.757 327.731 471.757 325.77C471.757 323.808 470.158 322.209 468.197 322.209C466.235 322.209 464.636 323.808 464.636 325.77ZM7.49614 305.78C7.49614 302.507 10.1573 299.846 13.4306 299.846C16.7039 299.846 19.365 302.507 19.365 305.78C19.365 309.054 16.7039 311.715 13.4306 311.715C10.1573 311.715 7.49614 309.054 7.49614 305.78ZM9.86992 305.78C9.86992 307.742 11.4691 309.341 13.4306 309.341C15.3921 309.341 16.9913 307.742 16.9913 305.78C16.9913 303.819 15.3921 302.22 13.4306 302.22C11.4691 302.22 9.86992 303.819 9.86992 305.78ZM280.481 478.192C280.481 474.918 283.142 472.257 286.415 472.257C289.688 472.257 292.35 474.918 292.35 478.192C292.35 481.465 289.688 484.126 286.415 484.126C283.142 484.126 280.481 481.465 280.481 478.192ZM282.854 478.192C282.854 480.153 284.454 481.752 286.415 481.752C288.377 481.752 289.976 480.153 289.976 478.192C289.976 476.23 288.377 474.631 286.415 474.631C284.454 474.631 282.854 476.23 282.854 478.192ZM165.54 400.107C165.54 396.833 168.201 394.172 171.474 394.172C174.748 394.172 177.409 396.833 177.409 400.107C177.409 403.38 174.748 406.041 171.474 406.041C168.201 406.041 165.54 403.38 165.54 400.107ZM167.914 400.107C167.914 402.068 169.513 403.667 171.474 403.667C173.436 403.667 175.035 402.068 175.035 400.107C175.035 398.145 173.436 396.546 171.474 396.546C169.513 396.546 167.914 398.145 167.914 400.107ZM158.044 468.197C158.044 464.923 160.705 462.262 163.978 462.262C167.251 462.262 169.913 464.923 169.913 468.197C169.913 471.47 167.251 474.131 163.978 474.131C160.705 474.131 158.044 471.47 158.044 468.197ZM160.417 468.197C160.417 470.158 162.017 471.757 163.978 471.757C165.94 471.757 167.539 470.158 167.539 468.197C167.539 466.235 165.94 464.636 163.978 464.636C162.017 464.636 160.417 466.235 160.417 468.197ZM96.2005 300.158C96.2005 296.885 98.8616 294.224 102.135 294.224C105.408 294.224 108.069 296.885 108.069 300.158C108.069 303.431 105.408 306.093 102.135 306.093C98.8616 306.093 96.2005 303.431 96.2005 300.158ZM98.5743 300.158C98.5743 302.12 100.173 303.719 102.135 303.719C104.096 303.719 105.696 302.12 105.696 300.158C105.696 298.197 104.096 296.597 102.135 296.597C100.173 296.597 98.5743 298.197 98.5743 300.158Z" fill="url(#paint0_linear_389_84339)"/>
<defs>
<linearGradient id="paint0_linear_389_84339" x1="-189.398" y1="290.913" x2="352.186" y2="303.89" gradientUnits="userSpaceOnUse">
<stop stop-color="#3069FE"/>
<stop offset="1" stop-color="#1BF1D8"/>
</linearGradient>
</defs>
</svg>
