<svg width="301" height="87" viewBox="0 0 301 87" fill="none" xmlns="http://www.w3.org/2000/svg">
<path d="M24.895 1.72168H34.6289V34.1094H28.3228V12.2026C28.3228 11.5728 28.3301 10.6938 28.3447 9.56592C28.3594 8.42334 28.3667 7.54443 28.3667 6.9292L22.2363 34.1094H15.6665L9.58008 6.9292C9.58008 7.54443 9.5874 8.42334 9.60205 9.56592C9.6167 10.6938 9.62402 11.5728 9.62402 12.2026V34.1094H3.31787V1.72168H13.1616L19.0503 27.188L24.895 1.72168ZM55.2393 29.2754C57.9199 29.2754 60.0439 28.2866 61.6113 26.3091C63.1934 24.3315 63.9844 21.519 63.9844 17.8716C63.9844 14.2388 63.1934 11.4336 61.6113 9.45605C60.0439 7.46387 57.9199 6.46777 55.2393 6.46777C52.5586 6.46777 50.4199 7.45654 48.8232 9.43408C47.2266 11.4116 46.4282 14.2241 46.4282 17.8716C46.4282 21.519 47.2266 24.3315 48.8232 26.3091C50.4199 28.2866 52.5586 29.2754 55.2393 29.2754ZM70.752 17.8716C70.752 23.687 69.1187 28.1401 65.8521 31.231C63.4058 33.7505 59.8682 35.0103 55.2393 35.0103C50.6104 35.0103 47.0728 33.7505 44.6265 31.231C41.3452 28.1401 39.7046 23.687 39.7046 17.8716C39.7046 11.939 41.3452 7.48584 44.6265 4.51221C47.0728 1.99268 50.6104 0.73291 55.2393 0.73291C59.8682 0.73291 63.4058 1.99268 65.8521 4.51221C69.1187 7.48584 70.752 11.939 70.752 17.8716ZM94.8999 1.72168H101.931L90.8789 34.1094H84.4849L73.5425 1.72168H80.7715L87.8027 26.3091L94.8999 1.72168ZM112.148 34.1094H105.425V1.72168H112.148V34.1094ZM118.367 1.72168H125.464L138.362 24.3315V1.72168H144.668V34.1094H137.9L124.673 11.104V34.1094H118.367V1.72168ZM172.771 11.8291C172.258 9.61719 171.006 8.07178 169.014 7.19287C167.9 6.70947 166.663 6.46777 165.3 6.46777C162.693 6.46777 160.547 7.45654 158.862 9.43408C157.192 11.397 156.357 14.356 156.357 18.311C156.357 22.2954 157.266 25.1152 159.082 26.7705C160.898 28.4258 162.964 29.2534 165.278 29.2534C167.549 29.2534 169.409 28.6016 170.859 27.2979C172.31 25.9795 173.203 24.2583 173.54 22.1343H166.047V16.729H179.539V34.1094H175.056L174.375 30.0664C173.071 31.6045 171.899 32.6885 170.859 33.3184C169.072 34.417 166.875 34.9663 164.268 34.9663C159.976 34.9663 156.46 33.4795 153.721 30.5059C150.864 27.5176 149.436 23.4307 149.436 18.2451C149.436 13.001 150.879 8.79688 153.765 5.63281C156.65 2.46875 160.466 0.886719 165.212 0.886719C169.329 0.886719 172.632 1.93408 175.122 4.02881C177.627 6.10889 179.062 8.70898 179.429 11.8291H172.771ZM204.741 34.1094H198.018V1.72168H204.741V34.1094ZM210.959 1.72168H218.057L230.955 24.3315V1.72168H237.261V34.1094H230.493L217.266 11.104V34.1094H210.959V1.72168ZM267.122 1.72168V7.45654H257.432V34.1094H250.62V7.45654H240.886V1.72168H267.122ZM284.634 29.2754C287.314 29.2754 289.438 28.2866 291.006 26.3091C292.588 24.3315 293.379 21.519 293.379 17.8716C293.379 14.2388 292.588 11.4336 291.006 9.45605C289.438 7.46387 287.314 6.46777 284.634 6.46777C281.953 6.46777 279.814 7.45654 278.218 9.43408C276.621 11.4116 275.823 14.2241 275.823 17.8716C275.823 21.519 276.621 24.3315 278.218 26.3091C279.814 28.2866 281.953 29.2754 284.634 29.2754ZM300.146 17.8716C300.146 23.687 298.513 28.1401 295.247 31.231C292.8 33.7505 289.263 35.0103 284.634 35.0103C280.005 35.0103 276.467 33.7505 274.021 31.231C270.74 28.1401 269.099 23.687 269.099 17.8716C269.099 11.939 270.74 7.48584 274.021 4.51221C276.467 1.99268 280.005 0.73291 284.634 0.73291C289.263 0.73291 292.8 1.99268 295.247 4.51221C298.513 7.48584 300.146 11.939 300.146 17.8716ZM7.84424 53.7217L12.1289 72.2666L13.0518 77.4302L13.9966 72.3765L17.644 53.7217H24.7852L28.6304 72.2666L29.6191 77.4302L30.6079 72.4644L34.9365 53.7217H41.814L32.6953 86.1094H26.2354L22.3242 67.1689L21.1816 60.9067L20.0391 67.1689L16.1279 86.1094H9.84375L0.65918 53.7217H7.84424ZM69.873 59.4565H52.7344V66.334H68.4668V71.959H52.7344V80.2866H70.6641V86.1094H46.1206V53.7217H69.873V59.4565ZM82.5073 59.3467V66.4878H90.4614C91.8823 66.4878 93.0322 66.2241 93.9111 65.6968C94.8047 65.1548 95.2515 64.2026 95.2515 62.8403C95.2515 61.3315 94.6655 60.3354 93.4937 59.8521C92.4829 59.5151 91.1938 59.3467 89.6265 59.3467H82.5073ZM82.5073 71.8491V80.4844H90.4614C91.8823 80.4844 92.9883 80.2939 93.7793 79.9131C95.2148 79.21 95.9326 77.8623 95.9326 75.8701C95.9326 74.1855 95.2368 73.0283 93.8452 72.3984C93.0688 72.0469 91.9775 71.8638 90.5713 71.8491H82.5073ZM91.7798 53.7217C95.7495 53.7803 98.562 54.9302 100.217 57.1714C101.213 58.5483 101.711 60.1963 101.711 62.1152C101.711 64.0928 101.213 65.6821 100.217 66.8833C99.6606 67.5571 98.8403 68.1724 97.7563 68.729C99.4116 69.3296 100.657 70.2817 101.492 71.5854C102.341 72.8892 102.766 74.4712 102.766 76.3315C102.766 78.2505 102.283 79.9717 101.316 81.4951C100.701 82.5059 99.9316 83.3555 99.0088 84.0439C97.9688 84.835 96.7383 85.377 95.3174 85.6699C93.9111 85.9629 92.3804 86.1094 90.7251 86.1094H76.0474V53.7217H91.7798ZM112.368 76.3315C112.368 77.606 112.573 78.6606 112.983 79.4956C113.745 81.0337 115.129 81.8027 117.136 81.8027C118.367 81.8027 119.436 81.3853 120.344 80.5503C121.267 79.7007 121.729 78.4849 121.729 76.9028C121.729 74.8081 120.879 73.4092 119.18 72.7061C118.213 72.3105 116.689 72.1128 114.609 72.1128V67.6304C116.646 67.6011 118.066 67.4033 118.872 67.0371C120.264 66.4219 120.959 65.1768 120.959 63.3018C120.959 62.0859 120.601 61.0972 119.883 60.3354C119.18 59.5737 118.184 59.1929 116.895 59.1929C115.415 59.1929 114.324 59.6616 113.621 60.5991C112.932 61.5366 112.603 62.7891 112.632 64.3564H106.787C106.846 62.7744 107.117 61.2729 107.6 59.8521C108.113 58.6069 108.918 57.457 110.017 56.4023C110.837 55.6553 111.812 55.084 112.939 54.6885C114.067 54.293 115.452 54.0952 117.092 54.0952C120.139 54.0952 122.593 54.8862 124.453 56.4683C126.328 58.0356 127.266 60.145 127.266 62.7964C127.266 64.6714 126.709 66.2534 125.596 67.5425C124.893 68.3481 124.16 68.8975 123.398 69.1904C123.97 69.1904 124.79 69.6812 125.859 70.6626C127.456 72.1421 128.254 74.1636 128.254 76.7271C128.254 79.4224 127.317 81.7954 125.442 83.8462C123.582 85.8823 120.82 86.9004 117.158 86.9004C112.646 86.9004 109.512 85.4282 107.754 82.4839C106.831 80.9165 106.318 78.8657 106.216 76.3315H112.368Z" fill="black"/>
</svg>
