<svg width="82" height="117" viewBox="0 0 82 117" fill="none" xmlns="http://www.w3.org/2000/svg">
<path d="M82.0001 76.2553V72.7674L64.1638 72.7674V76.2553H82.0001Z" fill="url(#paint0_linear_399_48336)"/>
<path d="M71.3341 83.4295H74.8249V65.5932H71.3341V83.4295Z" fill="url(#paint1_linear_399_48336)"/>
<path d="M82.0001 109.828V106.337L64.1638 106.337V109.828L82.0001 109.828Z" fill="url(#paint2_linear_399_48336)"/>
<path d="M71.3396 117H74.8304V99.1632H71.3396V117Z" fill="url(#paint3_linear_399_48336)"/>
<path d="M50.038 76.2553L50.038 72.7674L32.2047 72.7674V76.2553H50.038Z" fill="url(#paint4_linear_399_48336)"/>
<path d="M39.375 83.4295H42.8629L42.8628 65.5932L39.375 65.5932V83.4295Z" fill="url(#paint5_linear_399_48336)"/>
<path d="M50.038 109.828L50.038 106.337L32.2047 106.337V109.828L50.038 109.828Z" fill="url(#paint6_linear_399_48336)"/>
<path d="M39.375 117H42.8629L42.8628 99.1632L39.375 99.1632V117Z" fill="url(#paint7_linear_399_48336)"/>
<path d="M18.0902 76.2553V72.7674L0.253912 72.7674L0.253912 76.2553H18.0902Z" fill="url(#paint8_linear_399_48336)"/>
<path d="M7.42418 83.4295H10.9151L10.915 65.5932L7.42418 65.5932L7.42418 83.4295Z" fill="url(#paint9_linear_399_48336)"/>
<path d="M18.0902 109.828V106.337L0.253912 106.337L0.253912 109.828L18.0902 109.828Z" fill="url(#paint10_linear_399_48336)"/>
<path d="M7.4297 117H10.9206L10.9206 99.1632L7.4297 99.1632L7.4297 117Z" fill="url(#paint11_linear_399_48336)"/>
<path d="M82.0002 10.8731V7.3852L64.1639 7.3852V10.8731L82.0002 10.8731Z" fill="url(#paint12_linear_399_48336)"/>
<path d="M71.3397 18.0473L74.8306 18.0473V0.210944L71.3397 0.210944V18.0473Z" fill="url(#paint13_linear_399_48336)"/>
<path d="M82.0002 44.4465V40.9587H64.1639V44.4465H82.0002Z" fill="url(#paint14_linear_399_48336)"/>
<path d="M71.3397 51.6207H74.8306V33.7844H71.3397V51.6207Z" fill="url(#paint15_linear_399_48336)"/>
<path d="M50.038 10.8731L50.038 7.38519L32.2047 7.38519V10.8731L50.038 10.8731Z" fill="url(#paint16_linear_399_48336)"/>
<path d="M39.375 18.0473H42.8629L42.8628 0.210938L39.375 0.210938V18.0473Z" fill="url(#paint17_linear_399_48336)"/>
<path d="M50.038 44.4465L50.038 40.9586L32.2047 40.9586V44.4465H50.038Z" fill="url(#paint18_linear_399_48336)"/>
<path d="M39.375 51.6207H42.8629L42.8628 33.7844H39.375V51.6207Z" fill="url(#paint19_linear_399_48336)"/>
<path d="M18.0902 10.8731V7.38519L0.253923 7.38519L0.253924 10.8731L18.0902 10.8731Z" fill="url(#paint20_linear_399_48336)"/>
<path d="M7.42418 18.0473L10.9151 18.0473L10.9151 0.21094L7.42418 0.210941L7.42418 18.0473Z" fill="url(#paint21_linear_399_48336)"/>
<path d="M18.0902 44.4465V40.9586H0.253906L0.253907 44.4465L18.0902 44.4465Z" fill="url(#paint22_linear_399_48336)"/>
<path d="M7.4297 51.6207H10.9206L10.9206 33.7844H7.4297L7.4297 51.6207Z" fill="url(#paint23_linear_399_48336)"/>
<defs>
<linearGradient id="paint0_linear_399_48336" x1="-124.5" y1="13.5" x2="78.1321" y2="-14.1141" gradientUnits="userSpaceOnUse">
<stop stop-color="#3069FE"/>
<stop offset="1" stop-color="#1BF1D8"/>
</linearGradient>
<linearGradient id="paint1_linear_399_48336" x1="-124.5" y1="13.5" x2="78.1321" y2="-14.1141" gradientUnits="userSpaceOnUse">
<stop stop-color="#3069FE"/>
<stop offset="1" stop-color="#1BF1D8"/>
</linearGradient>
<linearGradient id="paint2_linear_399_48336" x1="-124.5" y1="13.5" x2="78.1321" y2="-14.1141" gradientUnits="userSpaceOnUse">
<stop stop-color="#3069FE"/>
<stop offset="1" stop-color="#1BF1D8"/>
</linearGradient>
<linearGradient id="paint3_linear_399_48336" x1="-124.5" y1="13.5" x2="78.1321" y2="-14.1141" gradientUnits="userSpaceOnUse">
<stop stop-color="#3069FE"/>
<stop offset="1" stop-color="#1BF1D8"/>
</linearGradient>
<linearGradient id="paint4_linear_399_48336" x1="-124.5" y1="13.5" x2="78.1321" y2="-14.1141" gradientUnits="userSpaceOnUse">
<stop stop-color="#3069FE"/>
<stop offset="1" stop-color="#1BF1D8"/>
</linearGradient>
<linearGradient id="paint5_linear_399_48336" x1="-124.5" y1="13.5" x2="78.1321" y2="-14.1141" gradientUnits="userSpaceOnUse">
<stop stop-color="#3069FE"/>
<stop offset="1" stop-color="#1BF1D8"/>
</linearGradient>
<linearGradient id="paint6_linear_399_48336" x1="-124.5" y1="13.5" x2="78.1321" y2="-14.1141" gradientUnits="userSpaceOnUse">
<stop stop-color="#3069FE"/>
<stop offset="1" stop-color="#1BF1D8"/>
</linearGradient>
<linearGradient id="paint7_linear_399_48336" x1="-124.5" y1="13.5" x2="78.1321" y2="-14.1141" gradientUnits="userSpaceOnUse">
<stop stop-color="#3069FE"/>
<stop offset="1" stop-color="#1BF1D8"/>
</linearGradient>
<linearGradient id="paint8_linear_399_48336" x1="-124.5" y1="13.5" x2="78.1321" y2="-14.1141" gradientUnits="userSpaceOnUse">
<stop stop-color="#3069FE"/>
<stop offset="1" stop-color="#1BF1D8"/>
</linearGradient>
<linearGradient id="paint9_linear_399_48336" x1="-124.5" y1="13.5" x2="78.1321" y2="-14.1141" gradientUnits="userSpaceOnUse">
<stop stop-color="#3069FE"/>
<stop offset="1" stop-color="#1BF1D8"/>
</linearGradient>
<linearGradient id="paint10_linear_399_48336" x1="-124.5" y1="13.5" x2="78.1321" y2="-14.1141" gradientUnits="userSpaceOnUse">
<stop stop-color="#3069FE"/>
<stop offset="1" stop-color="#1BF1D8"/>
</linearGradient>
<linearGradient id="paint11_linear_399_48336" x1="-124.5" y1="13.5" x2="78.1321" y2="-14.1141" gradientUnits="userSpaceOnUse">
<stop stop-color="#3069FE"/>
<stop offset="1" stop-color="#1BF1D8"/>
</linearGradient>
<linearGradient id="paint12_linear_399_48336" x1="-124.5" y1="13.5" x2="78.1321" y2="-14.1141" gradientUnits="userSpaceOnUse">
<stop stop-color="#3069FE"/>
<stop offset="1" stop-color="#1BF1D8"/>
</linearGradient>
<linearGradient id="paint13_linear_399_48336" x1="-124.5" y1="13.5" x2="78.1321" y2="-14.1141" gradientUnits="userSpaceOnUse">
<stop stop-color="#3069FE"/>
<stop offset="1" stop-color="#1BF1D8"/>
</linearGradient>
<linearGradient id="paint14_linear_399_48336" x1="-124.5" y1="13.5" x2="78.1321" y2="-14.1141" gradientUnits="userSpaceOnUse">
<stop stop-color="#3069FE"/>
<stop offset="1" stop-color="#1BF1D8"/>
</linearGradient>
<linearGradient id="paint15_linear_399_48336" x1="-124.5" y1="13.5" x2="78.1321" y2="-14.1141" gradientUnits="userSpaceOnUse">
<stop stop-color="#3069FE"/>
<stop offset="1" stop-color="#1BF1D8"/>
</linearGradient>
<linearGradient id="paint16_linear_399_48336" x1="-124.5" y1="13.5" x2="78.1321" y2="-14.1141" gradientUnits="userSpaceOnUse">
<stop stop-color="#3069FE"/>
<stop offset="1" stop-color="#1BF1D8"/>
</linearGradient>
<linearGradient id="paint17_linear_399_48336" x1="-124.5" y1="13.5" x2="78.1321" y2="-14.1141" gradientUnits="userSpaceOnUse">
<stop stop-color="#3069FE"/>
<stop offset="1" stop-color="#1BF1D8"/>
</linearGradient>
<linearGradient id="paint18_linear_399_48336" x1="-124.5" y1="13.5" x2="78.1321" y2="-14.1141" gradientUnits="userSpaceOnUse">
<stop stop-color="#3069FE"/>
<stop offset="1" stop-color="#1BF1D8"/>
</linearGradient>
<linearGradient id="paint19_linear_399_48336" x1="-124.5" y1="13.5" x2="78.1321" y2="-14.1141" gradientUnits="userSpaceOnUse">
<stop stop-color="#3069FE"/>
<stop offset="1" stop-color="#1BF1D8"/>
</linearGradient>
<linearGradient id="paint20_linear_399_48336" x1="-124.5" y1="13.5" x2="78.1321" y2="-14.1141" gradientUnits="userSpaceOnUse">
<stop stop-color="#3069FE"/>
<stop offset="1" stop-color="#1BF1D8"/>
</linearGradient>
<linearGradient id="paint21_linear_399_48336" x1="-124.5" y1="13.5" x2="78.1321" y2="-14.1141" gradientUnits="userSpaceOnUse">
<stop stop-color="#3069FE"/>
<stop offset="1" stop-color="#1BF1D8"/>
</linearGradient>
<linearGradient id="paint22_linear_399_48336" x1="-124.5" y1="13.5" x2="78.1321" y2="-14.1141" gradientUnits="userSpaceOnUse">
<stop stop-color="#3069FE"/>
<stop offset="1" stop-color="#1BF1D8"/>
</linearGradient>
<linearGradient id="paint23_linear_399_48336" x1="-124.5" y1="13.5" x2="78.1321" y2="-14.1141" gradientUnits="userSpaceOnUse">
<stop stop-color="#3069FE"/>
<stop offset="1" stop-color="#1BF1D8"/>
</linearGradient>
</defs>
</svg>
