<svg width="72" height="102" viewBox="0 0 72 102" fill="none" xmlns="http://www.w3.org/2000/svg">
<g opacity="0.4">
<path d="M0.00195313 35.5801L0.00195312 38.625H15.5762V35.5801H0.00195313Z" fill="#070720"/>
<path d="M9.31127 29.3125H6.2627V44.8868H9.31127V29.3125Z" fill="#070720"/>
<path d="M0 6.26393L0 9.3125L15.5743 9.3125V6.26393L0 6.26393Z" fill="#070720"/>
<path d="M9.31127 0H6.2627V15.5743H9.31127V0Z" fill="#070720"/>
<path d="M27.9072 35.5801V38.625H43.4778V35.5801H27.9072Z" fill="#070720"/>
<path d="M37.2158 29.3125H34.1709V44.8868H37.2158V29.3125Z" fill="#070720"/>
<path d="M27.9092 6.26391V9.3125L43.4798 9.3125V6.26391L27.9092 6.26391Z" fill="#070720"/>
<path d="M37.2158 0H34.1709V15.5743H37.2158V0Z" fill="#070720"/>
<path d="M55.8125 35.5801V38.625H71.3868V35.5801H55.8125Z" fill="#070720"/>
<path d="M65.1238 29.3125H62.0752V44.8868H65.1238V29.3125Z" fill="#070720"/>
<path d="M55.8105 6.26391V9.3125L71.3848 9.3125V6.26391L55.8105 6.26391Z" fill="#070720"/>
<path d="M65.1238 0H62.0752V15.5743H65.1238V0Z" fill="#070720"/>
<path d="M0.00195313 92.67L0.00195312 95.7148H15.5762V92.67H0.00195313Z" fill="#070720"/>
<path d="M9.31127 86.4062H6.2627V101.98H9.31127V86.4062Z" fill="#070720"/>
<path d="M0.00195313 63.3575L0.00195312 66.4023H15.5762V63.3575H0.00195313Z" fill="#070720"/>
<path d="M9.31029 57.0898H6.26172V72.6641H9.31029V57.0898Z" fill="#070720"/>
<path d="M27.9072 92.6699V95.7148H43.4778V92.6699H27.9072Z" fill="#070720"/>
<path d="M37.2158 86.4062H34.1709V101.98H37.2158V86.4062Z" fill="#070720"/>
<path d="M27.9072 63.3574V66.4023H43.4778V63.3574H27.9072Z" fill="#070720"/>
<path d="M37.2148 57.0898H34.1699V72.6641H37.2148V57.0898Z" fill="#070720"/>
<path d="M55.8125 92.6699V95.7148H71.3867V92.6699H55.8125Z" fill="#070720"/>
<path d="M65.1238 86.4062H62.0752V101.98H65.1238V86.4062Z" fill="#070720"/>
<path d="M55.8125 63.3574V66.4023H71.3867V63.3574H55.8125Z" fill="#070720"/>
<path d="M65.1238 57.0898H62.0752V72.6641H65.1238V57.0898Z" fill="#070720"/>
</g>
</svg>
