<svg width="317" height="139" viewBox="0 0 317 139" fill="none" xmlns="http://www.w3.org/2000/svg">
<path d="M24.9082 6.82373H7.76953V13.7012H23.502V19.3262H7.76953V27.6538H25.6992V33.4766H1.15576V1.08887H24.9082V6.82373ZM36.1362 33.4766H28.27L38.6851 16.9751L28.7754 1.08887H36.8613L42.6401 11.6138L48.5728 1.08887H56.395L46.4854 16.7114L57.0103 33.4766H48.7925L42.6401 22.4463L36.1362 33.4766ZM79.2246 11.394C79.2246 9.70947 78.7778 8.5083 77.8843 7.79053C77.0054 7.07275 75.7676 6.71387 74.1709 6.71387H67.8647V16.25H74.1709C75.7676 16.25 77.0054 15.8618 77.8843 15.0854C78.7778 14.3091 79.2246 13.0786 79.2246 11.394ZM85.9263 11.3501C85.9263 15.1733 84.9595 17.876 83.0259 19.458C81.0923 21.04 78.3311 21.8311 74.7422 21.8311H67.8647V33.4766H61.1411V1.08887H75.2476C78.4995 1.08887 81.0923 1.92383 83.0259 3.59375C84.9595 5.26367 85.9263 7.84912 85.9263 11.3501ZM114.952 6.82373H97.8135V13.7012H113.546V19.3262H97.8135V27.6538H115.743V33.4766H91.1997V1.08887H114.952V6.82373ZM127.784 6.71387V15.415H135.453C136.976 15.415 138.119 15.2393 138.88 14.8877C140.228 14.2725 140.902 13.0566 140.902 11.2402C140.902 9.27734 140.25 7.95898 138.946 7.28516C138.214 6.9043 137.115 6.71387 135.65 6.71387H127.784ZM137.057 1.08887C139.327 1.13281 141.07 1.41113 142.286 1.92383C143.517 2.43652 144.557 3.19092 145.406 4.18701C146.109 5.00732 146.666 5.91553 147.076 6.91162C147.486 7.90771 147.691 9.04297 147.691 10.3174C147.691 11.8555 147.303 13.3716 146.527 14.8657C145.75 16.3452 144.469 17.3926 142.682 18.0078C144.176 18.6084 145.23 19.4653 145.846 20.5786C146.476 21.6772 146.791 23.3618 146.791 25.6323V27.8076C146.791 29.2871 146.849 30.2905 146.966 30.8179C147.142 31.6528 147.552 32.2681 148.197 32.6636V33.4766H140.748C140.543 32.7588 140.396 32.1802 140.309 31.7407C140.133 30.8325 140.038 29.9023 140.023 28.9502L139.979 25.9399C139.95 23.8745 139.569 22.4976 138.836 21.8091C138.119 21.1206 136.764 20.7764 134.771 20.7764H127.784V33.4766H121.17V1.08887H137.057ZM159.732 33.4766H153.009V1.08887H159.732V33.4766ZM190.011 6.82373H172.872V13.7012H188.604V19.3262H172.872V27.6538H190.802V33.4766H166.258V1.08887H190.011V6.82373ZM195.965 1.08887H203.062L215.96 23.6987V1.08887H222.267V33.4766H215.499L202.271 10.4712V33.4766H195.965V1.08887ZM227.188 17.5464C227.188 11.8921 228.705 7.53418 231.737 4.47266C234.374 1.80664 237.728 0.473633 241.8 0.473633C247.25 0.473633 251.234 2.26074 253.753 5.83496C255.145 7.8418 255.892 9.85596 255.995 11.8774H249.227C248.788 10.3247 248.224 9.15283 247.535 8.36182C246.305 6.95557 244.481 6.25244 242.064 6.25244C239.603 6.25244 237.662 7.24854 236.241 9.24072C234.82 11.2183 234.11 14.0234 234.11 17.6562C234.11 21.2891 234.857 24.0137 236.351 25.8301C237.86 27.6318 239.771 28.5327 242.086 28.5327C244.459 28.5327 246.268 27.7563 247.513 26.2036C248.202 25.3687 248.773 24.1162 249.227 22.4463H255.929C255.343 25.9766 253.841 28.8477 251.424 31.0596C249.022 33.2715 245.938 34.3774 242.174 34.3774C237.516 34.3774 233.854 32.8833 231.188 29.895C228.521 26.8921 227.188 22.7759 227.188 17.5464ZM285.064 6.82373H267.926V13.7012H283.658V19.3262H267.926V27.6538H285.855V33.4766H261.312V1.08887H285.064V6.82373ZM296.029 23.479C296.234 24.9585 296.637 26.0645 297.237 26.7969C298.336 28.1299 300.218 28.7964 302.884 28.7964C304.481 28.7964 305.777 28.6206 306.773 28.269C308.663 27.5952 309.608 26.3428 309.608 24.5117C309.608 23.4424 309.139 22.6147 308.202 22.0288C307.264 21.4575 305.792 20.9521 303.785 20.5127L300.357 19.7437C296.988 18.9819 294.659 18.1543 293.37 17.2607C291.188 15.7666 290.096 13.4302 290.096 10.2515C290.096 7.35107 291.151 4.94141 293.26 3.02246C295.37 1.10352 298.468 0.144043 302.555 0.144043C305.968 0.144043 308.875 1.05225 311.278 2.86865C313.695 4.67041 314.962 7.29248 315.079 10.7349H308.575C308.458 8.78662 307.608 7.40234 306.026 6.58203C304.972 6.04004 303.661 5.76904 302.093 5.76904C300.35 5.76904 298.958 6.12061 297.918 6.82373C296.878 7.52686 296.358 8.5083 296.358 9.76807C296.358 10.9253 296.871 11.7896 297.896 12.3608C298.556 12.7417 299.962 13.1885 302.115 13.7012L307.696 15.0415C310.143 15.6274 311.988 16.4111 313.233 17.3926C315.167 18.916 316.134 21.1206 316.134 24.0063C316.134 26.9653 314.999 29.4263 312.728 31.3892C310.472 33.3374 307.279 34.3115 303.148 34.3115C298.929 34.3115 295.611 33.3521 293.194 31.4331C290.777 29.4995 289.569 26.8481 289.569 23.479H296.029ZM7.52783 58.7139V65.855H15.4819C16.9028 65.855 18.0527 65.5913 18.9316 65.064C19.8252 64.522 20.272 63.5698 20.272 62.2075C20.272 60.6987 19.686 59.7026 18.5142 59.2192C17.5034 58.8823 16.2144 58.7139 14.647 58.7139H7.52783ZM7.52783 71.2163V79.8516H15.4819C16.9028 79.8516 18.0088 79.6611 18.7998 79.2803C20.2354 78.5771 20.9531 77.2295 20.9531 75.2373C20.9531 73.5527 20.2573 72.3955 18.8657 71.7656C18.0894 71.4141 16.998 71.231 15.5918 71.2163H7.52783ZM16.8003 53.0889C20.77 53.1475 23.5825 54.2974 25.2378 56.5386C26.2339 57.9155 26.7319 59.5635 26.7319 61.4824C26.7319 63.46 26.2339 65.0493 25.2378 66.2505C24.6812 66.9243 23.8608 67.5396 22.7769 68.0962C24.4321 68.6968 25.6772 69.6489 26.5122 70.9526C27.3618 72.2563 27.7866 73.8384 27.7866 75.6987C27.7866 77.6177 27.3032 79.3389 26.3364 80.8623C25.7212 81.873 24.9521 82.7227 24.0293 83.4111C22.9893 84.2021 21.7588 84.7441 20.3379 85.0371C18.9316 85.3301 17.4009 85.4766 15.7456 85.4766H1.06787V53.0889H16.8003ZM57.4277 58.8237H40.2891V65.7012H56.0215V71.3262H40.2891V79.6538H58.2188V85.4766H33.6753V53.0889H57.4277V58.8237ZM81.9712 53.0889H89.6396L78.8071 73.3037V85.4766H72.0396V73.3037L60.8335 53.0889H68.8096L75.5332 67.1953L81.9712 53.0889ZM107.833 80.6426C110.514 80.6426 112.638 79.6538 114.205 77.6763C115.787 75.6987 116.578 72.8862 116.578 69.2388C116.578 65.606 115.787 62.8008 114.205 60.8232C112.638 58.8311 110.514 57.835 107.833 57.835C105.152 57.835 103.014 58.8237 101.417 60.8013C99.8203 62.7788 99.022 65.5913 99.022 69.2388C99.022 72.8862 99.8203 75.6987 101.417 77.6763C103.014 79.6538 105.152 80.6426 107.833 80.6426ZM123.346 69.2388C123.346 75.0542 121.712 79.5073 118.446 82.5981C116 85.1177 112.462 86.3774 107.833 86.3774C103.204 86.3774 99.6665 85.1177 97.2202 82.5981C93.939 79.5073 92.2983 75.0542 92.2983 69.2388C92.2983 63.3062 93.939 58.853 97.2202 55.8794C99.6665 53.3599 103.204 52.1001 107.833 52.1001C112.462 52.1001 116 53.3599 118.446 55.8794C121.712 58.853 123.346 63.3062 123.346 69.2388ZM128.421 53.0889H135.519L148.417 75.6987V53.0889H154.723V85.4766H147.955L134.728 62.4712V85.4766H128.421V53.0889ZM167.621 58.7139V79.8516H173.861C177.054 79.8516 179.281 78.2769 180.541 75.1274C181.229 73.3989 181.573 71.3408 181.573 68.9531C181.573 65.6572 181.053 63.1304 180.013 61.3726C178.988 59.6001 176.937 58.7139 173.861 58.7139H167.621ZM175.003 53.0889C177.01 53.1182 178.68 53.3525 180.013 53.792C182.284 54.5391 184.122 55.9087 185.528 57.9009C186.656 59.5122 187.425 61.2554 187.835 63.1304C188.246 65.0054 188.451 66.7925 188.451 68.4917C188.451 72.7983 187.586 76.4458 185.858 79.4341C183.514 83.4624 179.896 85.4766 175.003 85.4766H161.051V53.0889H175.003Z" fill="black"/>
<path d="M7.1543 137.477H0.430664V105.089H7.1543V137.477ZM34.9497 105.089H44.6836V137.477H38.3774V115.57C38.3774 114.94 38.3848 114.061 38.3994 112.933C38.4141 111.791 38.4214 110.912 38.4214 110.296L32.291 137.477H25.7212L19.6348 110.296C19.6348 110.912 19.6421 111.791 19.6567 112.933C19.6714 114.061 19.6787 114.94 19.6787 115.57V137.477H13.3726V105.089H23.2163L29.105 130.555L34.9497 105.089ZM59.8228 125.238H68.0405L63.9976 112.494L59.8228 125.238ZM60.2402 105.089H67.8867L79.3564 137.477H72.0176L69.9302 130.819H57.999L55.7578 137.477H48.6826L60.2402 105.089ZM105.262 115.196C104.75 112.984 103.497 111.439 101.505 110.56C100.392 110.077 99.1538 109.835 97.7915 109.835C95.1841 109.835 93.0381 110.824 91.3535 112.801C89.6836 114.764 88.8486 117.723 88.8486 121.678C88.8486 125.663 89.7568 128.482 91.5732 130.138C93.3896 131.793 95.4551 132.621 97.7695 132.621C100.04 132.621 101.9 131.969 103.351 130.665C104.801 129.347 105.694 127.625 106.031 125.501H98.5386V120.096H112.03V137.477H107.547L106.866 133.434C105.562 134.972 104.391 136.056 103.351 136.686C101.563 137.784 99.3662 138.333 96.7588 138.333C92.4668 138.333 88.9512 136.847 86.2119 133.873C83.3555 130.885 81.9272 126.798 81.9272 121.612C81.9272 116.368 83.3701 112.164 86.2559 109C89.1416 105.836 92.9575 104.254 97.7036 104.254C101.82 104.254 105.123 105.301 107.613 107.396C110.118 109.476 111.554 112.076 111.92 115.196H105.262ZM124.708 137.477H117.984V105.089H124.708V137.477ZM130.926 105.089H138.023L150.921 127.699V105.089H157.228V137.477H150.46L137.232 114.471V137.477H130.926V105.089ZM172.411 125.238H180.628L176.585 112.494L172.411 125.238ZM172.828 105.089H180.475L191.944 137.477H184.605L182.518 130.819H170.587L168.346 137.477H161.271L172.828 105.089ZM216.268 105.089V110.824H206.578V137.477H199.767V110.824H190.033V105.089H216.268ZM226.441 137.477H219.718V105.089H226.441V137.477ZM247.096 132.643C249.776 132.643 251.9 131.654 253.468 129.676C255.05 127.699 255.841 124.886 255.841 121.239C255.841 117.606 255.05 114.801 253.468 112.823C251.9 110.831 249.776 109.835 247.096 109.835C244.415 109.835 242.276 110.824 240.68 112.801C239.083 114.779 238.285 117.591 238.285 121.239C238.285 124.886 239.083 127.699 240.68 129.676C242.276 131.654 244.415 132.643 247.096 132.643ZM262.608 121.239C262.608 127.054 260.975 131.507 257.708 134.598C255.262 137.118 251.725 138.377 247.096 138.377C242.467 138.377 238.929 137.118 236.483 134.598C233.202 131.507 231.561 127.054 231.561 121.239C231.561 115.306 233.202 110.853 236.483 107.879C238.929 105.36 242.467 104.1 247.096 104.1C251.725 104.1 255.262 105.36 257.708 107.879C260.975 110.853 262.608 115.306 262.608 121.239ZM267.684 105.089H274.781L287.679 127.699V105.089H293.985V137.477H287.218L273.99 114.471V137.477H267.684V105.089Z" fill="url(#paint0_linear_363_42605)"/>
<defs>
<linearGradient id="paint0_linear_363_42605" x1="-247.28" y1="55.9754" x2="296.919" y2="147.101" gradientUnits="userSpaceOnUse">
<stop stop-color="#3069FE"/>
<stop offset="1" stop-color="#1BF1D8"/>
</linearGradient>
</defs>
</svg>
