<svg width="343" height="276" viewBox="0 0 343 276" fill="none" xmlns="http://www.w3.org/2000/svg">
<path d="M11.3306 2.21777L17.5195 29.0049L18.8525 36.4634L20.2173 29.1636L25.4858 2.21777H35.8008L41.355 29.0049L42.7832 36.4634L44.2114 29.2905L50.4639 2.21777H60.3979L47.2266 49H37.8955L32.2461 21.6416L30.5957 12.5962L28.9453 21.6416L23.2959 49H14.2188L0.952148 2.21777H11.3306ZM100.928 10.5015H76.1719V20.4355H98.8965V28.5605H76.1719V40.5894H102.07V49H66.6187V2.21777H100.928V10.5015ZM109.688 2.21777H119.463V40.5894H142.632V49H109.688V2.21777ZM147.393 25.9897C147.393 17.8224 149.583 11.5277 153.962 7.10547C157.771 3.25456 162.616 1.3291 168.499 1.3291C176.37 1.3291 182.125 3.91048 185.764 9.07324C187.774 11.972 188.853 14.8813 189.001 17.8013H179.226C178.591 15.5584 177.777 13.8657 176.782 12.7231C175.005 10.6919 172.371 9.67627 168.879 9.67627C165.325 9.67627 162.521 11.1151 160.469 13.9927C158.416 16.8491 157.39 20.901 157.39 26.1484C157.39 31.3958 158.469 35.3314 160.627 37.9551C162.807 40.5576 165.568 41.8589 168.911 41.8589C172.339 41.8589 174.952 40.7375 176.75 38.4946C177.745 37.2886 178.57 35.4795 179.226 33.0674H188.906C188.06 38.1667 185.891 42.3138 182.4 45.5088C178.93 48.7038 174.476 50.3013 169.038 50.3013C162.31 50.3013 157.02 48.1431 153.169 43.8267C149.318 39.4891 147.393 33.5435 147.393 25.9897ZM217.09 42.0176C220.962 42.0176 224.03 40.5894 226.294 37.7329C228.579 34.8765 229.722 30.814 229.722 25.5454C229.722 20.298 228.579 16.2461 226.294 13.3896C224.03 10.512 220.962 9.07324 217.09 9.07324C213.218 9.07324 210.129 10.5015 207.822 13.3579C205.516 16.2144 204.363 20.2769 204.363 25.5454C204.363 30.814 205.516 34.8765 207.822 37.7329C210.129 40.5894 213.218 42.0176 217.09 42.0176ZM239.497 25.5454C239.497 33.9455 237.138 40.3778 232.419 44.8423C228.886 48.4816 223.776 50.3013 217.09 50.3013C210.404 50.3013 205.294 48.4816 201.76 44.8423C197.021 40.3778 194.651 33.9455 194.651 25.5454C194.651 16.9761 197.021 10.5438 201.76 6.24854C205.294 2.60921 210.404 0.789551 217.09 0.789551C223.776 0.789551 228.886 2.60921 232.419 6.24854C237.138 10.5438 239.497 16.9761 239.497 25.5454ZM277.996 2.21777H292.056V49H282.947V17.3569C282.947 16.4471 282.957 15.1776 282.979 13.5483C283 11.8979 283.01 10.6284 283.01 9.73975L274.155 49H264.666L255.874 9.73975C255.874 10.6284 255.885 11.8979 255.906 13.5483C255.927 15.1776 255.938 16.4471 255.938 17.3569V49H246.829V2.21777H261.047L269.553 39.0024L277.996 2.21777ZM335.728 10.5015H310.972V20.4355H333.696V28.5605H310.972V40.5894H336.87V49H301.418V2.21777H335.728V10.5015ZM38.9429 77.2178V85.5015H24.9463V124H15.1074V85.5015H1.04736V77.2178H38.9429ZM64.2383 117.018C68.1104 117.018 71.1784 115.589 73.4424 112.733C75.7275 109.876 76.8701 105.814 76.8701 100.545C76.8701 95.298 75.7275 91.2461 73.4424 88.3896C71.1784 85.512 68.1104 84.0732 64.2383 84.0732C60.3662 84.0732 57.277 85.5015 54.9707 88.3579C52.6644 91.2144 51.5112 95.2769 51.5112 100.545C51.5112 105.814 52.6644 109.876 54.9707 112.733C57.277 115.589 60.3662 117.018 64.2383 117.018ZM86.6455 100.545C86.6455 108.945 84.2863 115.378 79.5679 119.842C76.0343 123.482 70.9245 125.301 64.2383 125.301C57.5521 125.301 52.4422 123.482 48.9087 119.842C44.1691 115.378 41.7993 108.945 41.7993 100.545C41.7993 91.9761 44.1691 85.5438 48.9087 81.2485C52.4422 77.6092 57.5521 75.7896 64.2383 75.7896C70.9245 75.7896 76.0343 77.6092 79.5679 81.2485C84.2863 85.5438 86.6455 91.9761 86.6455 100.545ZM146.218 77.2178V85.5015H132.222V124H122.383V85.5015H108.323V77.2178H146.218ZM151.899 124V77.2178H161.58V95.0547H179.861V77.2178H189.573V124H179.861V103.116H161.58V124H151.899ZM233.53 85.5015H208.774V95.4355H231.499V103.561H208.774V115.589H234.673V124H199.221V77.2178H233.53V85.5015ZM25.6445 267.018C29.5166 267.018 32.5846 265.589 34.8486 262.733C37.1338 259.876 38.2764 255.814 38.2764 250.545C38.2764 245.298 37.1338 241.246 34.8486 238.39C32.5846 235.512 29.5166 234.073 25.6445 234.073C21.7725 234.073 18.6833 235.501 16.377 238.358C14.0706 241.214 12.9175 245.277 12.9175 250.545C12.9175 255.814 14.0706 259.876 16.377 262.733C18.6833 265.589 21.7725 267.018 25.6445 267.018ZM48.0518 250.545C48.0518 258.945 45.6925 265.378 40.9741 269.842C37.4406 273.482 32.3307 275.301 25.6445 275.301C18.9583 275.301 13.8485 273.482 10.3149 269.842C5.57536 265.378 3.20557 258.945 3.20557 250.545C3.20557 241.976 5.57536 235.544 10.3149 231.249C13.8485 227.609 18.9583 225.79 25.6445 225.79C32.3307 225.79 37.4406 227.609 40.9741 231.249C45.6925 235.544 48.0518 241.976 48.0518 250.545ZM55.542 227.281H88.7085V235.501H65.2539V246.261H85.7886V254.386H65.2539V274H55.542V227.281ZM123.145 235.343V247.911H134.221C136.422 247.911 138.072 247.657 139.172 247.149C141.119 246.261 142.092 244.505 142.092 241.881C142.092 239.046 141.151 237.141 139.268 236.168C138.21 235.618 136.623 235.343 134.507 235.343H123.145ZM136.538 227.218C139.818 227.281 142.336 227.683 144.092 228.424C145.869 229.164 147.371 230.254 148.599 231.693C149.614 232.878 150.418 234.19 151.011 235.628C151.603 237.067 151.899 238.707 151.899 240.548C151.899 242.77 151.339 244.959 150.217 247.118C149.096 249.255 147.244 250.768 144.663 251.656C146.821 252.524 148.345 253.762 149.233 255.37C150.143 256.957 150.598 259.39 150.598 262.669V265.812C150.598 267.949 150.683 269.398 150.852 270.16C151.106 271.366 151.698 272.254 152.629 272.826V274H141.87C141.574 272.963 141.362 272.127 141.235 271.493C140.981 270.181 140.844 268.837 140.823 267.462L140.759 263.114C140.717 260.13 140.167 258.141 139.109 257.147C138.072 256.153 136.115 255.655 133.237 255.655H123.145V274H113.591V227.218H136.538ZM173.132 256.322H185.002L179.163 237.914L173.132 256.322ZM173.735 227.218H184.78L201.348 274H190.747L187.732 264.383H170.498L167.261 274H157.041L173.735 227.218ZM216.265 274H206.553V227.218H216.265V274ZM232.483 259.559C232.779 261.696 233.361 263.294 234.229 264.352C235.815 266.277 238.534 267.24 242.385 267.24C244.692 267.24 246.564 266.986 248.003 266.478C250.732 265.505 252.097 263.696 252.097 261.051C252.097 259.506 251.42 258.311 250.066 257.464C248.712 256.639 246.585 255.909 243.687 255.274L238.735 254.164C233.869 253.063 230.505 251.868 228.643 250.577C225.49 248.419 223.914 245.044 223.914 240.453C223.914 236.263 225.437 232.783 228.484 230.011C231.531 227.239 236.006 225.853 241.909 225.853C246.839 225.853 251.039 227.165 254.509 229.789C258 232.391 259.831 236.179 260 241.151H250.605C250.436 238.337 249.209 236.337 246.924 235.152C245.4 234.369 243.507 233.978 241.243 233.978C238.725 233.978 236.715 234.486 235.212 235.501C233.71 236.517 232.959 237.935 232.959 239.754C232.959 241.426 233.7 242.674 235.181 243.5C236.133 244.05 238.164 244.695 241.274 245.436L249.336 247.372C252.869 248.218 255.535 249.35 257.334 250.768C260.127 252.968 261.523 256.153 261.523 260.321C261.523 264.595 259.884 268.15 256.604 270.985C253.346 273.799 248.733 275.206 242.766 275.206C236.672 275.206 231.88 273.82 228.389 271.048C224.897 268.255 223.152 264.426 223.152 259.559H232.483ZM277.71 274H267.998V227.218H277.71V274ZM286.692 227.218H296.943L315.574 259.876V227.218H324.683V274H314.907L295.801 240.77V274H286.692V227.218ZM342.773 274H333.062V227.218H342.773V274Z" fill="white"/>
<path d="M11.3306 2.21777L17.5195 29.0049L18.8525 36.4634L20.2173 29.1636L25.4858 2.21777H35.8008L41.355 29.0049L42.7832 36.4634L44.2114 29.2905L50.4639 2.21777H60.3979L47.2266 49H37.8955L32.2461 21.6416L30.5957 12.5962L28.9453 21.6416L23.2959 49H14.2188L0.952148 2.21777H11.3306ZM100.928 10.5015H76.1719V20.4355H98.8965V28.5605H76.1719V40.5894H102.07V49H66.6187V2.21777H100.928V10.5015ZM109.688 2.21777H119.463V40.5894H142.632V49H109.688V2.21777ZM147.393 25.9897C147.393 17.8224 149.583 11.5277 153.962 7.10547C157.771 3.25456 162.616 1.3291 168.499 1.3291C176.37 1.3291 182.125 3.91048 185.764 9.07324C187.774 11.972 188.853 14.8813 189.001 17.8013H179.226C178.591 15.5584 177.777 13.8657 176.782 12.7231C175.005 10.6919 172.371 9.67627 168.879 9.67627C165.325 9.67627 162.521 11.1151 160.469 13.9927C158.416 16.8491 157.39 20.901 157.39 26.1484C157.39 31.3958 158.469 35.3314 160.627 37.9551C162.807 40.5576 165.568 41.8589 168.911 41.8589C172.339 41.8589 174.952 40.7375 176.75 38.4946C177.745 37.2886 178.57 35.4795 179.226 33.0674H188.906C188.06 38.1667 185.891 42.3138 182.4 45.5088C178.93 48.7038 174.476 50.3013 169.038 50.3013C162.31 50.3013 157.02 48.1431 153.169 43.8267C149.318 39.4891 147.393 33.5435 147.393 25.9897ZM217.09 42.0176C220.962 42.0176 224.03 40.5894 226.294 37.7329C228.579 34.8765 229.722 30.814 229.722 25.5454C229.722 20.298 228.579 16.2461 226.294 13.3896C224.03 10.512 220.962 9.07324 217.09 9.07324C213.218 9.07324 210.129 10.5015 207.822 13.3579C205.516 16.2144 204.363 20.2769 204.363 25.5454C204.363 30.814 205.516 34.8765 207.822 37.7329C210.129 40.5894 213.218 42.0176 217.09 42.0176ZM239.497 25.5454C239.497 33.9455 237.138 40.3778 232.419 44.8423C228.886 48.4816 223.776 50.3013 217.09 50.3013C210.404 50.3013 205.294 48.4816 201.76 44.8423C197.021 40.3778 194.651 33.9455 194.651 25.5454C194.651 16.9761 197.021 10.5438 201.76 6.24854C205.294 2.60921 210.404 0.789551 217.09 0.789551C223.776 0.789551 228.886 2.60921 232.419 6.24854C237.138 10.5438 239.497 16.9761 239.497 25.5454ZM277.996 2.21777H292.056V49H282.947V17.3569C282.947 16.4471 282.957 15.1776 282.979 13.5483C283 11.8979 283.01 10.6284 283.01 9.73975L274.155 49H264.666L255.874 9.73975C255.874 10.6284 255.885 11.8979 255.906 13.5483C255.927 15.1776 255.938 16.4471 255.938 17.3569V49H246.829V2.21777H261.047L269.553 39.0024L277.996 2.21777ZM335.728 10.5015H310.972V20.4355H333.696V28.5605H310.972V40.5894H336.87V49H301.418V2.21777H335.728V10.5015ZM38.9429 77.2178V85.5015H24.9463V124H15.1074V85.5015H1.04736V77.2178H38.9429ZM64.2383 117.018C68.1104 117.018 71.1784 115.589 73.4424 112.733C75.7275 109.876 76.8701 105.814 76.8701 100.545C76.8701 95.298 75.7275 91.2461 73.4424 88.3896C71.1784 85.512 68.1104 84.0732 64.2383 84.0732C60.3662 84.0732 57.277 85.5015 54.9707 88.3579C52.6644 91.2144 51.5112 95.2769 51.5112 100.545C51.5112 105.814 52.6644 109.876 54.9707 112.733C57.277 115.589 60.3662 117.018 64.2383 117.018ZM86.6455 100.545C86.6455 108.945 84.2863 115.378 79.5679 119.842C76.0343 123.482 70.9245 125.301 64.2383 125.301C57.5521 125.301 52.4422 123.482 48.9087 119.842C44.1691 115.378 41.7993 108.945 41.7993 100.545C41.7993 91.9761 44.1691 85.5438 48.9087 81.2485C52.4422 77.6092 57.5521 75.7896 64.2383 75.7896C70.9245 75.7896 76.0343 77.6092 79.5679 81.2485C84.2863 85.5438 86.6455 91.9761 86.6455 100.545ZM146.218 77.2178V85.5015H132.222V124H122.383V85.5015H108.323V77.2178H146.218ZM151.899 124V77.2178H161.58V95.0547H179.861V77.2178H189.573V124H179.861V103.116H161.58V124H151.899ZM233.53 85.5015H208.774V95.4355H231.499V103.561H208.774V115.589H234.673V124H199.221V77.2178H233.53V85.5015ZM25.6445 267.018C29.5166 267.018 32.5846 265.589 34.8486 262.733C37.1338 259.876 38.2764 255.814 38.2764 250.545C38.2764 245.298 37.1338 241.246 34.8486 238.39C32.5846 235.512 29.5166 234.073 25.6445 234.073C21.7725 234.073 18.6833 235.501 16.377 238.358C14.0706 241.214 12.9175 245.277 12.9175 250.545C12.9175 255.814 14.0706 259.876 16.377 262.733C18.6833 265.589 21.7725 267.018 25.6445 267.018ZM48.0518 250.545C48.0518 258.945 45.6925 265.378 40.9741 269.842C37.4406 273.482 32.3307 275.301 25.6445 275.301C18.9583 275.301 13.8485 273.482 10.3149 269.842C5.57536 265.378 3.20557 258.945 3.20557 250.545C3.20557 241.976 5.57536 235.544 10.3149 231.249C13.8485 227.609 18.9583 225.79 25.6445 225.79C32.3307 225.79 37.4406 227.609 40.9741 231.249C45.6925 235.544 48.0518 241.976 48.0518 250.545ZM55.542 227.281H88.7085V235.501H65.2539V246.261H85.7886V254.386H65.2539V274H55.542V227.281ZM123.145 235.343V247.911H134.221C136.422 247.911 138.072 247.657 139.172 247.149C141.119 246.261 142.092 244.505 142.092 241.881C142.092 239.046 141.151 237.141 139.268 236.168C138.21 235.618 136.623 235.343 134.507 235.343H123.145ZM136.538 227.218C139.818 227.281 142.336 227.683 144.092 228.424C145.869 229.164 147.371 230.254 148.599 231.693C149.614 232.878 150.418 234.19 151.011 235.628C151.603 237.067 151.899 238.707 151.899 240.548C151.899 242.77 151.339 244.959 150.217 247.118C149.096 249.255 147.244 250.768 144.663 251.656C146.821 252.524 148.345 253.762 149.233 255.37C150.143 256.957 150.598 259.39 150.598 262.669V265.812C150.598 267.949 150.683 269.398 150.852 270.16C151.106 271.366 151.698 272.254 152.629 272.826V274H141.87C141.574 272.963 141.362 272.127 141.235 271.493C140.981 270.181 140.844 268.837 140.823 267.462L140.759 263.114C140.717 260.13 140.167 258.141 139.109 257.147C138.072 256.153 136.115 255.655 133.237 255.655H123.145V274H113.591V227.218H136.538ZM173.132 256.322H185.002L179.163 237.914L173.132 256.322ZM173.735 227.218H184.78L201.348 274H190.747L187.732 264.383H170.498L167.261 274H157.041L173.735 227.218ZM216.265 274H206.553V227.218H216.265V274ZM232.483 259.559C232.779 261.696 233.361 263.294 234.229 264.352C235.815 266.277 238.534 267.24 242.385 267.24C244.692 267.24 246.564 266.986 248.003 266.478C250.732 265.505 252.097 263.696 252.097 261.051C252.097 259.506 251.42 258.311 250.066 257.464C248.712 256.639 246.585 255.909 243.687 255.274L238.735 254.164C233.869 253.063 230.505 251.868 228.643 250.577C225.49 248.419 223.914 245.044 223.914 240.453C223.914 236.263 225.437 232.783 228.484 230.011C231.531 227.239 236.006 225.853 241.909 225.853C246.839 225.853 251.039 227.165 254.509 229.789C258 232.391 259.831 236.179 260 241.151H250.605C250.436 238.337 249.209 236.337 246.924 235.152C245.4 234.369 243.507 233.978 241.243 233.978C238.725 233.978 236.715 234.486 235.212 235.501C233.71 236.517 232.959 237.935 232.959 239.754C232.959 241.426 233.7 242.674 235.181 243.5C236.133 244.05 238.164 244.695 241.274 245.436L249.336 247.372C252.869 248.218 255.535 249.35 257.334 250.768C260.127 252.968 261.523 256.153 261.523 260.321C261.523 264.595 259.884 268.15 256.604 270.985C253.346 273.799 248.733 275.206 242.766 275.206C236.672 275.206 231.88 273.82 228.389 271.048C224.897 268.255 223.152 264.426 223.152 259.559H232.483ZM277.71 274H267.998V227.218H277.71V274ZM286.692 227.218H296.943L315.574 259.876V227.218H324.683V274H314.907L295.801 240.77V274H286.692V227.218ZM342.773 274H333.062V227.218H342.773V274Z" fill="white"/>
<path d="M4.95117 152.281H38.1177V160.501H14.6631V171.261H35.1978V179.386H14.6631V199H4.95117V152.281ZM44.6875 152.218H54.6216V180.973C54.6216 184.189 55.0024 186.537 55.7642 188.019C56.9491 190.642 59.5304 191.954 63.5083 191.954C67.465 191.954 70.0358 190.642 71.2207 188.019C71.9824 186.537 72.3633 184.189 72.3633 180.973V152.218H82.2974V180.973C82.2974 185.945 81.5251 189.817 79.9805 192.589C77.1029 197.667 71.6121 200.206 63.5083 200.206C55.4045 200.206 49.9032 197.667 47.0044 192.589C45.4598 189.817 44.6875 185.945 44.6875 180.973V152.218ZM125.652 152.218V160.501H111.655V199H101.816V160.501H87.7563V152.218H125.652ZM131.396 152.218H141.331V180.973C141.331 184.189 141.711 186.537 142.473 188.019C143.658 190.642 146.239 191.954 150.217 191.954C154.174 191.954 156.745 190.642 157.93 188.019C158.691 186.537 159.072 184.189 159.072 180.973V152.218H169.006V180.973C169.006 185.945 168.234 189.817 166.689 192.589C163.812 197.667 158.321 200.206 150.217 200.206C142.113 200.206 136.612 197.667 133.713 192.589C132.169 189.817 131.396 185.945 131.396 180.973V152.218ZM188.145 160.343V172.911H199.221C201.422 172.911 203.072 172.657 204.172 172.149C206.119 171.261 207.092 169.505 207.092 166.881C207.092 164.046 206.151 162.141 204.268 161.168C203.21 160.618 201.623 160.343 199.507 160.343H188.145ZM201.538 152.218C204.818 152.281 207.336 152.683 209.092 153.424C210.869 154.164 212.371 155.254 213.599 156.693C214.614 157.878 215.418 159.19 216.011 160.628C216.603 162.067 216.899 163.707 216.899 165.548C216.899 167.77 216.339 169.959 215.217 172.118C214.096 174.255 212.244 175.768 209.663 176.656C211.821 177.524 213.345 178.762 214.233 180.37C215.143 181.957 215.598 184.39 215.598 187.669V190.812C215.598 192.949 215.683 194.398 215.852 195.16C216.106 196.366 216.698 197.254 217.629 197.826V199H206.87C206.574 197.963 206.362 197.127 206.235 196.493C205.981 195.181 205.844 193.837 205.823 192.462L205.759 188.114C205.717 185.13 205.167 183.141 204.109 182.147C203.072 181.153 201.115 180.655 198.237 180.655H188.145V199H178.591V152.218H201.538ZM259.937 160.501H235.181V170.436H257.905V178.561H235.181V190.589H261.079V199H225.627V152.218H259.937V160.501Z" fill="url(#paint0_linear_363_49347)"/>
<defs>
<linearGradient id="paint0_linear_363_49347" x1="-99.1702" y1="93.8913" x2="281.237" y2="72.4517" gradientUnits="userSpaceOnUse">
<stop stop-color="#3069FE"/>
<stop offset="1" stop-color="#1BF1D8"/>
</linearGradient>
</defs>
</svg>
