<svg width="318" height="139" viewBox="0 0 318 139" fill="none" xmlns="http://www.w3.org/2000/svg">
<path d="M26.9604 1.6123V7.34717H17.2705V34H10.459V7.34717H0.725098V1.6123H26.9604ZM54.8877 7.34717H37.749V14.2246H53.4814V19.8496H37.749V28.1772H55.6787V34H31.1353V1.6123H54.8877V7.34717ZM59.5459 18.0698C59.5459 12.4155 61.062 8.05762 64.0942 4.99609C66.731 2.33008 70.0854 0.99707 74.1577 0.99707C79.6069 0.99707 83.5913 2.78418 86.1108 6.3584C87.5024 8.36523 88.2495 10.3794 88.3521 12.4009H81.5845C81.145 10.8481 80.5811 9.67627 79.8926 8.88525C78.6621 7.479 76.8384 6.77588 74.4214 6.77588C71.9604 6.77588 70.0195 7.77197 68.5986 9.76416C67.1777 11.7417 66.4673 14.5469 66.4673 18.1797C66.4673 21.8125 67.2144 24.5371 68.7085 26.3535C70.2173 28.1553 72.1289 29.0562 74.4434 29.0562C76.8164 29.0562 78.6255 28.2798 79.8706 26.7271C80.5591 25.8921 81.1304 24.6396 81.5845 22.9697H88.2861C87.7002 26.5 86.1987 29.3711 83.7817 31.583C81.3794 33.7949 78.2959 34.9009 74.5312 34.9009C69.873 34.9009 66.2109 33.4067 63.5449 30.4185C60.8789 27.4155 59.5459 23.2993 59.5459 18.0698ZM93.4277 34V1.6123H100.129V13.9609H112.786V1.6123H119.509V34H112.786V19.542H100.129V34H93.4277ZM125.881 1.6123H132.979L145.876 24.2222V1.6123H152.183V34H145.415L132.188 10.9946V34H125.881V1.6123ZM172.837 29.166C175.518 29.166 177.642 28.1772 179.209 26.1997C180.791 24.2222 181.582 21.4097 181.582 17.7622C181.582 14.1294 180.791 11.3242 179.209 9.34668C177.642 7.35449 175.518 6.3584 172.837 6.3584C170.156 6.3584 168.018 7.34717 166.421 9.32471C164.824 11.3022 164.026 14.1147 164.026 17.7622C164.026 21.4097 164.824 24.2222 166.421 26.1997C168.018 28.1772 170.156 29.166 172.837 29.166ZM188.35 17.7622C188.35 23.5776 186.716 28.0308 183.45 31.1216C181.003 33.6411 177.466 34.9009 172.837 34.9009C168.208 34.9009 164.67 33.6411 162.224 31.1216C158.943 28.0308 157.302 23.5776 157.302 17.7622C157.302 11.8296 158.943 7.37646 162.224 4.40283C164.67 1.8833 168.208 0.623535 172.837 0.623535C177.466 0.623535 181.003 1.8833 183.45 4.40283C186.716 7.37646 188.35 11.8296 188.35 17.7622ZM193.535 1.6123H200.303V28.1772H216.343V34H193.535V1.6123ZM235.371 29.166C238.052 29.166 240.176 28.1772 241.743 26.1997C243.325 24.2222 244.116 21.4097 244.116 17.7622C244.116 14.1294 243.325 11.3242 241.743 9.34668C240.176 7.35449 238.052 6.3584 235.371 6.3584C232.69 6.3584 230.552 7.34717 228.955 9.32471C227.358 11.3022 226.56 14.1147 226.56 17.7622C226.56 21.4097 227.358 24.2222 228.955 26.1997C230.552 28.1772 232.69 29.166 235.371 29.166ZM250.884 17.7622C250.884 23.5776 249.25 28.0308 245.984 31.1216C243.538 33.6411 240 34.9009 235.371 34.9009C230.742 34.9009 227.205 33.6411 224.758 31.1216C221.477 28.0308 219.836 23.5776 219.836 17.7622C219.836 11.8296 221.477 7.37646 224.758 4.40283C227.205 1.8833 230.742 0.623535 235.371 0.623535C240 0.623535 243.538 1.8833 245.984 4.40283C249.25 7.37646 250.884 11.8296 250.884 17.7622ZM277.844 11.7197C277.332 9.50781 276.079 7.9624 274.087 7.0835C272.974 6.6001 271.736 6.3584 270.374 6.3584C267.766 6.3584 265.62 7.34717 263.936 9.32471C262.266 11.2876 261.431 14.2466 261.431 18.2017C261.431 22.186 262.339 25.0059 264.155 26.6611C265.972 28.3164 268.037 29.144 270.352 29.144C272.622 29.144 274.482 28.4922 275.933 27.1885C277.383 25.8701 278.276 24.1489 278.613 22.0249H271.121V16.6196H284.612V34H280.129L279.448 29.957C278.145 31.4951 276.973 32.5791 275.933 33.209C274.146 34.3076 271.948 34.8569 269.341 34.8569C265.049 34.8569 261.533 33.3701 258.794 30.3965C255.938 27.4082 254.509 23.3213 254.509 18.1357C254.509 12.8916 255.952 8.6875 258.838 5.52344C261.724 2.35938 265.54 0.777344 270.286 0.777344C274.402 0.777344 277.705 1.82471 280.195 3.91943C282.7 5.99951 284.136 8.59961 284.502 11.7197H277.844ZM309.573 1.6123H317.241L306.409 21.8271V34H299.641V21.8271L288.435 1.6123H296.411L303.135 15.7188L309.573 1.6123Z" fill="url(#paint0_linear_363_42571)"/>
<path d="M9.62402 86H2.90039V53.6123H9.62402V86ZM20.8521 76.0024C21.0571 77.4819 21.46 78.5879 22.0605 79.3203C23.1592 80.6533 25.0415 81.3198 27.7075 81.3198C29.3042 81.3198 30.6006 81.144 31.5967 80.7925C33.4863 80.1187 34.4312 78.8662 34.4312 77.0352C34.4312 75.9658 33.9624 75.1382 33.0249 74.5522C32.0874 73.981 30.6152 73.4756 28.6084 73.0361L25.1807 72.2671C21.8115 71.5054 19.4824 70.6777 18.1934 69.7842C16.0107 68.29 14.9194 65.9536 14.9194 62.7749C14.9194 59.8745 15.9741 57.4648 18.0835 55.5459C20.1929 53.627 23.291 52.6675 27.3779 52.6675C30.791 52.6675 33.6987 53.5757 36.1011 55.3921C38.5181 57.1938 39.7852 59.8159 39.9023 63.2583H33.3984C33.2812 61.3101 32.4316 59.9258 30.8496 59.1055C29.7949 58.5635 28.4839 58.2925 26.9165 58.2925C25.1733 58.2925 23.7817 58.644 22.7417 59.3472C21.7017 60.0503 21.1816 61.0317 21.1816 62.2915C21.1816 63.4487 21.6943 64.313 22.7197 64.8843C23.3789 65.2651 24.7852 65.7119 26.9385 66.2246L32.5195 67.5649C34.9658 68.1509 36.8115 68.9346 38.0566 69.916C39.9902 71.4395 40.957 73.644 40.957 76.5298C40.957 79.4888 39.8218 81.9497 37.5513 83.9126C35.2954 85.8608 32.1021 86.835 27.9712 86.835C23.7524 86.835 20.4346 85.8755 18.0176 83.9565C15.6006 82.0229 14.3921 79.3716 14.3921 76.0024H20.8521ZM58.6011 53.6123H65.2588V66.9497L77.7612 53.6123H86.5063L73.2349 66.9497L87.1875 86H78.4863L68.4888 71.8496L65.2588 75.1675V86H58.6011V53.6123ZM114.961 59.3472H97.8223V66.2246H113.555V71.8496H97.8223V80.1772H115.752V86H91.2085V53.6123H114.961V59.3472ZM139.504 53.6123H147.173L136.34 73.8271V86H129.573V73.8271L118.367 53.6123H126.343L133.066 67.7188L139.504 53.6123ZM186.306 53.6123V59.3472H176.616V86H169.805V59.3472H160.071V53.6123H186.306ZM203.818 81.166C206.499 81.166 208.623 80.1772 210.19 78.1997C211.772 76.2222 212.563 73.4097 212.563 69.7622C212.563 66.1294 211.772 63.3242 210.19 61.3467C208.623 59.3545 206.499 58.3584 203.818 58.3584C201.138 58.3584 198.999 59.3472 197.402 61.3247C195.806 63.3022 195.007 66.1147 195.007 69.7622C195.007 73.4097 195.806 76.2222 197.402 78.1997C198.999 80.1772 201.138 81.166 203.818 81.166ZM219.331 69.7622C219.331 75.5776 217.698 80.0308 214.431 83.1216C211.985 85.6411 208.447 86.9009 203.818 86.9009C199.189 86.9009 195.652 85.6411 193.206 83.1216C189.924 80.0308 188.284 75.5776 188.284 69.7622C188.284 63.8296 189.924 59.3765 193.206 56.4028C195.652 53.8833 199.189 52.6235 203.818 52.6235C208.447 52.6235 211.985 53.8833 214.431 56.4028C217.698 59.3765 219.331 63.8296 219.331 69.7622ZM27.3779 111.347H10.2393V118.225H25.9717V123.85H10.2393V132.177H28.1689V138H3.62549V105.612H27.3779V111.347ZM52.4048 105.612H59.436L48.3838 138H41.9897L31.0474 105.612H38.2764L45.3076 130.2L52.4048 105.612ZM87.4072 111.347H70.2686V118.225H86.001V123.85H70.2686V132.177H88.1982V138H63.6548V105.612H87.4072V111.347ZM100.239 111.237V119.938H107.908C109.431 119.938 110.574 119.763 111.335 119.411C112.683 118.796 113.357 117.58 113.357 115.764C113.357 113.801 112.705 112.482 111.401 111.809C110.669 111.428 109.57 111.237 108.105 111.237H100.239ZM109.512 105.612C111.782 105.656 113.525 105.935 114.741 106.447C115.972 106.96 117.012 107.714 117.861 108.71C118.564 109.531 119.121 110.439 119.531 111.435C119.941 112.431 120.146 113.566 120.146 114.841C120.146 116.379 119.758 117.895 118.982 119.389C118.206 120.869 116.924 121.916 115.137 122.531C116.631 123.132 117.686 123.989 118.301 125.102C118.931 126.201 119.246 127.885 119.246 130.156V132.331C119.246 133.811 119.304 134.814 119.421 135.341C119.597 136.176 120.007 136.792 120.652 137.187V138H113.203C112.998 137.282 112.852 136.704 112.764 136.264C112.588 135.356 112.493 134.426 112.478 133.474L112.434 130.463C112.405 128.398 112.024 127.021 111.292 126.333C110.574 125.644 109.219 125.3 107.227 125.3H100.239V138H93.6255V105.612H109.512ZM142.8 105.612H150.469L139.636 125.827V138H132.869V125.827L121.663 105.612H129.639L136.362 119.719L142.8 105.612ZM177.869 105.612V111.347H168.179V138H161.367V111.347H151.633V105.612H177.869ZM181.802 138V105.612H188.503V117.961H201.16V105.612H207.883V138H201.16V123.542H188.503V138H181.802ZM220.562 138H213.838V105.612H220.562V138ZM226.78 105.612H233.877L246.775 128.222V105.612H253.081V138H246.313L233.086 114.995V138H226.78V105.612ZM281.184 115.72C280.671 113.508 279.419 111.962 277.427 111.083C276.313 110.6 275.076 110.358 273.713 110.358C271.106 110.358 268.96 111.347 267.275 113.325C265.605 115.288 264.771 118.247 264.771 122.202C264.771 126.186 265.679 129.006 267.495 130.661C269.312 132.316 271.377 133.144 273.691 133.144C275.962 133.144 277.822 132.492 279.272 131.188C280.723 129.87 281.616 128.149 281.953 126.025H274.46V120.62H287.952V138H283.469L282.788 133.957C281.484 135.495 280.312 136.579 279.272 137.209C277.485 138.308 275.288 138.857 272.681 138.857C268.389 138.857 264.873 137.37 262.134 134.396C259.277 131.408 257.849 127.321 257.849 122.136C257.849 116.892 259.292 112.688 262.178 109.523C265.063 106.359 268.879 104.777 273.625 104.777C277.742 104.777 281.045 105.825 283.535 107.919C286.04 110 287.476 112.6 287.842 115.72H281.184Z" fill="black"/>
<defs>
<linearGradient id="paint0_linear_363_42571" x1="-204.298" y1="56.4989" x2="253.636" y2="120.49" gradientUnits="userSpaceOnUse">
<stop stop-color="#3069FE"/>
<stop offset="1" stop-color="#1BF1D8"/>
</linearGradient>
</defs>
</svg>
