<svg width="877" height="578" style="opacity:.2" viewBox="0 0 877 578" fill="none" xmlns="http://www.w3.org/2000/svg">
<g clip-path="url(#clip0_900_3544)">
<path d="M997.012 246.914L752.148 284.547L844.026 31.9186L842.933 31.2535L843.513 30.3843L844.454 30.707L844.026 31.9186L997.012 127.393L997.012 124.989L844.046 29.5415L842.966 28.8896L749.053 287.082L997.012 248.962L997.012 246.914Z" fill="#C6C6C6"/>
<path d="M843.519 30.3876L844.461 30.7103L844.033 31.9219L842.939 31.2568L843.519 30.3876Z" fill="#C6C6C6"/>
<path d="M845.011 30.4722L844.155 31.1701L843.516 30.3866L842.897 29.6293L842.002 30.3602L694.903 -112.716L717.838 132.268L842.002 30.3602L842.818 31.1109L843.516 30.3866L844.155 31.1701L716.132 136.238L692.348 -117.977L845.011 30.4722Z" fill="#C6C6C6"/>
<path d="M842.897 29.6278L843.517 30.3851L842.818 31.1094L842.002 30.3587L842.897 29.6278Z" fill="#C6C6C6"/>
<path d="M531.85 166.718L532.62 166.086L533.713 167.416L532.021 167.68L531.85 166.718Z" fill="#C6C6C6"/>
<path d="M529.992 166.033L531.671 165.763L531.849 166.718L532.02 167.679L533.713 167.416L561.435 201.196L708.877 136.691L533.713 167.416L532.62 166.086L531.849 166.718L531.671 165.763L716.818 133.26L717.358 135.157L560.862 203.652L529.992 166.033Z" fill="#C6C6C6"/>
<path d="M717.693 132.838L717.983 134.024L716.995 134.221L715.987 134.484L716.251 135.637L563.666 202.427L749.188 284.079L716.251 135.637L717.357 135.156L716.995 134.221L717.983 134.024L752.033 287.543L558.629 202.421L717.693 132.838Z" fill="#C6C6C6"/>
<path d="M715.984 134.484L716.992 134.221L717.354 135.156L716.248 135.637L715.984 134.484Z" fill="#C6C6C6"/>
<path d="M843.516 30.3815L844.155 31.165L841.311 33.4961L842.568 30.0522L843.516 30.3815Z" fill="#C6C6C6"/>
<path d="M845.735 27.2891L844.457 30.7067L843.516 30.3841L842.567 30.0548L841.31 33.4987L718.127 134.603L750.834 282.189L841.31 33.4987L844.154 31.1676L843.516 30.3841L844.457 30.7067L750.353 289.406L715.842 133.898L845.735 27.2891Z" fill="#C6C6C6"/>
<path d="M694.403 -118.052L694.62 -115.464L693.626 -115.346L692.625 -115.247L692.849 -112.64L522.525 115.394L715.883 133.114L692.849 -112.64L694.449 -114.76L693.626 -115.346L694.62 -115.464L718.115 135.34L518.771 117.027L694.403 -118.052Z" fill="#C6C6C6"/>
<path d="M519.359 115.095L520.762 115.233L520.63 116.227L520.551 117.209L521.954 117.347L532.615 165.581L709.32 134.586L521.954 117.347L521.651 115.984L520.63 116.227L520.762 115.233L717.076 133.243L717.129 135.218L531.08 167.859L519.359 115.095Z" fill="#C6C6C6"/>
<path d="M520.63 116.224L521.65 115.981L521.953 117.344L520.551 117.205L520.63 116.224Z" fill="#C6C6C6"/>
<path d="M83.1172 26.923L84.0654 26.5872L84.2234 27.6012L83.3872 27.7461L83.1172 26.923Z" fill="#C6C6C6"/>
<path d="M83.7852 27.5601L84.0617 25.5847L84.0683 26.5856L84.0354 27.6194L91.1339 27.6391L164.18 49.389L256.993 27.7906L91.1339 27.6391L84.3646 25.6044L84.0683 26.5856L84.0617 25.5847L265.758 25.7757L265.969 27.7774L164.068 51.4961L83.7852 27.5601Z" fill="#C6C6C6"/>
<path d="M84.0642 26.5871L84.3605 25.6059L91.1297 27.6406L84.0312 27.6209L84.0642 26.5871Z" fill="#C6C6C6"/>
<path d="M163.127 50.5156L164.134 50.4168L163.812 51.4375L163.16 51.2202L163.127 50.5156Z" fill="#C6C6C6"/>
<path d="M264.745 26.7083L265.759 26.7873L265.963 27.775L264.594 28.0977L264.745 26.7083Z" fill="#C6C6C6"/>
<path d="M266.88 25.4982L266.728 26.8876L265.76 26.7888L264.746 26.7098L264.595 28.0992L166.349 50.9619L254.599 122.829L264.595 28.0992L265.964 27.7765L265.76 26.7888L266.728 26.8876L256.271 126.773L161.891 49.9214L266.88 25.4982Z" fill="#C6C6C6"/>
<path d="M254.568 124.358L255.444 124.852L254.779 125.609L254.16 125.102L254.568 124.358Z" fill="#C6C6C6"/>
<path d="M265.759 26.7929L266.727 26.8917L266.628 28.1758L265.396 27.7609L265.759 26.7929Z" fill="#C6C6C6"/>
<path d="M264.847 25.4217L266.085 25.8563L265.762 26.7913L265.4 27.7593L266.632 28.1742L256.596 123.767L515.171 115.391L266.632 28.1742L266.73 26.8901L265.762 26.7913L266.085 25.8563L520.992 115.259L520.682 117.208L254.305 125.867L264.847 25.4217Z" fill="#C6C6C6"/>
<path d="M519.646 116.44L520.628 116.223L520.68 117.204L519.824 117.23L519.646 116.44Z" fill="#C6C6C6"/>
<path d="M255.4 123.802L521.441 115.149L521.646 115.979L520.625 116.223L519.644 116.44L519.822 117.23L266.502 125.468L530.509 165.504L519.822 117.23L520.678 117.204L520.625 116.223L521.646 115.979L533.182 167.934L255.281 125.81L255.4 123.802Z" fill="#C6C6C6"/>
<path d="M271.668 -270.759L274.045 -270.759L83.7423 29.0039L-0.339856 -240.738L-0.339856 -247.541L84.3744 24.2167L271.668 -270.759Z" fill="#C6C6C6"/>
<path d="M274.038 -270.761L85.9019 25.5775L264.931 25.7751L329.746 -270.761L331.8 -270.761L266.538 27.8164L82.2539 27.6056L271.674 -270.761L274.038 -270.761Z" fill="#C6C6C6"/>
<path d="M255.444 124.852L256.34 125.274L255.859 126.176L254.977 125.689L255.444 124.852Z" fill="#C6C6C6"/>
<path d="M255.622 123.817L532.943 165.901L532.864 166.796L531.85 166.717L530.83 166.638L530.764 167.554L261.265 126.708L520.722 263.133L530.764 167.554L531.712 167.712L531.85 166.717L532.864 166.796L522.401 266.34L254.977 125.687L255.622 123.817Z" fill="#C6C6C6"/>
<path d="M530.828 166.638L531.848 166.717L531.71 167.711L530.762 167.553L530.828 166.638Z" fill="#C6C6C6"/>
<path d="M520.561 264.926L521.568 264.748L521.594 265.776L520.732 265.809L520.561 264.926Z" fill="#C6C6C6"/>
<path d="M531.076 164.207L562.38 202.347L562.011 202.979L561.149 202.419L560.286 201.866L559.897 202.479L532.623 169.245L522.989 260.597L559.897 202.479L560.372 203.052L561.149 202.419L562.011 202.979L522.416 265.285L520.533 264.646L531.076 164.207Z" fill="#C6C6C6"/>
<path d="M560.287 201.869L561.15 202.423L560.373 203.055L559.898 202.482L560.287 201.869Z" fill="#C6C6C6"/>
<path d="M561.152 202.422L562.014 202.981L561.534 203.719L560.75 203.343L561.152 202.422Z" fill="#C6C6C6"/>
<path d="M560.764 201.129L561.554 201.504L561.152 202.419L560.75 203.341L561.534 203.717L523.296 263.863L744.494 284.25L561.534 203.717L562.015 202.979L561.152 202.419L561.554 201.504L751.007 284.888L750.487 286.824L519.832 265.608L560.764 201.129Z" fill="#C6C6C6"/>
<path d="M749.607 285.665L750.614 285.81L750.489 286.824L749.455 286.732L749.607 285.665Z" fill="#C6C6C6"/>
<path d="M521.57 264.746L522.564 264.548L524.052 272.16L520.654 265.2L521.57 264.746Z" fill="#C6C6C6"/>
<path d="M750.608 285.812L751.596 285.944L751.319 287.59L750.002 286.655L750.608 285.812Z" fill="#C6C6C6"/>
<g opacity="0.7">
<path opacity="0.7" d="M540.047 434.852L541.43 432.646L541.864 435.247L540.883 435.379L540.047 434.852Z" fill="#C6C6C6"/>
<path opacity="0.7" d="M540.881 435.378L541.862 435.247L541.427 432.646L618.641 311.096L512 253.063L541.427 432.646L540.045 434.852L540.881 435.378L539.893 435.583L509.326 249.31L621.486 310.332L540.328 438.184L539.893 435.583L540.881 435.378Z" fill="#C6C6C6"/>
<path opacity="0.7" d="M511.163 250.294L511.9 250.695L511.61 251.512L510.662 251.176L511.163 250.294Z" fill="#C6C6C6"/>
<path opacity="0.7" d="M509.725 250.865L510.66 251.174L511.609 251.51L511.898 250.694L619.153 309.062L651.906 -156.995L511.898 250.694L511.161 250.292L510.66 251.174L509.725 250.865L652.479 -164.923L654.467 -164.574L620.963 312.348L509.436 251.675L509.725 250.865Z" fill="#C6C6C6"/>
<path opacity="0.7" d="M509.725 250.866L511.542 245.546L511.7 251.123L510.66 251.176L509.725 250.866Z" fill="#C6C6C6"/>
<path opacity="0.7" d="M619.026 310.645L620.04 310.724L621.047 310.796L621.166 309.196L962.644 177.005L654.307 -162.194L621.166 309.196L619.671 309.782L620.04 310.724L619.026 310.645L652.628 -167.061L966.147 177.795L618.953 312.219L619.026 310.645Z" fill="#C6C6C6"/>
<path opacity="0.7" d="M619.672 309.779L621.167 309.193L621.048 310.793L620.041 310.721L619.672 309.779Z" fill="#C6C6C6"/>
<path opacity="0.7" d="M509.673 251.211L509.436 243.882L511.622 250.849L510.66 251.171L509.673 251.211Z" fill="#C6C6C6"/>
<path opacity="0.7" d="M541.315 434.489L542.381 434.956L541.756 435.937L540.887 435.378L541.315 434.489Z" fill="#C6C6C6"/>
<path opacity="0.7" d="M997.018 -5.93625L963.804 175.187L965.187 176.702L964.41 177.413L963.422 177.209L963.804 175.187L657.022 -162.202L997.018 -34.7055L997.018 -36.8521L653.848 -165.58L652.676 -163.94L963.666 178.084L965.048 179.605L997.018 5.179L997.018 -5.93625Z" fill="#C6C6C6"/>
<path opacity="0.7" d="M990.288 245.758L990.103 244.797L988.898 244.981L963.83 178.685L630.01 307.946L988.898 244.981L989.313 246.153L990.288 245.758L990.439 246.772L620.232 311.699L619.672 309.776L965.028 176.091L991.671 246.535L990.439 246.772L990.288 245.758Z" fill="#C6C6C6"/>
</g>
<path d="M505.044 252.296C502.779 249.53 503.18 245.454 505.939 243.189C508.705 240.924 512.781 241.326 515.046 244.085C517.311 246.85 516.916 250.926 514.151 253.192C511.392 255.463 507.316 255.062 505.044 252.296Z" fill="#C6C6C6"/>
<path d="M839.118 31.9132C836.853 29.1476 837.255 25.0716 840.014 22.8064C842.779 20.5412 846.855 20.9429 849.12 23.7019C851.386 26.4676 850.984 30.5436 848.225 32.8087C845.466 35.0805 841.39 34.6789 839.118 31.9132Z" fill="#C6C6C6"/>
<path d="M535.546 438.444C533.281 435.679 533.682 431.603 536.441 429.338C539.207 427.072 543.283 427.474 545.548 430.233C547.813 432.999 547.412 437.075 544.653 439.34C541.894 441.612 537.818 441.21 535.546 438.444Z" fill="#C6C6C6"/>
<path d="M620.463 183.12C616.308 178.063 617.046 170.589 622.109 166.434C627.173 162.279 634.64 163.017 638.795 168.08C642.95 173.144 642.213 180.611 637.149 184.766C632.085 188.915 624.618 188.177 620.463 183.12Z" fill="#C6C6C6"/>
<path d="M579.371 31.7016C574.584 25.8674 575.433 17.261 581.261 12.4803C587.095 7.69315 595.695 8.54259 600.482 14.3702C605.27 20.2044 604.42 28.8108 598.592 33.598C592.771 38.3852 584.158 37.5358 579.371 31.7016Z" fill="#C6C6C6"/>
<path d="M250.096 130.865C246.798 126.846 247.381 120.916 251.401 117.616C255.421 114.319 261.351 114.902 264.651 118.921C267.95 122.941 267.365 128.874 263.348 132.171C259.328 135.471 253.395 134.885 250.096 130.865Z" fill="#C6C6C6"/>
<path d="M557.364 205.174C555.975 203.482 556.218 200.98 557.911 199.59C559.603 198.201 562.105 198.445 563.495 200.137C564.884 201.829 564.64 204.332 562.948 205.721C561.249 207.117 558.754 206.867 557.364 205.174Z" fill="#C6C6C6"/>
<path d="M741.389 293.057C737.951 288.869 738.557 282.692 742.745 279.255C746.933 275.818 753.116 276.423 756.554 280.611C759.991 284.799 759.378 290.976 755.19 294.413C751.003 297.857 744.826 297.245 741.389 293.057Z" fill="#C6C6C6"/>
<path d="M516.088 117.001C515.245 115.973 515.397 114.452 516.424 113.609C517.451 112.767 518.972 112.918 519.815 113.945C520.658 114.973 520.513 116.494 519.479 117.336C518.452 118.173 516.931 118.028 516.088 117.001Z" fill="#C6C6C6"/>
<path d="M620.866 232.006C620.023 230.978 620.168 229.457 621.202 228.614C622.229 227.772 623.75 227.923 624.593 228.95C625.436 229.977 625.291 231.499 624.257 232.341C623.223 233.184 621.709 233.033 620.866 232.006Z" fill="#C6C6C6"/>
<path d="M617.398 277.438C615.923 275.647 616.187 272.994 617.984 271.519C619.782 270.044 622.429 270.307 623.904 272.105C625.379 273.902 625.116 276.549 623.318 278.024C621.52 279.493 618.873 279.236 617.398 277.438Z" fill="#C6C6C6"/>
<path d="M695.655 282.805C693.646 280.362 694.002 276.754 696.451 274.745C698.894 272.737 702.51 273.093 704.511 275.542C706.52 277.985 706.164 281.594 703.715 283.602C701.272 285.604 697.663 285.248 695.655 282.805Z" fill="#C6C6C6"/>
<path d="M719.255 126.605C715.221 123.997 709.836 125.153 707.228 129.188C704.619 133.222 705.776 138.607 709.81 141.215C713.845 143.823 719.23 142.667 721.838 138.632C724.446 134.598 723.29 129.213 719.255 126.605Z" fill="#C6C6C6"/>
<path d="M614.55 316.132C612.14 313.195 612.574 308.875 615.498 306.478C618.428 304.075 622.748 304.496 625.151 307.426C627.555 310.35 627.133 314.676 624.203 317.08C621.28 319.483 616.953 319.055 614.55 316.132Z" fill="#C6C6C6"/>
<path d="M80.3546 30.7013C78.1421 28.0015 78.5306 24.0176 81.2304 21.8051C83.9302 19.586 87.914 19.9811 90.1265 22.6809C92.3456 25.3807 91.9505 29.3645 89.2507 31.5836C86.5575 33.7961 82.5737 33.4011 80.3546 30.7013Z" fill="#C6C6C6"/>
<path d="M262.909 31.8302C260.697 29.1304 261.085 25.1465 263.785 22.9274C266.485 20.7083 270.469 21.1035 272.681 23.8032C274.9 26.503 274.505 30.4869 271.805 32.706C269.112 34.9185 265.128 34.53 262.909 31.8302Z" fill="#C6C6C6"/>
<path d="M504.285 605.893L505.141 605.189L505.787 605.979L506.405 606.73L507.301 605.999L654.394 749.075L631.465 504.091L507.301 605.999L506.478 605.248L505.787 605.979L505.141 605.189L633.164 500.121L656.949 754.336L504.285 605.893Z" fill="#C6C6C6"/>
<path d="M817.454 469.641L816.677 470.273L815.584 468.943L817.276 468.68L817.454 469.641Z" fill="#C6C6C6"/>
<path d="M819.306 470.325L817.627 470.595L817.456 469.64L817.278 468.679L815.586 468.942L787.864 435.162L640.429 499.667L815.586 468.942L816.679 470.272L817.456 469.64L817.627 470.595L632.481 503.098L631.947 501.201L788.437 432.705L819.306 470.325Z" fill="#C6C6C6"/>
<path d="M631.603 503.516L631.313 502.33L632.308 502.133L633.315 501.869L633.052 500.717L785.63 433.933L600.114 352.274L633.052 500.717L631.945 501.198L632.308 502.133L631.313 502.33L597.27 348.811L790.667 433.933L631.603 503.516Z" fill="#C6C6C6"/>
<path d="M633.317 501.869L632.309 502.133L631.947 501.198L633.054 500.717L633.317 501.869Z" fill="#C6C6C6"/>
<path d="M503.561 609.066L504.838 605.649L505.786 605.978L506.734 606.301L507.986 602.857L631.175 501.753L598.468 354.166L507.986 602.857L505.141 605.188L505.786 605.978L504.838 605.649L598.942 346.949L633.454 502.457L503.561 609.066Z" fill="#C6C6C6"/>
<path d="M654.9 754.41L654.683 751.822L655.671 751.71L656.678 751.605L656.454 748.997L826.772 520.964L633.414 503.244L656.454 748.997L654.848 751.118L655.671 751.71L654.683 751.822L631.182 501.018L830.532 519.33L654.9 754.41Z" fill="#C6C6C6"/>
<path d="M829.941 521.266L828.538 521.127L828.677 520.133L828.756 519.152L827.346 519.014L816.686 470.779L639.981 501.774L827.346 519.014L827.649 520.377L828.677 520.133L828.538 521.127L632.23 503.118L632.178 501.149L818.22 468.501L829.941 521.266Z" fill="#C6C6C6"/>
<path d="M828.678 520.131L827.651 520.375L827.348 519.012L828.757 519.15L828.678 520.131Z" fill="#C6C6C6"/>
<path d="M997.006 578.126L834.129 520.969L997.006 515.694L997.006 513.679L828.617 519.158L828.314 521.101L997.006 580.266L997.006 578.126Z" fill="#C6C6C6"/>
<path d="M829.647 519.916L828.673 520.133L828.613 519.158L829.476 519.125L829.647 519.916Z" fill="#C6C6C6"/>
<path d="M997.003 513.677L829.478 519.122L829.649 519.912L828.674 520.13L828.615 519.155L829.478 519.122L818.784 470.849L997.003 497.873L997.003 495.838L816.117 468.425L827.647 520.373L827.851 521.203L997.003 515.698L997.003 513.677Z" fill="#C6C6C6"/>
<path d="M997.005 459.478L831.481 372.453L997.005 364.149L997.005 362.128L823.994 370.787L997.005 461.75L997.005 459.478Z" fill="#C6C6C6"/>
<path d="M997.003 495.856L818.533 468.805L818.467 469.721L817.453 469.642L817.585 468.647L818.533 468.805L828.575 373.226L997.003 461.786L997.003 459.488L826.896 370.019L816.433 469.563L816.354 470.458L997.003 497.871L997.003 495.856Z" fill="#C6C6C6"/>
<path d="M818.473 469.723L817.459 469.644L817.591 468.649L818.539 468.807L818.473 469.723Z" fill="#C6C6C6"/>
<path d="M828.739 371.432L827.731 371.609L827.705 370.589L828.561 370.549L828.739 371.432Z" fill="#C6C6C6"/>
<path d="M818.22 472.148L786.916 434.009L787.291 433.383L788.154 433.936L789.017 434.49L789.399 433.877L816.673 467.111L826.307 375.759L789.399 433.877L788.924 433.304L788.154 433.936L787.291 433.383L826.886 371.077L828.763 371.709L818.22 472.148Z" fill="#C6C6C6"/>
<path d="M789.015 434.488L788.152 433.935L788.923 433.303L789.397 433.876L789.015 434.488Z" fill="#C6C6C6"/>
<path d="M788.154 433.937L787.291 433.384L787.765 432.64L788.555 433.016L788.154 433.937Z" fill="#C6C6C6"/>
<path d="M788.536 435.234L787.753 434.852L788.154 433.937L788.556 433.015L787.766 432.64L826.004 372.494L604.812 352.107L787.766 432.64L787.292 433.384L788.154 433.937L787.753 434.852L598.293 351.468L598.813 349.532L829.474 370.749L788.536 435.234Z" fill="#C6C6C6"/>
<path d="M599.69 350.691L598.689 350.547L598.808 349.532L599.842 349.625L599.69 350.691Z" fill="#C6C6C6"/>
<path d="M827.736 371.611L826.742 371.809L825.254 364.196L828.652 371.157L827.736 371.611Z" fill="#C6C6C6"/>
<path d="M598.687 350.547L597.699 350.422L597.976 348.769L599.286 349.704L598.687 350.547Z" fill="#C6C6C6"/>
<g opacity="0.7">
<path opacity="0.7" d="M809.253 201.509L807.87 203.715L807.436 201.114L808.417 200.982L809.253 201.509Z" fill="#C6C6C6"/>
<path opacity="0.7" d="M808.414 200.982L807.433 201.114L807.867 203.715L730.653 325.265L837.295 383.297L807.867 203.715L809.25 201.509L808.414 200.982L809.402 200.778L839.969 387.051L727.809 326.029L808.974 198.177L809.402 200.778L808.414 200.982Z" fill="#C6C6C6"/>
<path opacity="0.7" d="M838.15 386.07L837.412 385.669L837.695 384.859L838.65 385.188L838.15 386.07Z" fill="#C6C6C6"/>
<path opacity="0.7" d="M839.576 385.497L838.647 385.188L837.693 384.858L837.409 385.668L730.149 327.3L697.396 793.357L837.409 385.668L838.147 386.07L838.647 385.188L839.576 385.497L696.823 801.285L694.834 800.936L728.338 324.021L839.866 384.687L839.576 385.497Z" fill="#C6C6C6"/>
<path opacity="0.7" d="M839.579 385.5L837.762 390.82L837.604 385.243L838.65 385.19L839.579 385.5Z" fill="#C6C6C6"/>
<path opacity="0.7" d="M729.625 326.586L728.137 327.172L728.249 325.572L729.263 325.644L729.625 326.586Z" fill="#C6C6C6"/>
<path opacity="0.7" d="M839.633 385.148L839.863 392.477L837.684 385.51L838.645 385.187L839.633 385.148Z" fill="#C6C6C6"/>
<path opacity="0.7" d="M807.99 201.871L806.93 201.404L807.549 200.422L808.418 200.982L807.99 201.871Z" fill="#C6C6C6"/>
</g>
<path d="M844.242 384.054C846.507 386.82 846.105 390.896 843.346 393.161C840.581 395.426 836.504 395.025 834.239 392.266C831.974 389.5 832.369 385.424 835.135 383.159C837.894 380.887 841.977 381.289 844.242 384.054Z" fill="#C6C6C6"/>
<path d="M813.744 197.91C816.009 200.675 815.607 204.752 812.848 207.017C810.082 209.282 806.006 208.88 803.741 206.121C801.476 203.356 801.878 199.279 804.637 197.014C807.396 194.743 811.478 195.144 813.744 197.91Z" fill="#C6C6C6"/>
<path d="M728.825 453.235C732.98 458.292 732.242 465.766 727.178 469.921C722.115 474.076 714.647 473.339 710.492 468.282C706.337 463.218 707.075 455.751 712.139 451.595C717.202 447.44 724.676 448.178 728.825 453.235Z" fill="#C6C6C6"/>
<path d="M791.932 431.179C793.322 432.871 793.078 435.373 791.386 436.763C789.693 438.152 787.191 437.909 785.802 436.216C784.412 434.524 784.656 432.022 786.348 430.632C788.041 429.236 790.543 429.486 791.932 431.179Z" fill="#C6C6C6"/>
<path d="M607.908 343.302C611.346 347.49 610.74 353.666 606.552 357.104C602.364 360.541 596.181 359.935 592.743 355.747C589.306 351.559 589.918 345.383 594.106 341.945C598.294 338.508 604.471 339.114 607.908 343.302Z" fill="#C6C6C6"/>
<path d="M833.208 519.364C834.051 520.392 833.899 521.913 832.872 522.756C831.845 523.598 830.324 523.447 829.481 522.42C828.638 521.392 828.783 519.871 829.817 519.028C830.844 518.186 832.359 518.33 833.208 519.364Z" fill="#C6C6C6"/>
<path d="M728.431 404.353C729.274 405.38 729.129 406.901 728.095 407.744C727.068 408.587 725.546 408.435 724.704 407.408C723.861 406.381 724.006 404.86 725.039 404.017C726.067 403.174 727.581 403.325 728.431 404.353Z" fill="#C6C6C6"/>
<path d="M731.888 358.918C733.363 360.715 733.1 363.363 731.302 364.838C729.505 366.313 726.858 366.049 725.383 364.258C723.908 362.46 724.171 359.813 725.969 358.338C727.766 356.863 730.42 357.12 731.888 358.918Z" fill="#C6C6C6"/>
<path d="M653.63 353.553C655.639 355.996 655.283 359.604 652.834 361.613C650.391 363.621 646.776 363.266 644.774 360.816C642.765 358.373 643.121 354.765 645.571 352.756C648.014 350.754 651.622 351.11 653.63 353.553Z" fill="#C6C6C6"/>
<path d="M641.504 496.924C644.553 500.638 644.013 506.116 640.299 509.165C636.585 512.214 631.106 511.674 628.058 507.96C625.009 504.246 625.549 498.768 629.263 495.719C632.977 492.67 638.462 493.21 641.504 496.924Z" fill="#C6C6C6"/>
<path d="M734.735 320.221C737.145 323.158 736.71 327.478 733.787 329.875C730.856 332.278 726.537 331.857 724.133 328.926C721.73 326.003 722.151 321.677 725.081 319.273C728.005 316.87 732.338 317.298 734.735 320.221Z" fill="#C6C6C6"/>
<g opacity="0.3">
<g opacity="0.3">
<g opacity="0.3">
<g opacity="0.3">
<path opacity="0.3" d="M997.014 236.366L790.045 268.171L935.406 -131.53L933.687 -132.578L934.596 -133.96L936.091 -133.447L935.406 -131.53L997.014 -93.0815L997.014 -96.8677L935.439 -135.291L933.74 -136.318L785.152 272.188L997.014 239.612L997.014 236.366Z" fill="#C6C6C6"/>
<path opacity="0.3" d="M704.59 -270.762L707.856 -270.762L735.749 27.2428L932.202 -133.988L933.499 -132.802L934.599 -133.955L933.618 -135.153L932.202 -133.988L791.589 -270.762L796.146 -270.762L936.97 -133.823L935.62 -132.717L733.056 33.5312L704.59 -270.762Z" fill="#C6C6C6"/>
<path opacity="0.3" d="M441.484 81.7512L442.703 80.7437L444.434 82.8508L441.754 83.2656L441.484 81.7512Z" fill="#C6C6C6"/>
<path opacity="0.3" d="M438.549 80.6657L441.209 80.2311L441.486 81.7522L441.756 83.2667L444.436 82.8518L488.297 136.295L721.573 34.2424L444.436 82.8518L442.704 80.7447L441.486 81.7522L441.209 80.2311L734.143 28.8165L734.993 31.8125L487.395 140.18L438.549 80.6657Z" fill="#C6C6C6"/>
<path opacity="0.3" d="M735.533 28.1493L735.994 30.0194L734.42 30.3355L732.826 30.7503L733.241 32.5743L491.827 138.248L785.354 267.437L733.241 32.5743L734.993 31.8171L734.42 30.3355L735.994 30.0194L789.858 272.922L483.859 138.242L735.533 28.1493Z" fill="#C6C6C6"/>
<path opacity="0.3" d="M732.824 30.7463L734.418 30.3314L734.991 31.813L733.239 32.5703L732.824 30.7463Z" fill="#C6C6C6"/>
<path opacity="0.3" d="M938.113 -138.845L936.092 -133.445L934.597 -133.959L933.096 -134.472L931.114 -129.027L736.208 30.9393L787.959 264.452L931.114 -129.027L935.618 -132.721L934.597 -133.959L936.092 -133.445L787.201 275.863L732.6 29.8264L938.113 -138.845Z" fill="#C6C6C6"/>
<path opacity="0.3" d="M629.374 -270.765L426.731 0.54418L732.658 28.5891L704.599 -270.765L707.819 -270.765L736.194 32.1055L420.785 3.13207L625.416 -270.765L629.374 -270.765Z" fill="#C6C6C6"/>
<path opacity="0.3" d="M421.727 0.0678558L423.946 0.285126L423.735 1.85892L423.603 3.41293L425.829 3.6237L442.693 79.9488L722.28 30.9047L425.829 3.6237L425.348 1.47043L423.735 1.85892L423.946 0.285126L734.547 28.7844L734.633 31.899L440.276 83.5508L421.727 0.0678558Z" fill="#C6C6C6"/>
<path opacity="0.3" d="M423.729 1.86022L425.343 1.47174L425.823 3.625L423.598 3.41424L423.729 1.86022Z" fill="#C6C6C6"/>
<path opacity="0.3" d="M-0.339844 9.73372L2.82748 12.3083L18.6377 -137.57L20.8041 -138.077L20.4881 -139.644L18.8814 -139.762L18.6377 -137.57L-0.33985 -133.151L-0.339851 -136.424L22.2528 -141.685L22.0092 -139.486L5.47459 18.5508L-0.339844 13.8163L-0.339844 9.73372Z" fill="#C6C6C6"/>
<path opacity="0.3" d="M2.773 14.7316L4.1624 15.5019L3.10224 16.707L2.12109 15.9037L2.773 14.7316Z" fill="#C6C6C6"/>
<path opacity="0.3" d="M19.0303 -141.806L20.9926 -141.121L20.4855 -139.646L19.9127 -138.112L21.8552 -137.453L5.9791 13.7945L415.09 0.539134L21.8552 -137.453L22.0066 -139.488L20.4855 -139.646L20.9926 -141.121L424.302 0.335045L423.815 3.41012L2.35742 17.1133L19.0303 -141.806Z" fill="#C6C6C6"/>
<path opacity="0.3" d="M422.178 2.20321L423.732 1.86078L423.817 3.40821L422.454 3.46094L422.178 2.20321Z" fill="#C6C6C6"/>
<path opacity="0.3" d="M4.09721 13.8631L425.021 0.166562L425.344 1.47695L423.731 1.86543L422.177 2.20786L422.453 3.46559L21.659 16.4905L439.37 79.8368L422.453 3.46559L423.816 3.41285L423.731 1.86543L425.344 1.47695L443.597 83.6758L3.90625 17.037L4.09721 13.8631Z" fill="#C6C6C6"/>
<path opacity="0.3" d="M4.16792 15.5088L5.57708 16.1804L4.81323 17.6094L3.42383 16.8389L4.16792 15.5088Z" fill="#C6C6C6"/>
<path opacity="0.3" d="M4.43789 13.8802L443.22 80.4597L443.095 81.8755L441.488 81.757L439.875 81.6318L439.77 83.074L13.367 18.4501L423.881 234.295L439.77 83.074L441.271 83.3307L441.488 81.757L443.095 81.8755L426.541 239.379L3.42382 16.8368L4.43789 13.8802Z" fill="#C6C6C6"/>
<path opacity="0.3" d="M439.869 81.6254L441.482 81.7505L441.265 83.3242L439.764 83.0675L439.869 81.6254Z" fill="#C6C6C6"/>
<path opacity="0.3" d="M423.625 237.137L425.219 236.847L425.258 238.467L423.902 238.52L423.625 237.137Z" fill="#C6C6C6"/>
<path opacity="0.3" d="M440.265 77.7792L489.797 138.13L489.211 139.124L487.841 138.241L486.478 137.366L485.872 138.334L442.715 85.7469L427.471 230.285L485.872 138.334L486.623 139.242L487.841 138.241L489.211 139.124L426.562 237.699L423.586 236.698L440.265 77.7792Z" fill="#C6C6C6"/>
<path opacity="0.3" d="M486.479 137.362L487.842 138.237L486.624 139.238L485.873 138.33L486.479 137.362Z" fill="#C6C6C6"/>
<path opacity="0.3" d="M487.845 138.237L489.215 139.12L488.457 140.285L487.213 139.693L487.845 138.237Z" fill="#C6C6C6"/>
<path opacity="0.3" d="M487.237 136.192L488.482 136.785L487.843 138.24L487.211 139.696L488.456 140.288L427.954 235.453L777.926 267.712L488.456 140.288L489.213 139.123L487.843 138.24L488.482 136.785L788.238 268.726L787.415 271.781L422.469 238.212L487.237 136.192Z" fill="#C6C6C6"/>
<path opacity="0.3" d="M786.017 269.951L787.604 270.181L787.413 271.781L785.773 271.636L786.017 269.951Z" fill="#C6C6C6"/>
<path opacity="0.3" d="M425.22 236.848L426.794 236.532L429.145 248.582L423.771 237.572L425.22 236.848Z" fill="#C6C6C6"/>
<path opacity="0.3" d="M787.608 270.18L789.176 270.385L788.734 272.992L786.66 271.511L787.608 270.18Z" fill="#C6C6C6"/>
</g>
<g opacity="0.7">
<path opacity="0.7" d="M454.451 505.978L456.637 502.481L457.329 506.597L455.775 506.801L454.451 505.978Z" fill="#C6C6C6"/>
<path opacity="0.7" d="M455.778 506.804L457.332 506.6L456.641 502.484L578.81 310.167L410.086 218.354L456.641 502.484L454.454 505.981L455.778 506.804L454.217 507.133L405.852 212.408L583.307 308.968L454.902 511.242L454.217 507.133L455.778 506.804Z" fill="#C6C6C6"/>
<path opacity="0.7" d="M408.741 213.968L409.913 214.6L409.459 215.891L407.951 215.364L408.741 213.968Z" fill="#C6C6C6"/>
<path opacity="0.7" d="M576.598 -270.77L409.916 214.6L408.744 213.968L407.954 215.364L409.461 215.891L409.916 214.6L579.614 306.953L620.217 -270.77L623.423 -270.77L582.479 312.148L406.018 216.154L406.479 214.877L573.214 -270.77L576.598 -270.77Z" fill="#C6C6C6"/>
<path opacity="0.7" d="M406.479 214.88L409.356 206.458L409.606 215.282L407.954 215.367L406.479 214.88Z" fill="#C6C6C6"/>
<path opacity="0.7" d="M997.01 146.817L582.79 307.158L582.612 309.693L581.012 309.581L580.432 308.087L582.79 307.158L623.425 -270.769L620.224 -270.769L579.405 309.456L579.293 311.945L997.01 150.214L997.01 146.817Z" fill="#C6C6C6"/>
<path opacity="0.7" d="M580.432 308.089L582.789 307.16L582.611 309.695L581.011 309.583L580.432 308.089Z" fill="#C6C6C6"/>
<path opacity="0.7" d="M406.386 215.426L406.018 203.83L409.475 214.859L407.954 215.366L406.386 215.426Z" fill="#C6C6C6"/>
<path opacity="0.7" d="M456.458 505.404L458.137 506.148L457.156 507.695L455.779 506.806L456.458 505.404Z" fill="#C6C6C6"/>
<path opacity="0.7" d="M997.01 234.975L596.788 305.189L997.01 150.221L997.01 146.83L580.432 308.087L581.314 311.129L997.01 238.228L997.01 234.975Z" fill="#C6C6C6"/>
</g>
</g>
<g opacity="0.3">
<path opacity="0.3" d="M399.094 217.148C395.505 212.776 396.144 206.323 400.516 202.734C404.888 199.145 411.342 199.784 414.93 204.156C418.519 208.529 417.887 214.982 413.515 218.57C409.136 222.159 402.682 221.52 399.094 217.148Z" fill="#C6C6C6"/>
<path opacity="0.3" d="M447.353 511.672C443.765 507.299 444.403 500.846 448.776 497.257C453.148 493.668 459.601 494.307 463.19 498.68C466.779 503.052 466.14 509.505 461.768 513.094C457.389 516.683 450.936 516.044 447.353 511.672Z" fill="#C6C6C6"/>
<path opacity="0.3" d="M604.671 79.1224C595.438 74.4205 584.142 78.0935 579.44 87.3262C574.738 96.5589 578.411 107.855 587.644 112.557C596.877 117.259 608.173 113.586 612.875 104.353C617.577 95.1203 613.904 83.8242 604.671 79.1224Z" fill="#C6C6C6"/>
<path opacity="0.3" d="M481.859 142.596C479.66 139.916 480.048 135.965 482.728 133.766C485.408 131.566 489.359 131.955 491.559 134.635C493.758 137.315 493.369 141.266 490.689 143.465C488.016 145.665 484.058 145.276 481.859 142.596Z" fill="#C6C6C6"/>
<path opacity="0.3" d="M773.027 281.648C767.588 275.024 768.55 265.245 775.174 259.806C781.805 254.367 791.583 255.329 797.023 261.953C802.462 268.577 801.494 278.356 794.869 283.795C788.238 289.234 778.46 288.273 773.027 281.648Z" fill="#C6C6C6"/>
<path opacity="0.3" d="M416.558 3.07964C415.221 1.45317 415.458 -0.950236 417.084 -2.28696C418.711 -3.62369 421.114 -3.38668 422.451 -1.76022C423.788 -0.133762 423.551 2.26973 421.924 3.60646C420.298 4.94318 417.894 4.7061 416.558 3.07964Z" fill="#C6C6C6"/>
<path opacity="0.3" d="M582.341 185.045C581.004 183.418 581.241 181.015 582.868 179.678C584.494 178.341 586.898 178.578 588.234 180.205C589.571 181.831 589.334 184.235 587.708 185.571C586.074 186.908 583.678 186.671 582.341 185.045Z" fill="#C6C6C6"/>
<path opacity="0.3" d="M576.846 256.928C574.515 254.09 574.93 249.895 577.768 247.564C580.606 245.233 584.8 245.648 587.131 248.486C589.462 251.324 589.048 255.519 586.209 257.85C583.371 260.181 579.177 259.766 576.846 256.928Z" fill="#C6C6C6"/>
<path opacity="0.3" d="M700.678 265.419C697.504 261.554 698.064 255.839 701.936 252.665C705.808 249.491 711.517 250.057 714.691 253.922C717.865 257.794 717.305 263.503 713.433 266.677C709.568 269.851 703.859 269.291 700.678 265.419Z" fill="#C6C6C6"/>
<path opacity="0.3" d="M736.259 17.3353C729.338 14.1946 721.181 17.2594 718.041 24.1807C714.9 31.1019 717.965 39.2587 724.886 42.3993C731.807 45.5399 739.964 42.4752 743.105 35.5539C746.245 28.6327 743.18 20.4759 736.259 17.3353Z" fill="#C6C6C6"/>
<path opacity="0.3" d="M590.89 307.39C588.726 301.797 582.439 299.017 576.846 301.181C571.253 303.344 568.473 309.632 570.637 315.225C572.801 320.818 579.089 323.598 584.681 321.434C590.274 319.27 593.054 312.982 590.89 307.39Z" fill="#C6C6C6"/>
</g>
</g>
<g opacity="0.3">
<g opacity="0.3">
<g opacity="0.3">
<path opacity="0.3" d="M896.306 562.113L893.653 562.548L893.376 561.033L893.1 559.519L890.426 559.927L846.564 506.484L613.289 608.536L890.426 559.927L892.151 562.034L893.376 561.033L893.653 562.548L600.719 613.969L599.869 610.966L847.467 502.599L896.306 562.113Z" fill="#C6C6C6"/>
<path opacity="0.3" d="M599.335 614.637L598.874 612.76L600.448 612.451L602.041 612.029L601.626 610.212L843.034 504.538L549.507 375.343L601.626 610.212L599.875 610.962L600.448 612.451L598.874 612.76L545.01 369.858L851.002 504.538L599.335 614.637Z" fill="#C6C6C6"/>
<path opacity="0.3" d="M396.742 781.629L398.764 776.229L400.258 776.743L401.76 777.25L403.742 771.804L598.654 611.838L546.897 378.332L403.742 771.804L399.244 775.498L400.258 776.743L398.764 776.229L547.661 366.914L602.262 612.958L396.742 781.629Z" fill="#C6C6C6"/>
<path opacity="0.3" d="M913.142 642.711L910.917 642.494L911.134 640.92L911.259 639.372L909.04 639.155L892.17 562.837L612.59 611.874L909.04 639.155L909.514 641.308L911.134 640.92L910.917 642.494L600.322 614.001L600.236 610.88L894.593 559.228L913.142 642.711Z" fill="#C6C6C6"/>
<path opacity="0.3" d="M894.598 565L845.066 504.65L845.652 503.662L847.015 504.538L848.379 505.414L848.991 504.452L892.142 557.032L907.392 412.495L848.991 504.452L848.24 503.537L847.015 504.538L845.652 503.662L908.301 405.08L911.271 406.081L894.598 565Z" fill="#C6C6C6"/>
<path opacity="0.3" d="M848.379 505.418L847.016 504.542L848.24 503.541L848.991 504.457L848.379 505.418Z" fill="#C6C6C6"/>
<path opacity="0.3" d="M847.015 504.539L845.652 503.663L846.41 502.491L847.654 503.084L847.015 504.539Z" fill="#C6C6C6"/>
<path opacity="0.3" d="M847.622 506.586L846.384 505.993L847.016 504.538L847.655 503.083L846.41 502.49L906.912 407.326L556.933 375.066L846.41 502.49L845.653 503.662L847.016 504.538L846.384 505.993L546.621 374.059L547.451 370.997L912.397 404.567L847.622 506.586Z" fill="#C6C6C6"/>
<path opacity="0.3" d="M548.84 372.828L547.26 372.604L547.451 370.998L549.084 371.142L548.84 372.828Z" fill="#C6C6C6"/>
<path opacity="0.3" d="M547.257 372.605L545.689 372.401L546.124 369.787L548.205 371.269L547.257 372.605Z" fill="#C6C6C6"/>
</g>
<g opacity="0.7">
<path opacity="0.7" d="M879.078 135.971L877.53 136.175L878.215 140.291L756.053 332.608L924.777 424.428L878.215 140.291L880.401 136.794L879.078 135.971L880.645 135.642L929.011 430.367L751.549 333.813L879.96 131.533L880.645 135.642L879.078 135.971Z" fill="#C6C6C6"/>
<path opacity="0.7" d="M928.385 427.909L926.91 427.421L925.402 426.895L924.948 428.179L755.243 335.826L703.427 1073.22L924.948 428.179L926.114 428.811L926.91 427.421L928.385 427.909L702.518 1085.77L699.377 1085.22L752.385 330.637L928.84 426.631L928.385 427.909Z" fill="#C6C6C6"/>
<path opacity="0.7" d="M754.426 334.693L752.062 335.621L752.247 333.086L753.847 333.205L754.426 334.693Z" fill="#C6C6C6"/>
<path opacity="0.7" d="M878.406 137.375L876.721 136.637L877.708 135.083L879.078 135.972L878.406 137.375Z" fill="#C6C6C6"/>
</g>
</g>
<g opacity="0.3">
<path opacity="0.3" d="M887.502 131.109C891.091 135.482 890.453 141.935 886.08 145.524C881.708 149.112 875.255 148.474 871.666 144.101C868.077 139.729 868.716 133.276 873.088 129.687C877.461 126.105 883.914 126.737 887.502 131.109Z" fill="#C6C6C6"/>
<path opacity="0.3" d="M753.682 535.826C747.521 527.496 735.774 525.737 727.443 531.897C719.113 538.058 717.354 549.805 723.515 558.135C729.676 566.466 741.423 568.225 749.753 562.064C758.083 555.903 759.842 544.156 753.682 535.826Z" fill="#C6C6C6"/>
<path opacity="0.3" d="M852.992 500.186C855.192 502.866 854.803 506.817 852.123 509.016C849.443 511.215 845.492 510.827 843.293 508.147C841.093 505.467 841.482 501.509 844.162 499.316C846.835 497.117 850.793 497.506 852.992 500.186Z" fill="#C6C6C6"/>
<path opacity="0.3" d="M561.827 361.14C567.266 367.765 566.304 377.543 559.68 382.982C553.049 388.422 543.27 387.46 537.831 380.836C532.392 374.211 533.36 364.433 539.985 358.994C546.615 353.555 556.387 354.516 561.827 361.14Z" fill="#C6C6C6"/>
<path opacity="0.3" d="M752.519 457.74C753.856 459.366 753.619 461.77 751.993 463.106C750.366 464.443 747.963 464.206 746.626 462.58C745.289 460.953 745.526 458.55 747.153 457.213C748.779 455.876 751.183 456.113 752.519 457.74Z" fill="#C6C6C6"/>
<path opacity="0.3" d="M758.006 385.853C760.337 388.691 759.922 392.886 757.084 395.217C754.246 397.548 750.052 397.133 747.721 394.295C745.39 391.457 745.805 387.262 748.643 384.931C751.481 382.6 755.675 383.015 758.006 385.853Z" fill="#C6C6C6"/>
<path opacity="0.3" d="M634.175 377.364C637.349 381.229 636.789 386.945 632.918 390.119C629.046 393.293 623.337 392.733 620.163 388.861C616.989 384.989 617.548 379.28 621.42 376.106C625.292 372.932 631.001 373.492 634.175 377.364Z" fill="#C6C6C6"/>
<path opacity="0.3" d="M762.498 324.633C766.311 329.275 765.626 336.11 760.997 339.909C756.361 343.716 749.526 343.051 745.72 338.408C741.921 333.779 742.592 326.937 747.222 323.131C751.857 319.332 758.706 320.003 762.498 324.633Z" fill="#C6C6C6"/>
</g>
</g>
</g>
</g>
<defs>
<clipPath id="clip0_900_3544">
<rect width="877" height="578" fill="white"/>
</clipPath>
</defs>
</svg>
