<svg width="91" height="130" viewBox="0 0 91 130" fill="none" xmlns="http://www.w3.org/2000/svg">
<g opacity="0.4">
<path d="M0 45.0067L0 48.8594H19.7017V45.0067H0Z" fill="#070720"/>
<path d="M11.7788 37.082H7.92285V56.7837H11.7788V37.082Z" fill="#070720"/>
<path d="M0.00195313 7.9214L0.00195312 11.7773L19.7036 11.7773V7.9214L0.00195313 7.9214Z" fill="#070720"/>
<path d="M11.7788 0H7.92285V19.7017H11.7788V0Z" fill="#070720"/>
<path d="M35.3037 45.0067V48.8594H55.0021V45.0067H35.3037Z" fill="#070720"/>
<path d="M47.0792 37.082H43.2266V56.7837H47.0792V37.082Z" fill="#070720"/>
<path d="M35.3018 7.9214V11.7773L55.0001 11.7773V7.9214L35.3018 7.9214Z" fill="#070720"/>
<path d="M47.0792 0H43.2266V19.7017H47.0792V0Z" fill="#070720"/>
<path d="M70.6006 45.0106V48.8633H90.3022V45.0106H70.6006Z" fill="#070720"/>
<path d="M82.3804 37.082H78.5244V56.7837H82.3804V37.082Z" fill="#070720"/>
<path d="M70.6025 7.9214V11.7773L90.3042 11.7773V7.9214L70.6025 7.9214Z" fill="#070720"/>
<path d="M82.3804 0H78.5244V19.7017H82.3804V0Z" fill="#070720"/>
<path d="M0.00195313 117.225L0.00195312 121.078H19.7036V117.225H0.00195313Z" fill="#070720"/>
<path d="M11.7798 109.301H7.92383V129.002H11.7798V109.301Z" fill="#070720"/>
<path d="M0.00195313 80.1395L0.00195312 83.9922H19.7036V80.1395H0.00195313Z" fill="#070720"/>
<path d="M11.7788 72.2148H7.92285V91.9165H11.7788V72.2148Z" fill="#070720"/>
<path d="M35.3018 117.225V121.078H55.0001V117.225H35.3018Z" fill="#070720"/>
<path d="M47.0792 109.301H43.2266V129.002H47.0792V109.301Z" fill="#070720"/>
<path d="M35.3018 80.1395V83.9922H55.0001V80.1395H35.3018Z" fill="#070720"/>
<path d="M47.0792 72.2148H43.2266V91.9165H47.0792V72.2148Z" fill="#070720"/>
<path d="M70.6006 117.225V121.078H90.3022V117.225H70.6006Z" fill="#070720"/>
<path d="M82.3794 109.301H78.5234V129.002H82.3794V109.301Z" fill="#070720"/>
<path d="M70.6016 80.1434V83.9961H90.3032V80.1434H70.6016Z" fill="#070720"/>
<path d="M82.3794 72.2148H78.5234V91.9165H82.3794V72.2148Z" fill="#070720"/>
</g>
</svg>
