<svg width="695" height="87" viewBox="0 0 695 87" fill="none" xmlns="http://www.w3.org/2000/svg">
<path d="M7.29153 1.6123L11.5762 20.1572L12.4991 25.3208L13.4439 20.2671L17.0913 1.6123H24.2325L28.0777 20.1572L29.0664 25.3208L30.0552 20.355L34.3838 1.6123H41.2613L32.1426 34H25.6826L21.7715 15.0596L20.6289 8.79736L19.4864 15.0596L15.5752 34H9.29105L0.106476 1.6123H7.29153ZM45.3262 34V1.6123H52.0279V13.9609H64.6841V1.6123H71.4077V34H64.6841V19.542H52.0279V34H45.3262ZM101.84 7.34717H84.7012V14.2246H100.434V19.8496H84.7012V28.1772H102.631V34H78.0874V1.6123H101.84V7.34717ZM114.672 7.2373V15.9385H122.34C123.864 15.9385 125.006 15.7627 125.768 15.4111C127.116 14.7959 127.79 13.5801 127.79 11.7637C127.79 9.80078 127.138 8.48242 125.834 7.80859C125.102 7.42773 124.003 7.2373 122.538 7.2373H114.672ZM123.944 1.6123C126.215 1.65625 127.958 1.93457 129.174 2.44727C130.404 2.95996 131.444 3.71436 132.294 4.71045C132.997 5.53076 133.554 6.43896 133.964 7.43506C134.374 8.43115 134.579 9.56641 134.579 10.8408C134.579 12.3789 134.191 13.895 133.415 15.3892C132.638 16.8687 131.356 17.916 129.569 18.5312C131.064 19.1318 132.118 19.9888 132.733 21.1021C133.363 22.2007 133.678 23.8853 133.678 26.1558V28.3311C133.678 29.8105 133.737 30.814 133.854 31.3413C134.03 32.1763 134.44 32.7915 135.085 33.187V34H127.636C127.431 33.2822 127.284 32.7036 127.196 32.2642C127.021 31.356 126.925 30.4258 126.911 29.4736L126.867 26.4634C126.837 24.3979 126.457 23.021 125.724 22.3325C125.006 21.644 123.651 21.2998 121.659 21.2998H114.672V34H108.058V1.6123H123.944ZM164.374 7.34717H147.235V14.2246H162.968V19.8496H147.235V28.1772H165.165V34H140.622V1.6123H164.374V7.34717ZM206.913 7.34717H189.774V14.2246H205.507V19.8496H189.774V28.1772H207.704V34H183.161V1.6123H206.913V7.34717ZM218.141 34H210.275L220.69 17.4985L210.78 1.6123H218.866L224.645 12.1372L230.578 1.6123H238.4L228.49 17.2349L239.015 34H230.797L224.645 22.9697L218.141 34ZM261.23 11.9175C261.23 10.2329 260.783 9.03174 259.889 8.31396C259.01 7.59619 257.772 7.2373 256.176 7.2373H249.87V16.7734H256.176C257.772 16.7734 259.01 16.3853 259.889 15.6089C260.783 14.8325 261.23 13.6021 261.23 11.9175ZM267.931 11.8735C267.931 15.6968 266.964 18.3994 265.031 19.9814C263.097 21.5635 260.336 22.3545 256.747 22.3545H249.87V34H243.146V1.6123H257.252C260.504 1.6123 263.097 2.44727 265.031 4.11719C266.964 5.78711 267.931 8.37256 267.931 11.8735ZM296.957 7.34717H279.818V14.2246H295.551V19.8496H279.818V28.1772H297.748V34H273.205V1.6123H296.957V7.34717ZM309.789 7.2373V15.9385H317.458C318.981 15.9385 320.124 15.7627 320.885 15.4111C322.233 14.7959 322.907 13.5801 322.907 11.7637C322.907 9.80078 322.255 8.48242 320.951 7.80859C320.219 7.42773 319.12 7.2373 317.655 7.2373H309.789ZM319.062 1.6123C321.332 1.65625 323.075 1.93457 324.291 2.44727C325.522 2.95996 326.562 3.71436 327.411 4.71045C328.114 5.53076 328.671 6.43896 329.081 7.43506C329.491 8.43115 329.696 9.56641 329.696 10.8408C329.696 12.3789 329.308 13.895 328.532 15.3892C327.755 16.8687 326.474 17.916 324.687 18.5312C326.181 19.1318 327.235 19.9888 327.851 21.1021C328.48 22.2007 328.795 23.8853 328.795 26.1558V28.3311C328.795 29.8105 328.854 30.814 328.971 31.3413C329.147 32.1763 329.557 32.7915 330.202 33.187V34H322.753C322.548 33.2822 322.401 32.7036 322.314 32.2642C322.138 31.356 322.043 30.4258 322.028 29.4736L321.984 26.4634C321.955 24.3979 321.574 23.021 320.841 22.3325C320.124 21.644 318.769 21.2998 316.776 21.2998H309.789V34H303.175V1.6123H319.062ZM341.737 34H335.014V1.6123H341.737V34ZM372.016 7.34717H354.877V14.2246H370.609V19.8496H354.877V28.1772H372.807V34H348.263V1.6123H372.016V7.34717ZM377.97 1.6123H385.067L397.965 24.2222V1.6123H404.272V34H397.504L384.276 10.9946V34H377.97V1.6123ZM409.193 18.0698C409.193 12.4155 410.71 8.05762 413.742 4.99609C416.378 2.33008 419.733 0.99707 423.805 0.99707C429.254 0.99707 433.239 2.78418 435.758 6.3584C437.15 8.36523 437.897 10.3794 438 12.4009H431.232C430.793 10.8481 430.229 9.67627 429.54 8.88525C428.31 7.479 426.486 6.77588 424.069 6.77588C421.608 6.77588 419.667 7.77197 418.246 9.76416C416.825 11.7417 416.115 14.5469 416.115 18.1797C416.115 21.8125 416.862 24.5371 418.356 26.3535C419.865 28.1553 421.776 29.0562 424.091 29.0562C426.464 29.0562 428.273 28.2798 429.518 26.7271C430.207 25.8921 430.778 24.6396 431.232 22.9697H437.934C437.348 26.5 435.846 29.3711 433.429 31.583C431.027 33.7949 427.943 34.9009 424.179 34.9009C419.521 34.9009 415.858 33.4067 413.192 30.4185C410.526 27.4155 409.193 23.2993 409.193 18.0698ZM467.069 7.34717H449.931V14.2246H465.663V19.8496H449.931V28.1772H467.86V34H443.317V1.6123H467.069V7.34717ZM478.034 24.0024C478.239 25.4819 478.642 26.5879 479.242 27.3203C480.341 28.6533 482.223 29.3198 484.889 29.3198C486.486 29.3198 487.782 29.144 488.778 28.7925C490.668 28.1187 491.613 26.8662 491.613 25.0352C491.613 23.9658 491.144 23.1382 490.207 22.5522C489.269 21.981 487.797 21.4756 485.79 21.0361L482.362 20.2671C478.993 19.5054 476.664 18.6777 475.375 17.7842C473.192 16.29 472.101 13.9536 472.101 10.7749C472.101 7.87451 473.156 5.46484 475.265 3.5459C477.375 1.62695 480.473 0.66748 484.56 0.66748C487.973 0.66748 490.88 1.57568 493.283 3.39209C495.7 5.19385 496.967 7.81592 497.084 11.2583H490.58C490.463 9.31006 489.613 7.92578 488.031 7.10547C486.977 6.56348 485.666 6.29248 484.098 6.29248C482.355 6.29248 480.963 6.64404 479.923 7.34717C478.883 8.05029 478.363 9.03174 478.363 10.2915C478.363 11.4487 478.876 12.313 479.901 12.8843C480.561 13.2651 481.967 13.7119 484.12 14.2246L489.701 15.5649C492.147 16.1509 493.993 16.9346 495.238 17.916C497.172 19.4395 498.139 21.644 498.139 24.5298C498.139 27.4888 497.003 29.9497 494.733 31.9126C492.477 33.8608 489.284 34.835 485.153 34.835C480.934 34.835 477.616 33.8755 475.199 31.9565C472.782 30.0229 471.574 27.3716 471.574 24.0024H478.034ZM520.089 1.6123L524.374 20.1572L525.297 25.3208L526.242 20.2671L529.889 1.6123H537.03L540.875 20.1572L541.864 25.3208L542.853 20.355L547.182 1.6123H554.059L544.94 34H538.48L534.569 15.0596L533.427 8.79736L532.284 15.0596L528.373 34H522.089L512.904 1.6123H520.089ZM564.364 34H557.641V1.6123H564.364V34ZM570.692 1.6123H577.46V28.1772H593.5V34H570.692V1.6123ZM598.202 1.6123H604.97V28.1772H621.01V34H598.202V1.6123ZM644.015 7.2373V14.3784H651.969C653.39 14.3784 654.54 14.1147 655.419 13.5874C656.312 13.0454 656.759 12.0933 656.759 10.731C656.759 9.22217 656.173 8.22607 655.001 7.74268C653.991 7.40576 652.702 7.2373 651.134 7.2373H644.015ZM644.015 19.7397V28.375H651.969C653.39 28.375 654.496 28.1846 655.287 27.8037C656.723 27.1006 657.44 25.7529 657.44 23.7607C657.44 22.0762 656.745 20.9189 655.353 20.2891C654.577 19.9375 653.485 19.7544 652.079 19.7397H644.015ZM653.288 1.6123C657.257 1.6709 660.07 2.8208 661.725 5.06201C662.721 6.43896 663.219 8.08691 663.219 10.0059C663.219 11.9834 662.721 13.5728 661.725 14.7739C661.168 15.4478 660.348 16.063 659.264 16.6196C660.919 17.2202 662.165 18.1724 663 19.4761C663.849 20.7798 664.274 22.3618 664.274 24.2222C664.274 26.1411 663.791 27.8623 662.824 29.3857C662.208 30.3965 661.439 31.2461 660.517 31.9346C659.477 32.7256 658.246 33.2676 656.825 33.5605C655.419 33.8535 653.888 34 652.233 34H637.555V1.6123H653.288ZM693.915 7.34717H676.776V14.2246H692.509V19.8496H676.776V28.1772H694.706V34H670.163V1.6123H693.915V7.34717Z" fill="black"/>
<path d="M34.8452 59.2373V66.3784H42.7993C44.2202 66.3784 45.3701 66.1147 46.2491 65.5874C47.1426 65.0454 47.5894 64.0933 47.5894 62.731C47.5894 61.2222 47.0034 60.2261 45.8316 59.7427C44.8208 59.4058 43.5318 59.2373 41.9644 59.2373H34.8452ZM34.8452 71.7397V80.375H42.7993C44.2202 80.375 45.3262 80.1846 46.1172 79.8037C47.5528 79.1006 48.2705 77.7529 48.2705 75.7607C48.2705 74.0762 47.5747 72.9189 46.1831 72.2891C45.4068 71.9375 44.3155 71.7544 42.9092 71.7397H34.8452ZM44.1177 53.6123C48.0874 53.6709 50.8999 54.8208 52.5552 57.062C53.5513 58.439 54.0493 60.0869 54.0493 62.0059C54.0493 63.9834 53.5513 65.5728 52.5552 66.7739C51.9986 67.4478 51.1783 68.063 50.0943 68.6196C51.7495 69.2202 52.9947 70.1724 53.8296 71.4761C54.6792 72.7798 55.104 74.3618 55.104 76.2222C55.104 78.1411 54.6206 79.8623 53.6538 81.3857C53.0386 82.3965 52.2696 83.2461 51.3467 83.9346C50.3067 84.7256 49.0762 85.2676 47.6553 85.5605C46.2491 85.8535 44.7183 86 43.063 86H28.3853V53.6123H44.1177ZM84.7451 59.3472H67.6065V66.2246H83.3389V71.8496H67.6065V80.1772H85.5362V86H60.9927V53.6123H84.7451V59.3472ZM109.289 53.6123H116.957L106.125 73.8271V86H99.357V73.8271L88.1509 53.6123H96.127L102.851 67.7188L109.289 53.6123ZM135.15 81.166C137.831 81.166 139.955 80.1772 141.522 78.1997C143.105 76.2222 143.896 73.4097 143.896 69.7622C143.896 66.1294 143.105 63.3242 141.522 61.3467C139.955 59.3545 137.831 58.3584 135.15 58.3584C132.47 58.3584 130.331 59.3472 128.734 61.3247C127.138 63.3022 126.339 66.1147 126.339 69.7622C126.339 73.4097 127.138 76.2222 128.734 78.1997C130.331 80.1772 132.47 81.166 135.15 81.166ZM150.663 69.7622C150.663 75.5776 149.03 80.0308 145.763 83.1216C143.317 85.6411 139.779 86.9009 135.15 86.9009C130.522 86.9009 126.984 85.6411 124.538 83.1216C121.256 80.0308 119.616 75.5776 119.616 69.7622C119.616 63.8296 121.256 59.3765 124.538 56.4028C126.984 53.8833 130.522 52.6235 135.15 52.6235C139.779 52.6235 143.317 53.8833 145.763 56.4028C149.03 59.3765 150.663 63.8296 150.663 69.7622ZM155.739 53.6123H162.836L175.734 76.2222V53.6123H182.04V86H175.272L162.045 62.9946V86H155.739V53.6123ZM194.938 59.2373V80.375H201.178C204.372 80.375 206.598 78.8003 207.858 75.6509C208.546 73.9224 208.891 71.8643 208.891 69.4766C208.891 66.1807 208.371 63.6538 207.331 61.896C206.305 60.1235 204.254 59.2373 201.178 59.2373H194.938ZM202.321 53.6123C204.328 53.6416 205.998 53.876 207.331 54.3154C209.601 55.0625 211.439 56.4321 212.846 58.4243C213.974 60.0356 214.743 61.7788 215.153 63.6538C215.563 65.5288 215.768 67.3159 215.768 69.0151C215.768 73.3218 214.904 76.9692 213.175 79.9575C210.832 83.9858 207.213 86 202.321 86H188.368V53.6123H202.321ZM251.1 53.6123H258.769L247.936 73.8271V86H241.168V73.8271L229.962 53.6123H237.939L244.662 67.7188L251.1 53.6123ZM276.962 81.166C279.643 81.166 281.767 80.1772 283.334 78.1997C284.916 76.2222 285.707 73.4097 285.707 69.7622C285.707 66.1294 284.916 63.3242 283.334 61.3467C281.767 59.3545 279.643 58.3584 276.962 58.3584C274.281 58.3584 272.143 59.3472 270.546 61.3247C268.949 63.3022 268.151 66.1147 268.151 69.7622C268.151 73.4097 268.949 76.2222 270.546 78.1997C272.143 80.1772 274.281 81.166 276.962 81.166ZM292.475 69.7622C292.475 75.5776 290.841 80.0308 287.575 83.1216C285.128 85.6411 281.591 86.9009 276.962 86.9009C272.333 86.9009 268.795 85.6411 266.349 83.1216C263.068 80.0308 261.427 75.5776 261.427 69.7622C261.427 63.8296 263.068 59.3765 266.349 56.4028C268.795 53.8833 272.333 52.6235 276.962 52.6235C281.591 52.6235 285.128 53.8833 287.575 56.4028C290.841 59.3765 292.475 63.8296 292.475 69.7622ZM297.66 53.6123H304.538V73.5195C304.538 75.7461 304.801 77.3721 305.329 78.3975C306.149 80.2139 307.936 81.1221 310.69 81.1221C313.429 81.1221 315.209 80.2139 316.029 78.3975C316.557 77.3721 316.82 75.7461 316.82 73.5195V53.6123H323.698V73.5195C323.698 76.9619 323.163 79.6426 322.094 81.5615C320.102 85.0771 316.3 86.835 310.69 86.835C305.08 86.835 301.271 85.0771 299.264 81.5615C298.195 79.6426 297.66 76.9619 297.66 73.5195V53.6123ZM336.947 59.2373V67.9385H344.616C346.139 67.9385 347.282 67.7627 348.043 67.4111C349.391 66.7959 350.065 65.5801 350.065 63.7637C350.065 61.8008 349.413 60.4824 348.109 59.8086C347.377 59.4277 346.278 59.2373 344.814 59.2373H336.947ZM346.22 53.6123C348.49 53.6562 350.233 53.9346 351.449 54.4473C352.68 54.96 353.72 55.7144 354.569 56.7104C355.272 57.5308 355.829 58.439 356.239 59.4351C356.649 60.4312 356.855 61.5664 356.855 62.8408C356.855 64.3789 356.466 65.895 355.69 67.3892C354.914 68.8687 353.632 69.916 351.845 70.5312C353.339 71.1318 354.394 71.9888 355.009 73.1021C355.639 74.2007 355.954 75.8853 355.954 78.1558V80.3311C355.954 81.8105 356.012 82.814 356.129 83.3413C356.305 84.1763 356.715 84.7915 357.36 85.187V86H349.911C349.706 85.2822 349.56 84.7036 349.472 84.2642C349.296 83.356 349.201 82.4258 349.186 81.4736L349.142 78.4634C349.113 76.3979 348.732 75.021 348 74.3325C347.282 73.644 345.927 73.2998 343.935 73.2998H336.947V86H330.334V53.6123H346.22ZM381.42 86H374.696V53.6123H381.42V86ZM409.215 53.6123H418.949V86H412.643V64.0933C412.643 63.4634 412.65 62.5845 412.665 61.4565C412.68 60.314 412.687 59.4351 412.687 58.8198L406.557 86H399.987L393.9 58.8198C393.9 59.4351 393.908 60.314 393.922 61.4565C393.937 62.5845 393.944 63.4634 393.944 64.0933V86H387.638V53.6123H397.482L403.371 79.0786L409.215 53.6123ZM434.088 73.7612H442.306L438.263 61.0171L434.088 73.7612ZM434.506 53.6123H442.152L453.622 86H446.283L444.196 79.3423H432.265L430.023 86H422.948L434.506 53.6123ZM479.528 63.7197C479.015 61.5078 477.763 59.9624 475.771 59.0835C474.657 58.6001 473.419 58.3584 472.057 58.3584C469.45 58.3584 467.304 59.3472 465.619 61.3247C463.949 63.2876 463.114 66.2466 463.114 70.2017C463.114 74.186 464.022 77.0059 465.839 78.6611C467.655 80.3164 469.721 81.144 472.035 81.144C474.306 81.144 476.166 80.4922 477.616 79.1885C479.066 77.8701 479.96 76.1489 480.297 74.0249H472.804V68.6196H486.295V86H481.813L481.132 81.957C479.828 83.4951 478.656 84.5791 477.616 85.209C475.829 86.3076 473.632 86.8569 471.024 86.8569C466.732 86.8569 463.217 85.3701 460.478 82.3965C457.621 79.4082 456.193 75.3213 456.193 70.1357C456.193 64.8916 457.636 60.6875 460.522 57.5234C463.407 54.3594 467.223 52.7773 471.969 52.7773C476.085 52.7773 479.389 53.8247 481.879 55.9194C484.384 57.9995 485.819 60.5996 486.186 63.7197H479.528ZM498.974 86H492.25V53.6123H498.974V86ZM505.192 53.6123H512.289L525.187 76.2222V53.6123H531.493V86H524.726L511.498 62.9946V86H505.192V53.6123ZM546.676 73.7612H554.894L550.851 61.0171L546.676 73.7612ZM547.094 53.6123H554.74L566.21 86H558.871L556.784 79.3423H544.853L542.611 86H535.536L547.094 53.6123ZM590.534 53.6123V59.3472H580.844V86H574.032V59.3472H564.298V53.6123H590.534ZM600.707 86H593.983V53.6123H600.707V86ZM621.361 81.166C624.042 81.166 626.166 80.1772 627.733 78.1997C629.315 76.2222 630.106 73.4097 630.106 69.7622C630.106 66.1294 629.315 63.3242 627.733 61.3467C626.166 59.3545 624.042 58.3584 621.361 58.3584C618.681 58.3584 616.542 59.3472 614.945 61.3247C613.349 63.3022 612.55 66.1147 612.55 69.7622C612.55 73.4097 613.349 76.2222 614.945 78.1997C616.542 80.1772 618.681 81.166 621.361 81.166ZM636.874 69.7622C636.874 75.5776 635.241 80.0308 631.974 83.1216C629.528 85.6411 625.99 86.9009 621.361 86.9009C616.732 86.9009 613.195 85.6411 610.749 83.1216C607.467 80.0308 605.827 75.5776 605.827 69.7622C605.827 63.8296 607.467 59.3765 610.749 56.4028C613.195 53.8833 616.732 52.6235 621.361 52.6235C625.99 52.6235 629.528 53.8833 631.974 56.4028C635.241 59.3765 636.874 63.8296 636.874 69.7622ZM641.95 53.6123H649.047L661.945 76.2222V53.6123H668.251V86H661.483L648.256 62.9946V86H641.95V53.6123Z" fill="url(#paint0_linear_363_49349)"/>
<defs>
<linearGradient id="paint0_linear_363_49349" x1="-187.5" y1="21" x2="619.626" y2="431.184" gradientUnits="userSpaceOnUse">
<stop stop-color="#3069FE"/>
<stop offset="1" stop-color="#1BF1D8"/>
</linearGradient>
</defs>
</svg>
