<svg width="79" height="56" viewBox="0 0 79 56" fill="none" xmlns="http://www.w3.org/2000/svg">
<g opacity="0.4">
<path d="M27.5106 55.2852L29.8389 55.2852L29.8389 43.3761L27.5106 43.3761L27.5106 55.2852Z" fill="#070720"/>
<path d="M22.7178 48.165L22.7178 50.4961L34.6268 50.4961L34.6268 48.165L22.7178 48.165Z" fill="#070720"/>
<path d="M5.09368 55.2852L7.4248 55.2852L7.4248 43.3761L5.09368 43.3761L5.09368 55.2852Z" fill="#070720"/>
<path d="M0.303711 48.165L0.303711 50.4961L12.2127 50.4961L12.2127 48.165L0.303711 48.165Z" fill="#070720"/>
<path d="M27.5106 33.9453L29.8389 33.9453L29.8389 22.0391L27.5106 22.0391L27.5106 33.9453Z" fill="#070720"/>
<path d="M22.7178 26.8279L22.7178 29.1562L34.6268 29.1562L34.6268 26.8279L22.7178 26.8279Z" fill="#070720"/>
<path d="M5.09367 33.9453L7.4248 33.9453L7.4248 22.0391L5.09367 22.0391L5.09367 33.9453Z" fill="#070720"/>
<path d="M0.303711 26.8279L0.303711 29.1562L12.2127 29.1562L12.2127 26.8279L0.303711 26.8279Z" fill="#070720"/>
<path d="M27.5106 12.6094L29.8389 12.6094L29.8389 0.700349L27.5106 0.700349L27.5106 12.6094Z" fill="#070720"/>
<path d="M22.7178 5.48918L22.7178 7.82031L34.6268 7.82031L34.6268 5.48918L22.7178 5.48918Z" fill="#070720"/>
<path d="M5.09367 12.6094L7.4248 12.6094L7.4248 0.700349L5.09367 0.700349L5.09367 12.6094Z" fill="#070720"/>
<path d="M0.303711 5.48918L0.303711 7.82031L12.2127 7.82031L12.2127 5.48918L0.303711 5.48918Z" fill="#070720"/>
<path d="M71.1639 55.2813L73.4922 55.2812L73.4922 43.3723L71.1639 43.3723L71.1639 55.2813Z" fill="#070720"/>
<path d="M66.374 48.1611L66.374 50.4922L78.283 50.4922L78.283 48.1611L66.374 48.1611Z" fill="#070720"/>
<path d="M48.7469 55.2813L51.0752 55.2812L51.0752 43.3723L48.7469 43.3723L48.7469 55.2813Z" fill="#070720"/>
<path d="M43.9541 48.165L43.9541 50.4961L55.8631 50.4961L55.8631 48.165L43.9541 48.165Z" fill="#070720"/>
<path d="M71.1639 33.9453L73.4922 33.9453L73.4922 22.0391L71.1639 22.0391L71.1639 33.9453Z" fill="#070720"/>
<path d="M66.374 26.8279L66.374 29.1562L78.283 29.1562L78.283 26.8279L66.374 26.8279Z" fill="#070720"/>
<path d="M48.7469 33.9453L51.0752 33.9453L51.0752 22.0391L48.7469 22.0391L48.7469 33.9453Z" fill="#070720"/>
<path d="M43.9541 26.8279L43.9541 29.1562L55.8631 29.1562L55.8631 26.8279L43.9541 26.8279Z" fill="#070720"/>
<path d="M71.1639 12.6094L73.4922 12.6094L73.4922 0.700383L71.1639 0.700383L71.1639 12.6094Z" fill="#070720"/>
<path d="M66.374 5.48918L66.374 7.82031L78.283 7.82031L78.283 5.48918L66.374 5.48918Z" fill="#070720"/>
<path d="M48.7469 12.6094L51.0752 12.6094L51.0752 0.700383L48.7469 0.700383L48.7469 12.6094Z" fill="#070720"/>
<path d="M43.9541 5.48918L43.9541 7.82031L55.8631 7.82031L55.8631 5.48918L43.9541 5.48918Z" fill="#070720"/>
</g>
</svg>
