<svg width="24" height="24" viewBox="0 0 24 24" fill="none" xmlns="http://www.w3.org/2000/svg">
<path fill-rule="evenodd" clip-rule="evenodd" d="M12 4C9.82667 4 9.556 4.00933 8.70133 4.04933C5.79467 4.18267 4.18133 5.79467 4.048 8.70133C4.00933 9.556 4 9.828 4 12C4 14.1733 4.00933 14.4453 4.048 15.2987C4.18133 18.204 5.79467 19.8187 8.70133 19.952C9.556 19.9907 9.82667 20 12 20C14.1733 20 14.4453 19.9907 15.3 19.952C18.2013 19.8187 19.8213 18.2067 19.952 15.2987C19.9907 14.4453 20 14.1733 20 12C20 9.828 19.9907 9.556 19.952 8.70133C19.8213 5.79867 18.2067 4.18133 15.3 4.04933C14.4453 4.00933 14.1733 4 12 4ZM12.0001 5.44287C14.1361 5.44287 14.3894 5.45087 15.2334 5.48954C17.4027 5.5882 18.4134 6.6162 18.5134 8.7682C18.5507 9.6122 18.5587 9.8642 18.5587 12.0002C18.5587 14.1362 18.5507 14.3895 18.5134 15.2322C18.4134 17.3829 17.4041 18.4135 15.2334 18.5122C14.3894 18.5495 14.1374 18.5589 12.0001 18.5589C9.86407 18.5589 9.61074 18.5509 8.76807 18.5122C6.59474 18.4122 5.58807 17.3802 5.48807 15.2322C5.45074 14.3895 5.44141 14.1362 5.44141 12.0002C5.44141 9.8642 5.45074 9.61087 5.48807 8.7682C5.58674 6.61487 6.59741 5.58687 8.76807 5.4882C9.61074 5.44954 9.86407 5.44287 12.0001 5.44287ZM7.8916 12.0001C7.8916 9.73076 9.7316 7.89209 11.9996 7.89209C14.2676 7.89209 16.1076 9.73209 16.1076 12.0001C16.1076 14.2694 14.2676 16.1081 11.9996 16.1081C9.7316 16.1081 7.8916 14.2694 7.8916 12.0001ZM11.9997 14.6668C10.5263 14.6668 9.33301 13.4735 9.33301 12.0002C9.33301 10.5282 10.5263 9.3335 11.9997 9.3335C13.4717 9.3335 14.6677 10.5268 14.6677 12.0002C14.6677 13.4735 13.4717 14.6668 11.9997 14.6668ZM15.3096 7.73075C15.3096 7.20009 15.7402 6.77075 16.2696 6.77075C16.8016 6.77075 17.2309 7.20009 17.2309 7.73075C17.2309 8.26142 16.8002 8.69075 16.2696 8.69075C15.7389 8.69075 15.3096 8.26009 15.3096 7.73075Z" fill="black"/>
</svg>
