<svg width="24" height="24" viewBox="0 0 24 24" fill="none" xmlns="http://www.w3.org/2000/svg">
<path d="M17.6341 17.633H15.2631V13.92C15.2631 13.0346 15.2473 11.8948 14.03 11.8948C12.7951 11.8948 12.6062 12.8594 12.6062 13.8555V17.6327H10.2353V9.99729H12.5114V11.0407C12.9748 10.2484 13.8716 9.77334 14.789 9.80741C17.192 9.80741 17.6351 11.388 17.6351 13.4443L17.6341 17.633ZM7.56011 8.95356C6.80532 8.95356 6.18393 8.33254 6.18393 7.57775C6.18393 6.82295 6.80503 6.20186 7.55982 6.20186C8.31454 6.20186 8.93557 6.82281 8.93571 7.57746C8.93571 8.33211 8.31476 8.95349 7.56011 8.95356ZM8.74555 17.633H6.37217V9.99729H8.74555V17.633ZM18.816 4.0001H5.18072C4.54065 3.99287 4.0078 4.51334 4 5.1534V18.8453C4.00752 19.4857 4.54029 20.0068 5.18072 19.9999H18.816C19.458 20.008 19.9926 19.487 20.0012 18.8453V5.15247C19.9926 4.51105 19.4573 3.99166 18.816 4.0001Z" fill="black"/>
</svg>
