<svg width="1360" height="292" viewBox="0 0 1360 292" fill="none" xmlns="http://www.w3.org/2000/svg">
<path d="M179.447 15.1918C189.709 19.4605 198.774 26.0735 205.881 34.476C211.829 41.4311 216.61 49.2652 220.046 57.686C223.685 66.9398 225.462 76.7936 225.281 86.7064C225.18 100.211 221.695 113.486 215.131 125.369C208.035 138.299 195.99 147.954 181.632 152.222C194.64 157.342 203.89 164.597 209.286 174.019C214.682 183.441 217.444 197.826 217.444 217.173V235.703C217.158 244.274 217.674 252.853 218.986 261.332C219.561 264.553 220.829 267.619 222.706 270.326C224.583 273.033 227.026 275.32 229.874 277.035V283.945H164.801C163.003 277.852 161.75 272.921 160.979 269.183C159.429 261.346 158.59 253.39 158.474 245.408L158.089 219.748C157.874 202.16 154.77 190.435 148.774 184.572C142.779 178.709 131.58 175.778 115.178 175.778H57.5889V283.945H0V8.09375H134.899C154.234 8.49158 169.084 10.8576 179.447 15.1918ZM57.5889 56.0214V130.143H121.056C133.646 130.143 143.121 128.667 149.416 125.652C160.572 120.438 166.14 110.084 166.118 94.5897C166.118 77.8391 160.765 66.6057 150.059 60.8896C143.999 57.6441 134.909 56.0214 122.79 56.0214H57.5889Z" fill="black"/>
<path d="M353.721 13.3281H411.92L505.128 283.997H441.212L383.206 92.3177H382.435L324.428 283.997H260.512L353.721 13.3281Z" fill="black"/>
<path d="M597.414 283.976H538.861V8.09375H597.414V283.976Z" fill="black"/>
<path d="M695.14 198.84C696.961 211.403 700.537 220.825 705.868 227.106C715.611 238.539 732.377 244.255 756.166 244.255C767.869 244.596 779.552 243.079 790.758 239.763C807.589 234.005 815.993 223.337 815.971 207.759C816.077 203.468 814.984 199.23 812.811 195.5C810.638 191.77 807.467 188.69 803.638 186.591C795.373 181.733 782.311 177.43 764.453 173.682L733.683 167.024C703.705 160.533 683.085 153.477 671.822 145.855C652.808 133.146 643.301 113.255 643.301 86.1814C643.043 74.544 645.406 62.9938 650.225 52.3498C655.043 41.7058 662.197 32.229 671.18 24.5915C689.809 8.25965 717.131 0.09375 753.147 0.09375C783.274 0.09375 808.969 7.79903 830.232 23.2096C851.495 38.6201 862.64 61.0031 863.668 90.3585H807.01C805.983 73.7755 798.392 61.9872 784.238 54.9938C773.247 50.0427 761.227 47.6661 749.132 48.0528C733.565 48.0528 721.135 51.047 711.842 57.0353C707.459 59.6487 703.86 63.3496 701.412 67.7625C698.963 72.1753 697.753 77.143 697.903 82.1612C697.775 86.7332 699.005 91.2434 701.445 95.1454C703.885 99.0475 707.43 102.174 711.65 104.146C717.538 107.392 730.032 111.203 749.132 115.579L798.627 126.98C820.339 131.984 836.613 138.663 847.448 147.017C864.257 159.978 872.661 178.76 872.661 203.362C872.876 215.361 870.299 227.251 865.124 238.134C859.949 249.016 852.312 258.605 842.791 266.177C822.834 282.928 794.677 291.303 758.318 291.303C721.189 291.303 691.982 283.095 670.698 266.68C649.414 250.264 638.772 227.713 638.772 199.028L695.14 198.84Z" fill="black"/>
<path d="M967.806 283.976H909.254V8.09375H967.806V283.976Z" fill="black"/>
<path d="M1021.98 8.09375H1083.78L1195.78 200.464V8.09375H1250.8V283.976H1191.8L1076.91 88.214V283.976H1021.98V8.09375Z" fill="black"/>
<path d="M1360 283.976H1301.25V8.09375H1360V283.976Z" fill="black"/>
</svg>
