<?xml version="1.0" encoding="utf-8"?>
<!-- Generator: Adobe Illustrator 22.0.1, SVG Export Plug-In . SVG Version: 6.00 Build 0)  -->
<svg version="1.1" id="katman_1" xmlns="http://www.w3.org/2000/svg" xmlns:xlink="http://www.w3.org/1999/xlink" x="0px" y="0px"
	 viewBox="0 0 1280 720" style="enable-background:new 0 0 1280 720;" xml:space="preserve">
<path d="M231.9,253.3c8.4,3.5,15.8,8.9,21.5,15.7c4.8,5.7,8.7,12.1,11.5,18.9c3,7.5,4.4,15.6,4.3,23.7c-0.1,11-2.9,21.8-8.3,31.5
	c-5.8,10.5-15.6,18.4-27.3,21.9c10.6,4.2,18.1,10.1,22.5,17.8c4.4,7.7,6.7,19.4,6.7,35.2v15.1c-0.2,7,0.2,14,1.3,20.9
	c0.5,2.6,1.5,5.1,3,7.3c1.5,2.2,3.5,4.1,5.8,5.5v5.6h-53c-1.5-5-2.5-9-3.1-12c-1.3-6.4-1.9-12.9-2-19.4l-0.3-20.9
	c-0.2-14.3-2.7-23.9-7.6-28.7c-4.9-4.8-14-7.2-27.4-7.2h-46.9v88.2H85.7V247.5h110C211.4,247.8,223.5,249.8,231.9,253.3z
	 M132.6,286.6V347h51.7c10.3,0,18-1.2,23.1-3.7c9.1-4.3,13.6-12.7,13.6-25.3c0-13.7-4.4-22.8-13.1-27.5c-4.9-2.6-12.4-4-22.2-4
	H132.6z"/>
<path d="M374,251.8h47.4l76,220.7h-52.1l-47.3-156.3h-0.6l-47.3,156.3H298L374,251.8z"/>
<path d="M572.7,472.4h-47.7V247.5h47.7V472.4z"/>
<path d="M652.3,403c1.5,10.2,4.4,17.9,8.7,23c7.9,9.3,21.6,14,41,14c9.5,0.3,19.1-1,28.2-3.7c13.7-4.7,20.6-13.4,20.6-26.1
	c0.1-3.5-0.8-7-2.6-10c-1.8-3-4.4-5.6-7.5-7.3c-6.7-4-17.4-7.5-31.9-10.5l-25.1-5.4c-24.4-5.3-41.2-11-50.4-17.3
	c-15.5-10.4-23.3-26.6-23.3-48.6c-0.2-9.5,1.7-18.9,5.6-27.6c3.9-8.7,9.8-16.4,17.1-22.6c15.2-13.3,37.5-20,66.8-20
	c24.6,0,45.5,6.3,62.8,18.8c17.3,12.6,26.4,30.8,27.3,54.7h-46.2c-0.8-13.5-7-23.1-18.6-28.8c-9-4-18.8-6-28.6-5.7
	c-12.7,0-22.8,2.4-30.4,7.3c-3.6,2.1-6.5,5.1-8.5,8.7c-2,3.6-3,7.6-2.9,11.7c-0.1,3.7,0.9,7.4,2.9,10.6c2,3.2,4.9,5.7,8.3,7.3
	c4.8,2.6,15,5.8,30.6,9.3l40.3,9.3c17.7,4.1,31,9.5,39.8,16.3c13.7,10.6,20.6,25.9,20.6,45.9c0.2,9.8-1.9,19.5-6.1,28.3
	c-4.2,8.9-10.4,16.7-18.2,22.9c-16.3,13.7-39.2,20.5-68.9,20.5c-30.3,0-54.1-6.7-71.4-20.1c-17.4-13.4-26-31.8-26-55.2L652.3,403z"
	/>
<path d="M874.6,472.4h-47.7V247.5h47.7V472.4z"/>
<path d="M918.8,247.5h50.4l91.3,156.8V247.5h44.9v224.9h-48.1l-93.7-159.6v159.6h-44.8V247.5z"/>
<path d="M1194.3,472.4h-47.9V247.5h47.9V472.4z"/>
</svg>
