<svg width="24" height="24" viewBox="0 0 24 24" fill="none" xmlns="http://www.w3.org/2000/svg">
<path d="M20 6.54C19.412 6.80133 18.7787 6.97733 18.1147 7.05733C18.7933 6.65067 19.312 6.008 19.5587 5.24133C18.924 5.61733 18.2213 5.89067 17.4733 6.03733C16.876 5.39867 16.0213 5 15.0787 5C12.9587 5 11.4013 6.97733 11.88 9.03067C9.15333 8.89333 6.73333 7.58667 5.11467 5.60133C4.25467 7.076 4.66933 9.00667 6.13067 9.984C5.59333 9.96667 5.088 9.81867 4.64533 9.57333C4.60933 11.0933 5.7 12.516 7.27867 12.8333C6.81733 12.9587 6.31067 12.988 5.796 12.8893C6.21333 14.1933 7.428 15.1413 8.86267 15.168C7.48 16.2507 5.74267 16.7347 4 16.5293C5.45333 17.4613 7.17733 18.004 9.03067 18.004C15.1267 18.004 18.5693 12.856 18.3613 8.23867C19.004 7.77733 19.56 7.19867 20 6.54V6.54Z" fill="black"/>
</svg>
